<?xml version="1.0" encoding="utf-8"?>
<!-- Generator: Adobe Illustrator 17.1.0, SVG Export Plug-In . SVG Version: 6.00 Build 0)  -->
<!DOCTYPE svg PUBLIC "-//W3C//DTD SVG 1.1//EN" "https://www.w3.org/Graphics/SVG/1.1/DTD/svg11.dtd">
<svg version="1.1" id="Calque_1" width="218" height="1342" xmlns="https://www.w3.org/2000/svg" xmlns:xlink="https://www.w3.org/1999/xlink" x="0px" y="0px"
	 viewBox="0 0 218 1342" enable-background="new 0 0 218 1342" xml:space="preserve">
<g id="search_5_">
	<g>
		<path fill="#EC6D24" d="M195.6,0.5c-4,0-7.3,3.3-7.3,7.3c0,1.6,0.5,3,1.2,4.1l-5.6,5.6l1.9,1.9l5.6-5.6c1.2,0.7,2.6,1.2,4.1,1.2
			c4,0,7.3-3.3,7.3-7.3S199.6,0.5,195.6,0.5z M195.6,12.4c-2.6,0-4.6-2.1-4.6-4.6s2.1-4.6,4.6-4.6c2.6,0,4.6,2.1,4.6,4.6
			S198.1,12.4,195.6,12.4z"/>
	</g>
</g>
<path fill="#818285" d="M18.1,55.9L18.1,55.9c0-1,0-1.8,0-2.7c0-0.1,0-0.1-0.1-0.1c-0.4,0-0.7-0.1-1.2-0.1s-1,0-1.5,0
	c-0.7,0-1.6,0.2-2.1,0.7c-0.7,0.5-1.2,1.2-1.5,2.1c-0.1,0.4-0.2,0.9-0.2,1.2c0,0.7,0,1.6,0,2.3v0.1c-0.9,0-1.8,0-2.7,0
	c0,1.1,0,2.1,0,3.2c0.9,0,1.8,0,2.7,0c0,2.7,0,5.4,0,8.1l0,0c-3.3,0-6.6,0-9.9,0c-0.7,0-1.2-0.5-1.2-1.2l0,0c0-6.2,0-12.3,0-18.4
	c0-0.5,0.2-0.7,0.6-1.1C1.3,50,1.4,50,1.6,50c0,0,0,0,0.1,0c6.2,0,12.3,0,18.4,0c0.5,0,1,0.2,1.2,0.7c0,0.1,0.1,0.2,0.1,0.4
	c0,6.2,0,12.3,0,18.6c0,0.6-0.5,1.2-1.2,1.2c-1.7,0-3.5,0-5.2,0c0,0,0,0-0.1,0c0-2.7,0-5.4,0-8.1h0.1c0.9,0,1.6,0,2.6,0
	c0.1,0,0.1,0,0.1-0.1c0.1-0.7,0.2-1.3,0.2-2.1c0-0.2,0.1-0.6,0.1-1c0,0,0,0,0-0.1c-1.1,0-2.1,0-3,0c0,0,0,0,0-0.1c0-0.7,0-1.5,0-2.2
	c0-0.1,0-0.2,0.1-0.4c0.1-0.4,0.4-0.7,0.9-0.7c0.2,0,0.4-0.1,0.6-0.1C17,56.1,17.6,56.1,18.1,55.9L18.1,55.9z"/>
<path fill="#818285" d="M23.9,81c-0.2,0.6-0.4,1.1-0.7,1.6s-0.7,0.9-1.2,1.2c1-0.1,1.8-0.4,2.7-0.7l0,0c0,0.1-0.1,0.1-0.1,0.2
	c-0.6,0.9-1.3,1.6-2.1,2.2c-0.1,0.1-0.2,0.1-0.1,0.2c0.1,2.4-0.5,4.6-1.5,6.7c-1.2,2.3-2.7,4.1-4.9,5.6c-1.6,1.1-3.3,1.6-5.1,2.1
	c-1.1,0.2-2.1,0.2-3.2,0.2C5.2,100.2,3,99.6,1,98.3c0,0-0.1-0.1-0.2-0.1c2.7,0.2,5.1-0.4,7.2-2.1l0,0c-0.1,0-0.2,0-0.2,0
	c-1.9-0.1-3.5-1.3-4.3-3.2c0-0.1,0-0.1-0.1-0.2c0.4,0,0.7,0.1,1.1,0.1c0.4,0,0.7-0.1,1.1-0.2c-0.1,0-0.1,0-0.2-0.1
	c-1.9-0.6-3.2-1.8-3.6-3.8c-0.1-0.5-0.1-0.7-0.1-1.1c0,0,0-0.1,0-0.2c0.7,0.4,1.3,0.6,2.1,0.6c-1.2-1-2.1-2.2-2.1-3.9
	c-0.1-1,0.2-1.9,0.7-2.8c2.7,3.2,6.1,4.9,10.2,5.2c0-0.2-0.1-0.6-0.1-0.9c-0.1-2.6,1.6-4.7,4-5.1c1.6-0.2,3.2,0.1,4.4,1.3
	c0.1,0.1,0.2,0.2,0.4,0.1c1-0.2,1.8-0.6,2.7-1.1C23.8,81,23.8,81,23.9,81z"/>
<path fill="#818285" d="M7.3,124.2c0,0.2-0.1,0.2-0.1,0.5c-0.2,0.9-0.5,1.8-0.7,2.7c-0.2,0.7-0.6,1.6-1,2.2s-0.7,1.2-1.2,1.7l0,0
	c0,0.1-0.1,0.1-0.2,0.1c-0.1,0-0.1-0.1-0.1-0.1c-0.1-0.5-0.1-0.9-0.1-1.3s0-1.1,0-1.6c0-0.7,0.1-1.3,0.2-2.1c0.5-2.1,1-4,1.5-6v-0.1
	c-0.2-0.7-0.4-1.5-0.2-2.2c0-0.6,0.2-1.2,0.5-1.6c0.2-0.5,0.7-0.9,1.2-1c0.4-0.1,0.9-0.1,1.2,0.1c0.5,0.2,0.7,0.6,0.9,1.1
	c0.1,0.4,0.1,0.9,0,1.2c-0.1,0.7-0.4,1.3-0.6,2.1c-0.2,0.5-0.2,1.1-0.4,1.6c-0.2,1.1,0.5,2.1,1.6,2.2c0.7,0.1,1.5-0.1,2.1-0.6
	c0.5-0.4,0.9-1,1.2-1.6c0.4-0.7,0.6-1.6,0.7-2.4c0.1-0.6,0.2-1.2,0.1-1.8c0-0.9-0.2-1.7-0.7-2.4c-0.6-0.9-1.3-1.5-2.3-1.8
	c-0.7-0.2-1.6-0.4-2.6-0.2c-0.7,0.1-1.6,0.2-2.2,0.6c-1.6,0.7-2.6,2.1-3,3.9c-0.1,0.6-0.2,1.2-0.1,1.8c0.1,0.7,0.2,1.2,0.7,1.7
	c0.2,0.2,0.2,0.5,0.2,0.7c-0.1,0.2-0.2,0.6-0.2,0.9c-0.1,0.2-0.2,0.5-0.6,0.2c-0.7-0.2-1.3-0.9-1.7-1.6c-0.4-0.6-0.6-1.2-0.7-1.9
	c-0.5-3,1.2-5.8,3.4-7.2c1-0.7,2.1-1.1,3.3-1.2c0.7-0.1,1.3-0.2,2.1-0.1c1.7,0,3.4,0.6,4.9,1.6c1.2,1,2.1,2.3,2.4,3.9
	c0.1,0.6,0.2,1.2,0.1,1.8c0,0.7-0.1,1.5-0.2,2.2c-0.2,1.2-0.7,2.3-1.6,3.3c-0.9,1.1-1.9,1.7-3.3,2.1c-0.7,0.2-1.3,0.2-2.1,0.1
	c-0.7-0.1-1.3-0.4-1.8-1C7.5,124.4,7.4,124.3,7.3,124.2z"/>
<g>
	<path fill="#818285" d="M7.9,153.5c-0.9-0.9-1.2-1.8-0.6-2.9H7.2c-0.7,0-1.3,0-1.9-0.2c-1.8-0.6-3-1.8-3.3-3.8
		C1.7,145.2,2.2,144,3,143c1-1.1,2.1-1.6,3.5-1.8c0.2-0.1,0.7-0.1,1-0.1c2.1,0,4.1,0,6.2,0h0.1c0,0,0,0-0.1,0.1
		c-0.4,0.2-0.9,0.6-1.2,1c0,0-0.1,0-0.2,0c-0.6,0-1.2,0-1.8,0c0,0,0,0-0.1,0l0,0c0.7,0.2,1.2,1,1.6,1.6c0.4,1,0.6,1.9,0.2,2.9
		c-0.2,0.9-0.7,1.6-1.3,2.1c-0.2,0.2-0.6,0.5-0.7,0.7c-0.2,0.2-0.2,0.2-0.5,0.5s-0.2,0.7-0.2,1c0,0.1,0.1,0.2,0.1,0.4
		c0.2,0.4,0.5,0.7,0.9,1c0.2,0.2,0.7,0.6,1.1,0.9c0.5,0.4,1,0.9,1.3,1.5c0.2,0.6,0.5,1.2,0.6,1.7c0,0.5,0.1,1,0,1.5
		c-0.2,1-0.7,1.6-1.3,2.3c-0.7,0.7-1.6,1.1-2.6,1.3c-1,0.2-2.1,0.2-3,0.2c-0.9-0.1-1.7-0.2-2.6-0.5c-0.7-0.2-1.5-0.6-2.1-1.1
		c-0.5-0.4-0.9-0.9-1.1-1.5c-0.2-0.7-0.1-1.3,0.2-1.9c0.2-0.7,0.9-1.3,1.6-1.9c0.9-0.7,1.9-1.2,3-1.3c0.7-0.1,1.3-0.1,2.1-0.1
		C7.6,153.5,7.8,153.5,7.9,153.5L7.9,153.5z M7.2,160.9c0.2,0,0.5,0,0.7,0c0.7,0,1.2-0.2,1.8-0.4c0.6-0.2,1.2-0.6,1.6-1.2
		c0.5-0.7,0.6-1.3,0.5-2.1c-0.1-0.6-0.2-1.1-0.7-1.5c-0.1-0.1-0.2-0.2-0.2-0.2c-0.5-0.4-1.1-0.7-1.6-1.1H9.1
		c-1.2-0.2-2.2-0.2-3.4,0.1c-0.7,0.2-1.5,0.7-2.1,1.2c-0.7,0.9-1,2.1-0.4,3c0.2,0.7,0.9,1.2,1.6,1.6C5.5,160.8,6.3,160.9,7.2,160.9z
		 M4.2,145.3c0,0.5,0.1,1,0.2,1.5c0.2,1,0.7,1.8,1.6,2.6c0.5,0.4,1,0.6,1.6,0.7c0.7,0.1,1.5-0.2,1.9-0.9c0.5-0.6,0.7-1.3,0.7-2.1
		c0-1-0.2-1.8-0.7-2.7c-0.4-0.7-1-1.3-1.7-1.7c-0.5-0.2-1.1-0.4-1.6-0.2c-0.7,0.1-1.2,0.5-1.6,1.1C4.4,143.9,4.2,144.6,4.2,145.3z"
		/>
	<path fill="#818285" d="M24.9,145.4c0,0.4,0,0.7,0,1.1c-1.3,0-2.7,0-4.1,0c0,1.3,0,2.8,0,4.1c-0.4,0-0.7,0-1.1,0c0-1.3,0-2.7,0-4.1
		c-1.3,0-2.7,0-4,0c0-0.4,0-0.7,0-1.1c1.3,0,2.7,0,4,0c0-1.3,0-2.8,0-4.1c0.4,0,0.7,0,1.1,0c0,1.3,0,2.7,0,4.1
		C22.1,145.4,23.5,145.4,24.9,145.4z"/>
</g>
<g id="Shape_6_17_">
	<g>
		<path fill="#FFFFFF" d="M6.9,28.3c-3.4,0-6,2.7-6,6s2.7,6,6,6s6-2.7,6-6C13.1,31,10.3,28.3,6.9,28.3z M6.9,40
			c-3.1,0-5.7-2.6-5.7-5.7c0-3.1,2.6-5.7,5.7-5.7s5.7,2.6,5.7,5.7C12.6,37.6,10.1,40,6.9,40z M5.8,31.4l-0.3,0.3l2.7,2.7l-2.7,2.7
			l0.3,0.3l2.7-2.7l0.3-0.3l-0.3-0.3L5.8,31.4z"/>
	</g>
	<g>
		<path fill="none" stroke="#FFFFFF" stroke-width="0.5" stroke-miterlimit="10" d="M6.9,28.3c-3.4,0-6,2.7-6,6s2.7,6,6,6s6-2.7,6-6
			C13.1,31,10.3,28.3,6.9,28.3z M6.9,40c-3.1,0-5.7-2.6-5.7-5.7c0-3.1,2.6-5.7,5.7-5.7s5.7,2.6,5.7,5.7C12.6,37.6,10.1,40,6.9,40z
			 M5.8,31.4l-0.3,0.3l2.7,2.7l-2.7,2.7l0.3,0.3l2.7-2.7l0.3-0.3l-0.3-0.3L5.8,31.4z"/>
	</g>
</g>
<g id="plus_xA0_Masque_2_">
	<g>
		<path fill="#818285" d="M13.1,231.7c-6.9,0-12.4,5.6-12.4,12.4c0,6.9,5.6,12.5,12.4,12.5c6.9,0,12.5-5.6,12.5-12.5
			C25.7,237.3,20.1,231.7,13.1,231.7z M19.3,244.7c0,0.5-0.4,1-1,1h-3.9v3.9c0,0.6-0.4,1-1,1h-1c-0.6,0-1-0.4-1-1v-3.9H7.6
			c-0.5,0-1-0.4-1-1v-1c0-0.5,0.4-1,1-1h3.9v-3.9c0-0.6,0.4-1,1-1h1c0.6,0,1,0.4,1,1v3.9h3.9c0.5,0,1,0.4,1,1V244.7z"/>
	</g>
</g>
<g>
	<g>
		<path fill="#FFFFFF" d="M3.8,277.2c3.6-2.3,7.3-4.6,10.9-6.9c-0.7,0-1.6,0-2.4,0c3.6,2.3,7.3,4.6,10.9,6.9c2.6,1.6,5-2.6,2.4-4.1
			c-3.6-2.3-7.3-4.6-10.9-6.9c-0.7-0.5-1.7-0.5-2.4,0c-3.6,2.3-7.3,4.6-10.9,6.9C-1.4,274.7,1.1,278.9,3.8,277.2L3.8,277.2z"/>
	</g>
</g>
<g>
	<g>
		<path fill="#EC6D24" d="M210.6,296.1c-2.4,1.6-4.7,3-7.2,4.5c0.4,0,0.7,0,1.2,0c-2.4-1.6-4.7-3-7.2-4.5c-1.3-0.9-2.6,1.2-1.2,2.1
			c2.4,1.6,4.7,3,7.2,4.5c0.4,0.2,0.9,0.2,1.2,0c2.4-1.6,4.7-3,7.2-4.5C213.2,297.4,212,295.2,210.6,296.1L210.6,296.1z"/>
	</g>
</g>
<path fill="#46629E" d="M5.7,342.8c-2.8,0-5-2.2-5-5v-20.6c0-2.8,2.2-5,5-5h20.6c2.8,0,5,2.2,5,5v20.6c0,2.8-2.2,5-5,5H5.7z"/>
<path fill="#FFFFFF" d="M17.9,322.7h3.9v-4.9h-3.9c-3.2,0-5.8,2.8-5.8,6.2v2.4H8.1v4.9H12v11.6h4.9v-11.6h4.9v-4.9h-4.9V324
	C16.9,323.3,17.4,322.7,17.9,322.7z"/>
<path fill="#4AC7F4" d="M5.7,383.6c-2.8,0-5-2.2-5-5v-20.6c0-2.8,2.2-5,5-5h20.6c2.8,0,5,2.2,5,5v20.6c0,2.8-2.2,5-5,5H5.7z"/>
<linearGradient id="SVGID_2_" gradientUnits="userSpaceOnUse" x1="-630.2209" y1="631.1296" x2="-577.2512" y2="670.4976" gradientTransform="matrix(0.6028 0 0 0.6028 382.0478 99.3493)">
	<stop  offset="0.3216" style="stop-color:#E8AF21"/>
	<stop  offset="0.6013" style="stop-color:#C6972C"/>
</linearGradient>
<path fill="url(#SVGID_2_)" d="M31.2,500.5c0,2.7-2.1,4.9-4.9,4.9H5.2c-2.7,0-4.9-2.1-4.9-4.9v-21.2c0-2.7,2.1-4.9,4.9-4.9h21.2
	c2.7,0,4.9,2.1,4.9,4.9V500.5z"/>
<polygon fill="#FFFFFF" points="15.8,477.1 19.7,485.2 28.8,486.5 22.2,492.8 23.8,501.7 15.8,497.6 7.6,501.7 9.2,492.8 2.8,486.5 
	11.8,485.2 "/>
<g>
	<path fill="#B42226" d="M26.1,515.2c2.7,0,4.9,2.2,4.9,4.9v20.6c0,2.7-2.2,4.9-4.9,4.9H5.6c-2.7,0-4.9-2.2-4.9-4.9v-20.6
		c0-2.7,2.2-4.9,4.9-4.9H26.1 M26.1,515H5.6c-2.8,0-5.1,2.3-5.1,5.1v20.6c0,2.8,2.3,5.1,5.1,5.1h20.6c2.8,0,5.1-2.3,5.1-5.1v-20.6
		C31.2,517.3,28.9,515,26.1,515L26.1,515z"/>
</g>
<path fill="#C62127" d="M5.6,545.7c-2.8,0-5-2.2-5-5v-20.6c0-2.8,2.2-5,5-5h20.6c2.8,0,5,2.2,5,5v20.6c0,2.8-2.2,5-5,5H5.6z"/>
<path fill="#FFFFFF" d="M16.8,519.3c-6.1,0-9.1,4.4-9.1,8c0,2.2,0.9,4.1,2.6,4.9c0.2,0.1,0.6,0,0.7-0.2c0.1-0.2,0.2-0.7,0.2-1.1
	c0.1-0.2,0.1-0.5-0.2-0.7c-0.5-0.6-0.9-1.5-0.9-2.6c0-3.3,2.4-6.2,6.3-6.2c3.5,0,5.4,2.1,5.4,4.9c0,3.8-1.6,6.8-4,6.8
	c-1.3,0-2.3-1.2-2.1-2.6c0.4-1.6,1.2-3.4,1.2-4.5s-0.6-1.9-1.7-1.9c-1.3,0-2.6,1.5-2.6,3.4c0,1.2,0.4,2.1,0.4,2.1s-1.5,6-1.6,7.1
	c-0.5,2.1-0.1,4.6,0,4.9c0,0.2,0.2,0.2,0.2,0.1c0.1-0.2,1.7-2.2,2.3-4.3c0.2-0.6,0.9-3.5,0.9-3.5c0.5,0.9,1.7,1.6,3.2,1.6
	c4.1,0,6.9-3.8,6.9-8.9C24.8,522.9,21.6,519.3,16.8,519.3z"/>
<g>
	<path fill="#CB2128" d="M13.9,606.8c0.7,0,1.2-0.5,1.3-1.2c0.1-0.7-0.2-1.2-1-1.2s-1.2,0.5-1.3,1.2
		C12.8,606.2,13.2,606.8,13.9,606.8z"/>
	<path fill="#CB2128" d="M56.4,608.6c0,0,1.3,0,1.5,0c0.2,0,0.2-0.1,0.4-0.2c0.1-0.2,0.2-0.7,0.2-0.9s-0.1-0.2-0.2-0.2
		c0,0-0.7,0-1.3,0c0.1-0.4,0.5-1.6,0.5-2.6c0-1.6-1.5-3-3.5-3c-2.3,0-3.8,1.6-3.8,3.6c0,0.7,0.2,1.3,0.5,1.8c-0.1,0-0.2,0-0.4,0
		c-1.7,0-2.8,1-2.8,2.3c0,1.2,1.1,1.8,1.9,2.1c0.9,0.2,1.6,0.4,1.6,1.1c0,0.5-0.4,0.7-1.2,0.7c-1,0-1.6-0.5-1.6-0.7
		c0.1-0.1,0.2-0.2,0.2-0.6s-0.2-0.7-0.9-0.7c-0.5,0-0.9,0.4-1,0.9c-0.7,0.6-1.6,1-2.7,1s-1.7-0.6-1.7-1.8c0.2,0.1,1,0.2,1.3,0.2
		c1.9,0,3.2-0.9,3.2-2.6c0-1-0.7-1.9-2.4-1.9l0,0c-2.1,0-3.3,1.3-3.8,2.8c-0.1,0-0.2-0.1-0.4-0.1c0.1-0.2,0.2-0.7,0.2-1.2
		c0-0.7-0.5-1.6-1.6-1.6c-0.9,0-1.6,0.6-2.2,1.3c0.1-0.6,0.2-0.9,0.2-1c0-0.1,0-0.2-0.2-0.2s-1.2,0-1.2,0c-0.2,0-0.2,0.1-0.4,0.2
		c0,0.1-0.5,1.8-0.9,3.4c-0.2,1-1.6,2.2-3.3,2.2c-1.2,0-1.7-0.6-1.7-1.8c0.2,0.1,1,0.2,1.3,0.2c1.9,0,3.2-0.9,3.2-2.6
		c0-1-0.7-1.9-2.4-1.9l0,0c-2.4,0-3.9,1.8-4,3.9c-0.1,0.9-0.9,2.1-1.6,2.1c-0.4,0-0.6-0.2-0.6-0.7c0-0.4,0.2-1.2,0.5-2.3
		c0.1-0.4,0.2-1,0.4-1.6c0.7,0,1.2,0,1.2,0c0.2,0,0.2-0.1,0.4-0.2c0.1-0.2,0.2-0.7,0.2-0.9c0-0.2-0.1-0.2-0.2-0.2h-1.2
		c0,0,0.6-2.3,0.6-2.4c0.1-0.2-0.1-0.4-0.4-0.2c0,0-1,0.2-1.2,0.2s-0.2,0.1-0.4,0.4l-0.5,2.1c0,0-1,0-1.1,0c-0.2,0-0.2,0.1-0.4,0.2
		c-0.1,0.2-0.2,0.7-0.2,0.9s0.1,0.2,0.2,0.2c0,0,0.5,0,1,0c0,0-0.4,1.3-0.7,2.6c-0.1,0.6-0.6,1.9-1.3,1.9c-0.5,0-0.7-0.2-0.7-0.7
		c0-0.7,0.7-2.6,0.7-3.5c0-1.2-0.6-1.8-1.8-1.8c-0.7,0-1.6,0.5-1.9,1c0,0,0.1-0.4,0.1-0.5c0-0.2,0-0.2-0.2-0.2s-1,0-1.2,0
		s-0.2,0.1-0.4,0.2c0,0.1-0.5,1.8-0.9,3.5c-0.2,1.2-1,2.1-1.7,2.1c-0.4,0-0.6-0.2-0.6-0.7s0.2-1.2,0.5-2.3c0.2-1.3,0.7-2.4,0.7-2.6
		c0-0.2,0-0.2-0.2-0.2s-1,0-1.2,0s-0.2,0.1-0.4,0.2c0,0-0.4,1.3-0.7,2.8c-0.2,1.1-0.6,2.1-0.6,2.6c0,0.9,0.4,1.6,1.6,1.6
		c0.9,0,1.6-0.5,2.1-1c-0.1,0.2-0.1,0.5-0.1,0.5c0,0.2,0,0.2,0.2,0.2c0.2,0,1,0,1.2,0s0.2-0.1,0.4-0.2c0-0.2,1-3.9,1-3.9
		c0.2-1,0.9-1.6,1.7-1.6c0.4,0,0.7,0.2,0.7,0.7c0,0.6-0.7,2.7-0.7,3.5c0,0.7,0.2,1.6,1.6,1.6c0.9,0,1.6-0.4,2.1-1
		c0.2,0.6,0.7,1,1.5,1c1.5,0,2.2-0.9,2.8-1.6c0.4,1,1.3,1.6,2.8,1.6c1.5,0,2.6-0.6,3.4-1.5c-0.1,0.6-0.2,1-0.2,1
		c0,0.2,0,0.2,0.2,0.2c0.2,0,1.2,0,1.2,0c0.2,0,0.2-0.1,0.2-0.2s0.2-0.7,0.5-1.7c0.5-1.9,1.2-3.9,2.4-3.9c0.4,0,0.6,0.2,0.6,0.6
		c0,0.2-0.1,0.2-0.1,0.4c-0.6-0.1-1.1,0.2-1.1,0.7c0,0.4,0.4,0.7,1,0.7c0.4,0,0.7-0.1,1.1-0.2c0.2,0.1,0.6,0.1,0.9,0.2
		c0,0.2-0.1,0.6-0.1,0.9c0,1.6,1.1,2.8,3,2.8c1.6,0,2.6-0.6,3.5-1.2c0.5,0.7,1.6,1.2,3,1.2c1.9,0,3-1.1,3-2.4c0-1.2-1-1.6-2.1-2.1
		c-0.9-0.2-1.6-0.5-1.6-1.1c0-0.5,0.4-0.7,1.1-0.7c0.4,0,0.7,0.1,1,0.1c0.2,0.4,0.5,0.9,1.2,0.9c0.5,0,0.7-0.4,0.7-0.7
		c0-1.1-1.7-1.2-1.7-3.5c0-1.5,0.7-2.6,2.4-2.6c1.2,0,1.9,0.7,1.9,1.9c0,1-0.6,2.7-0.6,2.7h-1c-0.2,0-0.2,0.1-0.4,0.2
		c-0.1,0.2-0.2,0.7-0.2,0.9c0,0.2,0.1,0.2,0.2,0.2h1c0,0-1,3.6-1,4.4c0,0.9,0.5,1.6,1.6,1.6c1.6,0,2.6-1.1,3-2.6
		c0-0.1,0-0.2-0.2-0.2s-0.5,0-0.6,0s-0.2,0.1-0.2,0.2c-0.1,0.6-0.5,1.1-1.2,1.1c-0.4,0-0.6-0.2-0.6-0.7s0.2-1.2,0.5-2.3
		C56.2,609.6,56.4,608.6,56.4,608.6z M43.9,608.5c0.6,0,0.9,0.4,0.9,0.7c0,0.7-0.6,1.2-1.5,1.2c-0.2,0-0.7-0.1-1.1-0.2
		C42.3,609.6,42.9,608.5,43.9,608.5z M30.9,608.5c0.6,0,0.9,0.4,0.9,0.7c0,0.7-0.6,1.2-1.5,1.2c-0.2,0-0.7-0.1-1.1-0.2
		C29.2,609.6,29.7,608.5,30.9,608.5z"/>
	<path fill="#CB2128" d="M6.6,601.6c-3.9,0-6,2.9-6,5.2c0,1.5,0.6,2.7,1.7,3.2c0.2,0.1,0.4,0,0.4-0.2c0-0.2,0.1-0.5,0.2-0.7
		c0.1-0.2,0-0.2-0.1-0.5c-0.4-0.4-0.6-1-0.6-1.6c0-2.1,1.6-4,4.1-4c2.2,0,3.5,1.3,3.5,3.2c0,2.4-1.1,4.4-2.7,4.4
		c-0.9,0-1.6-0.7-1.3-1.6c0.2-1.1,0.7-2.2,0.7-3c0-0.7-0.4-1.2-1.2-1.2s-1.6,1-1.6,2.2c0,0.7,0.2,1.3,0.2,1.3s-1,3.9-1.1,4.6
		c-0.2,1.3-0.1,3,0,3.2c0,0.1,0.1,0.1,0.2,0c0.1-0.1,1.2-1.5,1.6-2.8c0.1-0.4,0.6-2.3,0.6-2.3c0.2,0.6,1.2,1.1,2.1,1.1
		c2.7,0,4.5-2.6,4.5-5.8C11.9,603.9,9.8,601.6,6.6,601.6z"/>
</g>
<linearGradient id="SVGID_3_" gradientUnits="userSpaceOnUse" x1="-609.2315" y1="885.9097" x2="-609.2315" y2="922.2307" gradientTransform="matrix(0.6028 0 0 0.6028 382.0478 99.3493)">
	<stop  offset="0" style="stop-color:#71B2E1"/>
	<stop  offset="1" style="stop-color:#3582C4"/>
</linearGradient>
<rect x="12.9" y="633.4" fill="url(#SVGID_3_)" width="3.9" height="21.9"/>
<linearGradient id="SVGID_4_" gradientUnits="userSpaceOnUse" x1="-615.4868" y1="885.9097" x2="-615.4868" y2="922.2307" gradientTransform="matrix(0.6028 0 0 0.6028 382.0478 99.3493)">
	<stop  offset="0" style="stop-color:#8FCFAA"/>
	<stop  offset="1" style="stop-color:#5AAB7B"/>
</linearGradient>
<rect x="9.1" y="633.4" fill="url(#SVGID_4_)" width="3.9" height="21.9"/>
<linearGradient id="SVGID_5_" gradientUnits="userSpaceOnUse" x1="-621.9438" y1="885.9097" x2="-621.9438" y2="922.2307" gradientTransform="matrix(0.6028 0 0 0.6028 382.0478 99.3493)">
	<stop  offset="0" style="stop-color:#FDDD54"/>
	<stop  offset="1" style="stop-color:#CFA82C"/>
</linearGradient>
<rect x="5.2" y="633.4" fill="url(#SVGID_5_)" width="3.9" height="21.9"/>
<linearGradient id="SVGID_6_" gradientUnits="userSpaceOnUse" x1="-628.4009" y1="885.9097" x2="-628.4009" y2="922.2307" gradientTransform="matrix(0.6028 0 0 0.6028 382.0478 99.3493)">
	<stop  offset="0" style="stop-color:#EF3B61"/>
	<stop  offset="1" style="stop-color:#D21F32"/>
</linearGradient>
<rect x="1.3" y="633.4" fill="url(#SVGID_6_)" width="3.9" height="21.9"/>
<g>
	<g>
		<path opacity="0.3" fill="#040303" enable-background="new    " d="M4.9,670.1H3.6l-0.9,3.3l-0.9-3.3H0.7c0.2,0.7,0.6,1.6,0.7,2.3
			c0.4,1.2,0.7,2.1,0.7,2.6v3.4h1.2V675L4.9,670.1z M8.1,676.4v-2.1c0-0.7-0.1-1.2-0.4-1.5c-0.2-0.4-0.7-0.7-1.2-0.7
			c-0.6,0-1,0.2-1.2,0.7c-0.2,0.2-0.4,0.7-0.4,1.5v2.1c0,0.7,0.1,1.2,0.4,1.5c0.2,0.4,0.7,0.7,1.2,0.7c0.6,0,1-0.2,1.2-0.7
			C8,677.4,8.1,677,8.1,676.4z M7,676.6c0,0.6-0.2,0.9-0.6,0.9c-0.4,0-0.6-0.2-0.6-0.9V674c0-0.6,0.2-0.9,0.6-0.9
			c0.4,0,0.6,0.2,0.6,0.9V676.6z M12.3,678.3v-6.2h-1.2v4.7c-0.2,0.4-0.5,0.5-0.7,0.5c-0.2,0-0.2-0.1-0.2-0.2c0,0,0-0.2,0-0.4v-4.6
			h-1v4.9c0,0.4,0,0.7,0.1,0.9c0.1,0.2,0.4,0.5,0.7,0.5c0.4,0,0.9-0.2,1.2-0.7v0.7L12.3,678.3L12.3,678.3z"/>
		<path opacity="0.3" fill="#040303" enable-background="new    " d="M31.4,674.5c0,1.5,0,2.9-0.2,4.4c-0.2,1-1.1,1.6-1.9,1.8
			c-2.2,0.2-4.5,0.2-6.8,0.2s-4.5,0-6.8-0.2c-1-0.1-1.7-0.9-1.9-1.8c-0.2-1.3-0.2-2.9-0.2-4.4l0,0c0-1.5,0-2.9,0.2-4.4
			c0.2-1,1.1-1.6,1.9-1.8c2.2-0.2,4.5-0.2,6.8-0.2s4.5,0,6.8,0.2c1,0.1,1.7,0.9,1.9,1.8C31.4,671.6,31.4,673.1,31.4,674.5
			L31.4,674.5z"/>
	</g>
	
		<linearGradient id="SVGID_7_" gradientUnits="userSpaceOnUse" x1="542.1413" y1="903.0178" x2="542.1413" y2="881.986" gradientTransform="matrix(-0.6028 0 0 0.6028 349.1492 136.313)">
		<stop  offset="0" style="stop-color:#6D1015"/>
		<stop  offset="0.6179" style="stop-color:#AC2625"/>
		<stop  offset="1" style="stop-color:#CD352D"/>
	</linearGradient>
	<path fill="url(#SVGID_7_)" d="M31.4,674.3c0,1.5,0,2.9-0.2,4.4c-0.2,1-1.1,1.6-1.9,1.8c-2.2,0.2-4.5,0.2-6.8,0.2s-4.5,0-6.8-0.2
		c-1-0.1-1.7-0.9-1.9-1.8c-0.2-1.3-0.2-2.9-0.2-4.4l0,0c0-1.5,0-2.9,0.2-4.4c0.2-1,1.1-1.6,1.9-1.8c2.2-0.2,4.5-0.2,6.8-0.2
		s4.5,0,6.8,0.2c1,0.1,1.7,0.9,1.9,1.8C31.4,671.4,31.4,672.8,31.4,674.3L31.4,674.3z"/>
	<path opacity="0.3" fill="#040303" enable-background="new    " d="M18.4,671.4v-1.2h-3.9v1.2h1.2v7.1h1.2v-7.1H18.4z M20.7,678.3
		v-0.7c-0.5,0.5-0.9,0.7-1.2,0.7c-0.4,0-0.6-0.1-0.7-0.5c-0.1-0.2-0.1-0.5-0.1-0.9v-4.9h1.1v4.4c0,0.2,0,0.4,0,0.4
		c0,0.2,0.1,0.2,0.2,0.2s0.5-0.2,0.7-0.5V672h1.2v6.1L20.7,678.3L20.7,678.3z M24.8,676.6c0,0.6-0.2,0.7-0.5,0.7s-0.4-0.1-0.6-0.2
		v-3.6c0.2-0.2,0.4-0.2,0.6-0.2s0.5,0.2,0.5,0.9V676.6z M25.9,676.5V674c0-0.6,0-1-0.1-1.2c-0.2-0.5-0.5-0.7-0.9-0.7
		s-0.7,0.2-1.2,0.7v-2.7h-1.1v8.1h1.1v-0.6c0.4,0.5,0.7,0.7,1.2,0.7s0.7-0.2,0.9-0.7C25.8,677.4,25.9,677.1,25.9,676.5z M28.9,674.5
		h-1.1v-0.6c0-0.6,0.2-0.9,0.6-0.9s0.6,0.2,0.6,0.9L28.9,674.5L28.9,674.5z M30,676.4v-0.2h-1.2c0,0.5,0,0.7,0,0.7
		c-0.1,0.2-0.2,0.5-0.5,0.5c-0.4,0-0.6-0.2-0.6-0.9v-1.1h2.2v-1.2c0-0.7-0.1-1.2-0.4-1.5c-0.2-0.4-0.7-0.6-1.2-0.6
		c-0.6,0-1,0.2-1.3,0.6c-0.2,0.2-0.4,0.7-0.4,1.5v2.1c0,0.7,0.1,1.2,0.4,1.5c0.2,0.4,0.7,0.6,1.3,0.6c0.6,0,1.1-0.2,1.3-0.7
		c0.1-0.2,0.2-0.4,0.2-0.7C30,677,30,676.8,30,676.4z"/>
	
		<linearGradient id="SVGID_8_" gradientUnits="userSpaceOnUse" x1="-596.9227" y1="960.4916" x2="-596.9227" y2="946.8466" gradientTransform="matrix(0.6028 0 0 0.6028 382.0478 99.3493)">
		<stop  offset="0" style="stop-color:#D5D6D3"/>
		<stop  offset="0.1554" style="stop-color:#E3E3E1"/>
		<stop  offset="0.3993" style="stop-color:#F3F3F2"/>
		<stop  offset="0.6668" style="stop-color:#FDFEFF"/>
		<stop  offset="1" style="stop-color:#FFFFFF"/>
	</linearGradient>
	<path fill="url(#SVGID_8_)" d="M18.4,671.2V670h-3.9v1.2h1.2v7.1h1.2v-7.1H18.4z M20.7,678.2v-0.7c-0.5,0.5-0.9,0.7-1.2,0.7
		c-0.4,0-0.6-0.1-0.7-0.5c-0.1-0.2-0.1-0.5-0.1-0.9V672h1.1v4.4c0,0.2,0,0.4,0,0.4c0,0.2,0.1,0.2,0.2,0.2s0.5-0.2,0.7-0.5v-4.4h1.2
		v6.1H20.7L20.7,678.2z M24.8,676.5c0,0.6-0.2,0.7-0.5,0.7s-0.4-0.1-0.6-0.2v-3.6c0.2-0.2,0.4-0.2,0.6-0.2s0.5,0.2,0.5,0.9V676.5z
		 M25.9,676.4v-2.4c0-0.6,0-1-0.1-1.2c-0.2-0.5-0.5-0.7-0.9-0.7s-0.7,0.2-1.2,0.7V670h-1.1v8.1h1.1v-0.6c0.4,0.5,0.7,0.7,1.2,0.7
		s0.7-0.2,0.9-0.7C25.8,677.3,25.9,677,25.9,676.4z M28.9,674.5h-1.1v-0.6c0-0.6,0.2-0.9,0.6-0.9s0.6,0.2,0.6,0.9L28.9,674.5
		L28.9,674.5z M30,676.4v-0.2h-1.2c0,0.5,0,0.7,0,0.7c-0.1,0.2-0.2,0.5-0.5,0.5c-0.4,0-0.6-0.2-0.6-0.9v-1.1h2.2v-1.2
		c0-0.7-0.1-1.2-0.4-1.5c-0.2-0.4-0.7-0.6-1.2-0.6c-0.6,0-1,0.2-1.3,0.6c-0.2,0.2-0.4,0.7-0.4,1.5v2.1c0,0.7,0.1,1.2,0.4,1.5
		c0.2,0.4,0.7,0.6,1.3,0.6c0.6,0,1.1-0.2,1.3-0.7c0.1-0.2,0.2-0.4,0.2-0.7C30,676.8,30,676.6,30,676.4z"/>
	
		<linearGradient id="SVGID_9_" gradientUnits="userSpaceOnUse" x1="-623.0536" y1="960.493" x2="-623.0536" y2="946.7056" gradientTransform="matrix(0.6028 0 0 0.6028 382.0478 99.3493)">
		<stop  offset="0" style="stop-color:#3E3D3D"/>
		<stop  offset="3.228784e-002" style="stop-color:#3C3A3A"/>
		<stop  offset="0.276" style="stop-color:#2E2B2C"/>
		<stop  offset="0.5631" style="stop-color:#252223"/>
		<stop  offset="1" style="stop-color:#231F20"/>
	</linearGradient>
	<path fill="url(#SVGID_9_)" d="M4.9,670H3.6l-0.9,3.3L1.9,670H0.7c0.2,0.7,0.6,1.6,0.7,2.3c0.4,1.2,0.7,2.1,0.7,2.6v3.4h1.2v-3.4
		L4.9,670z M8.1,676.2v-2.1c0-0.7-0.1-1.2-0.4-1.5C7.5,672.3,7,672,6.6,672c-0.6,0-1,0.2-1.2,0.7c-0.2,0.2-0.4,0.7-0.4,1.5v2.1
		c0,0.7,0.1,1.2,0.4,1.5c0.2,0.4,0.7,0.7,1.2,0.7c0.6,0,1-0.2,1.2-0.7C8,677.3,8.1,676.8,8.1,676.2z M7,676.4c0,0.6-0.2,0.9-0.6,0.9
		c-0.4,0-0.6-0.2-0.6-0.9v-2.6c0-0.6,0.2-0.9,0.6-0.9c0.4,0,0.6,0.2,0.6,0.9V676.4z M12.3,678.2v-6.1h-1.1v4.7
		c-0.2,0.4-0.5,0.5-0.7,0.5s-0.2-0.1-0.2-0.2c0,0,0-0.2,0-0.4v-4.6H9v4.9c0,0.4,0,0.7,0.1,0.9c0.1,0.2,0.4,0.5,0.7,0.5
		c0.4,0,0.9-0.2,1.2-0.7v0.7L12.3,678.2L12.3,678.2z"/>
</g>
<g>
	
		<linearGradient id="SVGID_10_" gradientUnits="userSpaceOnUse" x1="-630.0971" y1="997.9327" x2="-611.9141" y2="1011.4467" gradientTransform="matrix(0.6028 0 0 0.6028 382.0478 99.3493)">
		<stop  offset="0.3216" style="stop-color:#E8AF21"/>
		<stop  offset="0.6013" style="stop-color:#C6972C"/>
	</linearGradient>
	<polygon fill="url(#SVGID_10_)" points="7.3,696.7 9.5,700.9 14.1,701.7 10.7,704.9 11.4,709.6 7.3,707.4 3.1,709.6 4,704.9 
		0.6,701.7 5.2,700.9 	"/>
	<path fill="#FCEEC4" d="M0.6,701.7l4.6-0.7l2.1-4.3c0,0,1.1,4.9-1.2,5.8S0.6,701.7,0.6,701.7z"/>
</g>
<g>
	<path fill="#888889" d="M33.2,774c0,3.2-2.6,5.8-5.8,5.8H6.2c-3.2,0-5.8-2.6-5.8-5.8v-45.2c0-3.2,2.6-5.8,5.8-5.8h21.2
		c3.2,0,5.8,2.6,5.8,5.8V774z"/>
	<rect x="3.3" y="730.6" fill="#FFFFFF" width="27" height="41.5"/>
	<rect x="11.9" y="727.7" fill="#FFFFFF" width="8.6" height="1.9"/>
	<circle fill="#FFFFFF" cx="16.9" cy="774.7" r="2.4"/>
	<circle fill="#888889" cx="16.9" cy="774.7" r="2.1"/>
	<path fill="#888889" d="M24.9,753.6c-0.5,1-0.7,1.5-1.2,2.3c-0.7,1.2-1.9,2.7-3.3,2.7c-1.2,0-1.6-0.7-3.2-0.7s-2.1,0.7-3.3,0.7
		c-1.3,0-2.4-1.3-3.3-2.6c-2.2-3.4-2.4-7.3-1.1-9.5c1-1.6,2.6-2.4,3.9-2.4c1.5,0,2.4,0.7,3.6,0.7s1.9-0.7,3.5-0.7
		c1.2,0,2.6,0.7,3.6,1.9C21.1,747.7,21.8,752.2,24.9,753.6L24.9,753.6z"/>
	<path fill="#888889" d="M19.4,742.8c0.6-0.7,1.1-1.9,1-3c-1,0.1-2.2,0.7-2.9,1.6c-0.6,0.7-1.2,1.9-1,3
		C17.7,744.3,18.8,743.6,19.4,742.8L19.4,742.8z"/>
</g>
<g>
	<path fill="#888889" d="M34,840.5c0,3.3-3.6,6.7-6.9,6.7H7.2c-3.3,0-6.7-3.4-6.7-6.7v-44.9c0-3.3,4.9-6.2,10.9-6.2h11.7
		c5.6,0,11.1,3,11.1,6.2L34,840.5L34,840.5z"/>
	<path fill="#FFFFFF" d="M31.2,834.6c0,2.9-1.9,4.9-4.9,4.9H7c-2.9,0-3.8-2.1-3.8-4.9V798c0-2.9,3.3-4.7,8.8-4.7h9.4
		c5.1,0,9.9,1.7,9.9,4.7V834.6z"/>
	<circle fill="#FFFFFF" cx="17.9" cy="842.1" r="1.5"/>
	<line fill="none" stroke="#FFFFFF" stroke-width="5.1978" stroke-linecap="round" x1="21.5" y1="807.6" x2="20.7" y2="808.8"/>
	<line fill="none" stroke="#FFFFFF" stroke-width="5.1978" stroke-linecap="round" x1="14.6" y1="807.6" x2="15.3" y2="808.8"/>
	<line fill="none" stroke="#FFFFFF" stroke-width="10.3956" stroke-linecap="round" x1="15.8" y1="824" x2="15.8" y2="826.6"/>
	<line fill="none" stroke="#FFFFFF" stroke-width="10.3956" stroke-linecap="round" x1="20.2" y1="824" x2="20.2" y2="826.6"/>
	<line fill="none" stroke="#FFFFFF" stroke-width="10.3956" stroke-linecap="round" x1="10.4" y1="815" x2="10.4" y2="820"/>
	<line fill="none" stroke="#FFFFFF" stroke-width="10.3956" stroke-linecap="round" x1="25.5" y1="815" x2="25.5" y2="820"/>
	<ellipse fill="#888889" stroke="#FFFFFF" stroke-linecap="round" cx="18" cy="812.9" rx="5.8" ry="4.9"/>
	<path fill="#888889" stroke="#FFFFFF" stroke-linecap="round" d="M23.8,813.4H12v9c0,0.9,0.7,1.6,1.6,1.6h8.5
		c0.9,0,1.6-0.7,1.6-1.6L23.8,813.4L23.8,813.4z"/>
	<g>
		<circle fill="#FFFFFF" cx="15.6" cy="810.9" r="0.6"/>
		<circle fill="#FFFFFF" cx="20.3" cy="810.9" r="0.6"/>
	</g>
	<line fill="none" stroke="#888889" stroke-width="1.0396" stroke-linecap="round" x1="21.5" y1="807.6" x2="19.9" y2="809.9"/>
	<line fill="none" stroke="#888889" stroke-width="1.0396" stroke-linecap="round" x1="14.6" y1="807.6" x2="16" y2="809.9"/>
	<line fill="none" stroke="#888889" stroke-width="3" stroke-linecap="round" x1="15.8" y1="824" x2="15.8" y2="826.6"/>
	<line fill="none" stroke="#888889" stroke-width="3" stroke-linecap="round" x1="20.2" y1="824" x2="20.2" y2="826.6"/>
	<line fill="none" stroke="#888889" stroke-width="3" stroke-linecap="round" x1="10.4" y1="815" x2="10.4" y2="820"/>
	<line fill="none" stroke="#888889" stroke-width="3" stroke-linecap="round" x1="25.5" y1="815" x2="25.5" y2="820"/>
</g>
<path fill="#888889" d="M32.2,913c0,1.5-1.2,2.6-2.6,2.6H3c-1.5,0-2.6-1.2-2.6-2.6v-53.6c0-1.5,1.2-2.6,2.6-2.6h26.6
	c1.5,0,2.6,1.2,2.6,2.6V913z"/>
<rect x="2.3" y="862.6" fill="#FFFFFF" width="28" height="42.3"/>
<g>
	<g>
		<path fill="#888889" d="M119.8,1008.4c0,3-2.4,5.4-5.4,5.4H57.9c-3,0-5.4-2.4-5.4-5.4v-77.8c0-3,2.4-5.4,5.4-5.4h56.7
			c3,0,5.4,2.4,5.4,5.4L119.8,1008.4L119.8,1008.4z"/>
		<path fill="#FFFFFF" d="M115,1002.8c0,1.3-1.1,2.4-2.4,2.4H60.6c-1.3,0-2.4-1.1-2.4-2.4v-70.4c0-1.3,1.1-2.4,2.4-2.4h52.1
			c1.3,0,2.4,1.1,2.4,2.4V1002.8z"/>
		<circle fill="#FFFFFF" cx="85.5" cy="1008.4" r="1.9"/>
		<line fill="none" stroke="#FFFFFF" stroke-width="5.1978" stroke-linecap="round" x1="90.2" y1="958.8" x2="89.4" y2="959.9"/>
		<line fill="none" stroke="#FFFFFF" stroke-width="5.1978" stroke-linecap="round" x1="83.2" y1="958.8" x2="83.9" y2="959.9"/>
		<line fill="none" stroke="#FFFFFF" stroke-width="10.3956" stroke-linecap="round" x1="84.4" y1="975.4" x2="84.4" y2="978"/>
		<line fill="none" stroke="#FFFFFF" stroke-width="10.3956" stroke-linecap="round" x1="88.9" y1="975.4" x2="88.9" y2="978"/>
		<line fill="none" stroke="#FFFFFF" stroke-width="10.3956" stroke-linecap="round" x1="79" y1="966.2" x2="79" y2="971.3"/>
		<line fill="none" stroke="#FFFFFF" stroke-width="10.3956" stroke-linecap="round" x1="94.2" y1="966.2" x2="94.2" y2="971.3"/>
		<ellipse fill="#888889" stroke="#FFFFFF" stroke-linecap="round" cx="86.7" cy="964.2" rx="6" ry="5"/>
		<path fill="#888889" stroke="#FFFFFF" stroke-linecap="round" d="M92.7,964.6h-12v9.2c0,1,0.7,1.6,1.6,1.6h8.6
			c1,0,1.6-0.7,1.6-1.6L92.7,964.6L92.7,964.6z"/>
		<g>
			<circle fill="#FFFFFF" cx="84.3" cy="962.1" r="0.6"/>
			<circle fill="#FFFFFF" cx="89.1" cy="962.1" r="0.6"/>
		</g>
		<line fill="none" stroke="#888889" stroke-width="1.0396" stroke-linecap="round" x1="90.2" y1="958.8" x2="88.7" y2="961.1"/>
		<line fill="none" stroke="#888889" stroke-width="1.0396" stroke-linecap="round" x1="83.2" y1="958.8" x2="84.8" y2="961.1"/>
		<line fill="none" stroke="#888889" stroke-width="3" stroke-linecap="round" x1="84.4" y1="975.4" x2="84.4" y2="978"/>
		<line fill="none" stroke="#888889" stroke-width="3" stroke-linecap="round" x1="88.9" y1="975.4" x2="88.9" y2="978"/>
		<line fill="none" stroke="#888889" stroke-width="3" stroke-linecap="round" x1="79" y1="966.2" x2="79" y2="971.3"/>
		<line fill="none" stroke="#888889" stroke-width="3" stroke-linecap="round" x1="94.2" y1="966.2" x2="94.2" y2="971.3"/>
	</g>
	<path fill="#888889" d="M87.1,1019.3c0,2.3-1.8,4.1-4.1,4.1H4.6c-2.3,0-4.1-1.8-4.1-4.1v-58.1c0-2.3,1.8-4.1,4.1-4.1h78.3
		c2.3,0,4.1,1.8,4.1,4.1V1019.3z"/>
	<rect x="9.1" y="962.8" fill="#FFFFFF" width="69.3" height="55.8"/>
	<circle fill="#FFFFFF" cx="83.1" cy="990" r="2.6"/>
	<circle fill="#888889" cx="83.1" cy="990" r="2.1"/>
	<path fill="#888889" d="M52.8,992.9c-0.5,1.1-0.7,1.5-1.2,2.3c-0.9,1.2-1.9,2.8-3.4,2.8c-1.2,0-1.6-0.9-3.4-0.7
		c-1.7,0-2.1,0.9-3.4,0.9c-1.5,0-2.6-1.5-3.4-2.7c-2.3-3.5-2.6-7.7-1.2-9.7c1-1.6,2.6-2.4,4-2.4c1.6,0,2.6,0.9,3.8,0.9
		c1.2,0,1.9-0.9,3.8-0.9c1.3,0,2.7,0.7,3.8,1.9C48.9,987.1,49.4,991.7,52.8,992.9L52.8,992.9z"/>
	<path fill="#888889" d="M47.1,981.9c0.7-0.7,1.2-1.9,1-3.2c-1.1,0.1-2.2,0.7-3,1.6c-0.7,0.7-1.2,1.9-1,3
		C45.2,983.3,46.4,982.7,47.1,981.9L47.1,981.9z"/>
</g>
<path fill="#FFFFFF" d="M27,361.8c-0.7,0.4-1.7,0.6-2.6,0.7c1-0.6,1.6-1.5,2.1-2.6c-0.9,0.5-1.8,0.9-2.9,1.1
	c-0.9-0.9-2.1-1.5-3.3-1.5c-2.6,0-4.5,2.1-4.5,4.5c0,0.4,0,0.7,0.1,1.1c-3.8-0.2-7.2-2.1-9.4-4.7c-0.4,0.7-0.6,1.5-0.6,2.3
	c0,1.6,0.7,3,2.1,3.8c-0.7,0-1.5-0.2-2.1-0.6c0,0,0,0,0,0.1c0,2.2,1.6,4,3.6,4.4c-0.4,0.1-0.7,0.2-1.2,0.2c-0.2,0-0.6,0-0.9-0.1
	c0.6,1.8,2.2,3,4.3,3.2c-1.6,1.2-3.5,1.9-5.7,1.9c-0.4,0-0.7,0-1.1-0.1c2.1,1.2,4.4,2.1,6.9,2.1c8.4,0,12.9-6.9,12.9-12.9
	c0-0.2,0-0.4,0-0.6C25.5,363.5,26.3,362.8,27,361.8z"/>
<g>
	
		<linearGradient id="SVGID_11_" gradientUnits="userSpaceOnUse" x1="-607.2137" y1="555.714" x2="-607.2137" y2="605.5546" gradientTransform="matrix(0.6028 0 0 0.6028 382.0478 99.3493)">
		<stop  offset="0" style="stop-color:#FFFFFF"/>
		<stop  offset="1" style="stop-color:#DBDADA"/>
	</linearGradient>
	<path fill="url(#SVGID_11_)" d="M31.1,461.3c0,1.6-1.3,3-3,3H3.9c-1.6,0-3-1.3-3-3v-24c0-1.6,1.3-3,3-3h24.3c1.6,0,3,1.3,3,3
		L31.1,461.3z"/>
	<path fill="none" stroke="#DCD6D2" stroke-width="0.25" stroke-miterlimit="10" d="M31.1,461.3c0,1.6-1.3,3-3,3H3.9
		c-1.6,0-3-1.3-3-3v-24c0-1.6,1.3-3,3-3h24.3c1.6,0,3,1.3,3,3L31.1,461.3z"/>
</g>
<g>
	<path opacity="0.3" fill="#040303" enable-background="new    " d="M13.7,436.3h-1.5l-1,3.9l-1-3.9H8.9c0.2,0.9,0.6,1.8,0.9,2.7
		c0.5,1.5,0.9,2.4,0.9,3.2v3.9H12v-3.8L13.7,436.3z M17.7,443.8v-2.6c0-0.9-0.1-1.3-0.4-1.7c-0.4-0.5-0.9-0.7-1.5-0.7
		c-0.7,0-1.2,0.2-1.5,0.7c-0.2,0.4-0.4,0.9-0.4,1.7v2.6c0,0.9,0.1,1.3,0.4,1.7c0.4,0.5,0.9,0.7,1.5,0.7c0.7,0,1.2-0.2,1.5-0.7
		C17.5,445.1,17.7,444.5,17.7,443.8z M16.4,444c0,0.7-0.2,1-0.6,1c-0.4,0-0.6-0.2-0.6-1v-3c0-0.7,0.2-1,0.6-1c0.4,0,0.6,0.2,0.6,1
		V444z M22.6,446.1v-7.3h-1.3v5.6c-0.2,0.4-0.6,0.6-0.9,0.6s-0.2-0.1-0.2-0.2c0,0,0-0.2,0-0.5v-5.4h-1.3v5.7c0,0.5,0,0.9,0.1,1.1
		c0.1,0.4,0.4,0.5,0.9,0.5c0.5,0,1-0.2,1.5-0.9v0.9L22.6,446.1L22.6,446.1z"/>
	
		<linearGradient id="SVGID_12_" gradientUnits="userSpaceOnUse" x1="-607.7181" y1="575.2073" x2="-607.7181" y2="558.7639" gradientTransform="matrix(0.6028 0 0 0.6028 382.0478 99.3493)">
		<stop  offset="0" style="stop-color:#3E3D3D"/>
		<stop  offset="3.228784e-002" style="stop-color:#3C3A3A"/>
		<stop  offset="0.276" style="stop-color:#2E2B2C"/>
		<stop  offset="0.5631" style="stop-color:#252223"/>
		<stop  offset="1" style="stop-color:#231F20"/>
	</linearGradient>
	<path fill="url(#SVGID_12_)" d="M13.7,436.1h-1.5l-1,3.9l-1-3.9H8.9c0.2,0.9,0.6,1.8,0.9,2.7c0.5,1.5,0.9,2.4,0.9,3.2v3.9H12V442
		L13.7,436.1z M17.7,443.6V441c0-0.9-0.1-1.3-0.4-1.7c-0.4-0.5-0.9-0.7-1.5-0.7c-0.7,0-1.2,0.2-1.5,0.7c-0.2,0.4-0.4,0.9-0.4,1.7
		v2.6c0,0.9,0.1,1.3,0.4,1.7c0.4,0.5,0.9,0.7,1.5,0.7c0.7,0,1.2-0.2,1.5-0.7C17.5,444.9,17.7,444.4,17.7,443.6z M16.4,443.9
		c0,0.7-0.2,1-0.6,1c-0.4,0-0.6-0.2-0.6-1v-3c0-0.7,0.2-1,0.6-1c0.4,0,0.6,0.2,0.6,1V443.9z M22.6,446v-7.3h-1.3v5.6
		c-0.2,0.4-0.6,0.6-0.9,0.6s-0.2-0.1-0.2-0.2c0,0,0-0.2,0-0.5v-5.4h-1.3v5.7c0,0.5,0,0.9,0.1,1.1c0.1,0.4,0.4,0.5,0.9,0.5
		c0.5,0,1-0.2,1.5-0.9v0.9L22.6,446L22.6,446z"/>
</g>
<linearGradient id="SVGID_13_" gradientUnits="userSpaceOnUse" x1="552.4323" y1="540.9752" x2="552.4323" y2="515.8934" gradientTransform="matrix(-0.6028 0 0 0.6028 349.1492 136.313)">
	<stop  offset="0" style="stop-color:#6D1015"/>
	<stop  offset="0.6179" style="stop-color:#AC2625"/>
	<stop  offset="1" style="stop-color:#CD352D"/>
</linearGradient>
<path fill="url(#SVGID_13_)" d="M26.9,454.7c0,1.7,0,3.4-0.4,5.1c-0.2,1.1-1.2,2.1-2.3,2.1c-2.7,0.2-5.5,0.2-8,0.2
	c-2.7,0-5.5,0-8-0.2c-1.1-0.1-2.1-1-2.3-2.1c-0.4-1.6-0.4-3.4-0.4-5.1l0,0c0-1.7,0-3.4,0.4-5.1c0.2-1.1,1.2-2.1,2.3-2.1
	c2.7-0.2,5.5-0.2,8-0.2c2.7,0,5.5,0,8,0.2c1.1,0.1,2.1,1,2.3,2.1C26.9,451.3,26.9,453.2,26.9,454.7L26.9,454.7z"/>
<linearGradient id="SVGID_14_" gradientUnits="userSpaceOnUse" x1="-607.2137" y1="597.7101" x2="-607.2137" y2="581.4362" gradientTransform="matrix(0.6028 0 0 0.6028 382.0478 99.3493)">
	<stop  offset="0" style="stop-color:#D5D6D3"/>
	<stop  offset="0.1554" style="stop-color:#E3E3E1"/>
	<stop  offset="0.3993" style="stop-color:#F3F3F2"/>
	<stop  offset="0.6668" style="stop-color:#FDFEFF"/>
	<stop  offset="1" style="stop-color:#FFFFFF"/>
</linearGradient>
<path fill="url(#SVGID_14_)" d="M11.3,451.2v-1.5H6.8v1.5h1.5v8.4h1.5v-8.4H11.3z M14.1,459.6v-0.9c-0.5,0.6-1,0.9-1.5,0.9
	c-0.4,0-0.7-0.2-0.9-0.5c-0.1-0.2-0.1-0.6-0.1-1.1v-5.7H13v5.4c0,0.2,0,0.5,0,0.5c0,0.2,0.1,0.2,0.2,0.2c0.2,0,0.5-0.2,0.9-0.6v-5.6
	h1.3v7.3L14.1,459.6L14.1,459.6z M19,457.4c0,0.6-0.2,1-0.6,1c-0.2,0-0.4-0.1-0.6-0.2v-4.5c0.2-0.2,0.4-0.2,0.6-0.2
	c0.4,0,0.6,0.2,0.6,1V457.4z M20.3,457.3v-2.9c0-0.7,0-1.2-0.1-1.5c-0.2-0.5-0.5-0.9-1-0.9c-0.5,0-0.9,0.2-1.3,0.9v-3.2h-1.3v9.7
	h1.3v-0.7c0.4,0.5,0.9,0.9,1.3,0.9c0.5,0,0.9-0.2,1-0.9C20.2,458.5,20.3,458,20.3,457.3z M23.9,455.1h-1.3v-0.7c0-0.7,0.2-1,0.7-1
	c0.4,0,0.6,0.2,0.6,1V455.1z M25.3,457.2v-0.2h-1.3c0,0.5,0,0.9,0,0.9c-0.1,0.2-0.2,0.5-0.6,0.5s-0.7-0.2-0.7-1V456h2.7v-1.5
	c0-0.9-0.1-1.3-0.4-1.7c-0.4-0.5-0.9-0.7-1.5-0.7c-0.7,0-1.2,0.2-1.6,0.7c-0.2,0.4-0.4,0.9-0.4,1.7v2.6c0,0.9,0.1,1.3,0.4,1.7
	c0.4,0.5,0.9,0.7,1.6,0.7c0.7,0,1.2-0.2,1.6-0.9c0.2-0.2,0.2-0.5,0.2-0.9C25.3,457.9,25.3,457.7,25.3,457.2z"/>
<g>
	
		<linearGradient id="SVGID_15_" gradientUnits="userSpaceOnUse" x1="-607.0119" y1="807.9434" x2="-607.0119" y2="756.5667" gradientTransform="matrix(0.6028 0 0 0.6028 382.0478 99.3493)">
		<stop  offset="0" style="stop-color:#A52A22"/>
		<stop  offset="1" style="stop-color:#DB4B38"/>
	</linearGradient>
	<path fill="url(#SVGID_15_)" d="M31.7,582.5c0,2.1-1.7,3.9-3.9,3.9H4.5c-2.1,0-3.9-1.7-3.9-3.9v-23.4c0-2.1,1.7-3.9,3.9-3.9h23.4
		c2.1,0,3.9,1.7,3.9,3.9V582.5z"/>
	<defs>
		<filter id="Adobe_OpacityMaskFilter" filterUnits="userSpaceOnUse" x="-5" y="556.8" width="37.9" height="37.7">
			<feColorMatrix  type="matrix" values="1 0 0 0 0  0 1 0 0 0  0 0 1 0 0  0 0 0 1 0"/>
		</filter>
	</defs>
	<mask maskUnits="userSpaceOnUse" x="-5" y="556.8" width="37.9" height="37.7" id="SVGID_1_">
		<g filter="url(#Adobe_OpacityMaskFilter)">
			<path fill="#F5F6F6" d="M31.7,582.5c0,2.1-1.7,3.9-3.9,3.9H4.5c-2.1,0-3.9-1.7-3.9-3.9v-23.4c0-2.1,1.7-3.9,3.9-3.9h23.4
				c2.1,0,3.9,1.7,3.9,3.9V582.5z"/>
		</g>
	</mask>
	<g mask="url(#SVGID_1_)">
		<g>
			<polygon fill="#FFFFFF" points="24.1,570.8 24.1,566 19.2,566 19.2,562.6 24.1,562.6 24.1,557.8 27.5,557.8 27.5,562.6 
				32.2,562.6 32.2,566 27.5,566 27.5,570.8 			"/>
			<path fill="#A52A22" d="M27,558.3v4.9h4.9v2.4H27v4.9h-2.4v-4.9h-4.9v-2.4h4.9v-4.9H27 M28,557.3h-1h-2.4h-1v1v3.9h-3.9h-0.9v1
				v2.4v1h1h3.9v3.9v1h1h2.4h1v-1v-3.9H32h1v-1v-2.4v-1h-1h-3.9v-3.9v-1H28z"/>
		</g>
		<g>
			
				<linearGradient id="SVGID_16_" gradientUnits="userSpaceOnUse" x1="-620.9349" y1="760.5972" x2="-620.9349" y2="820.9285" gradientTransform="matrix(0.6028 0 0 0.6028 382.0478 99.3493)">
				<stop  offset="0" style="stop-color:#FFFFFF"/>
				<stop  offset="1" style="stop-color:#F8DAD5"/>
			</linearGradient>
			<path fill="url(#SVGID_16_)" d="M7.4,593.9c-6.8,0-11.8-2.9-11.8-6.9c0-4.3,4.4-8.8,10.8-8.8c0.2,0,0.6,0,0.7,0
				c-0.5-0.6-0.9-1.2-0.9-2.3c0-0.5,0.1-1,0.2-1.6c-0.1,0-0.2,0-0.2,0c-4.9,0-8.4-3.5-8.4-8.4c0-4.6,4.9-8.8,10.3-8.8h11.7l-3.3,3.5
				h-1.5c1.3,1.2,2.1,3.3,2.1,5.5s-1.2,4.4-3.3,6c-1.7,1.3-1.9,1.8-1.9,2.8c0,0.7,1.9,2.1,2.7,2.7l0.2,0.2c3.4,2.6,4.3,4.1,4.3,7.7
				C19.2,589.6,14.7,593.9,7.4,593.9z M7.8,580.5c-3.9,0-7.2,2.6-7.2,5.4c0,3,3,5.4,6.7,5.4c5,0,7.5-1.7,7.5-5.2
				c0-0.4,0-0.7-0.1-1.1c-0.4-1.3-1.6-2.2-3.5-3.5c-0.2-0.2-0.6-0.4-0.9-0.6C9.6,580.5,8.7,580.5,7.8,580.5L7.8,580.5z M6.7,560
				c-1,0-1.8,0.4-2.6,1.2c-1,1.2-1.3,2.9-1.2,4.9c0.5,3.4,2.8,5.8,5.6,6h0.1c1,0,1.8-0.4,2.4-1.1c0.9-1,1.2-2.6,1-4.4
				C11.5,562.9,9.4,560.1,6.7,560L6.7,560z"/>
			<path fill="#A52A22" d="M18.8,557.8l-2.3,2.6h-2.8c1.9,1.2,3,3.4,3,6c0,2.3-1.2,4.3-3,5.6c-1.7,1.3-2.1,1.9-2.1,3.2
				c0,1,2.1,2.6,3,3.3c3.4,2.6,4,4.1,4,7.3c0,3.9-4.3,7.9-11.3,7.9c-6.1,0-11.3-2.6-11.3-6.4c0-4,4.3-8.3,10.5-8.3
				c0.7,0,1.2,0,1.9,0c-0.9-0.7-1.6-1.6-1.6-2.7c0-0.7,0.2-1.5,0.6-2.1c-0.2,0-0.7,0-1.1,0c-5,0-7.9-3.5-7.9-7.9s4.4-8.3,9.9-8.3
				C11.1,557.8,18.8,557.8,18.8,557.8 M8.6,572.4c2.7,0,4.4-2.4,3.9-6.1c-0.5-3.8-2.9-6.7-5.8-6.8l0,0c-2.8,0-4.6,2.8-4.1,6.4
				c0.5,3.8,3.2,6.3,6,6.3C8.6,572.4,8.6,572.4,8.6,572.4 M7.4,591.6c6,0,8-2.6,8-5.7c0-0.4,0-0.7-0.1-1.2c-0.5-1.8-2.3-2.8-4.6-4.4
				C9.8,580,9,579.9,8,579.8H7.9c-4.1,0-7.7,2.7-7.7,5.8C0.1,588.9,3.1,591.6,7.4,591.6 M21.1,556.8h-2.3H8.3
				c-5.7,0-10.8,4.4-10.8,9.2c0,5.1,3.5,8.8,8.5,8.9c-0.1,0.4-0.1,0.7-0.1,1.1c0,0.7,0.2,1.2,0.5,1.8C-0.4,578-5,582.7-5,587.1
				s5.1,7.4,12.3,7.4c7.7,0,12.3-4.5,12.3-8.9c0-3.6-1-5.5-4.4-8.1l-0.2-0.2c-1.6-1.2-2.4-1.9-2.6-2.3c0-0.7,0-1,1.7-2.3
				c2.3-1.7,3.5-3.9,3.5-6.3c0-1.9-0.6-3.6-1.5-5h0.2h0.4L17,561l2.3-2.6L21.1,556.8L21.1,556.8z M8.6,571.4L8.6,571.4
				c-2.6-0.1-4.9-2.6-5.2-5.6c-0.2-1.8,0.1-3.4,1.1-4.4c0.6-0.7,1.3-1,2.1-1h0.1c2.3,0.1,4.4,2.7,4.9,6.1c0.2,1.7-0.1,3.2-0.7,4
				C10.2,571.1,9.5,571.4,8.6,571.4L8.6,571.4z M7.4,590.6c-3.5,0-6.2-2.1-6.2-4.9c0-2.6,3.2-4.9,6.7-4.9H8c0.7,0,1.6,0.1,2.3,0.4
				c0.2,0.2,0.6,0.4,0.9,0.6c1.7,1.2,3,2.1,3.3,3.2c0.1,0.2,0.1,0.6,0.1,0.9C14.5,589.1,12,590.6,7.4,590.6L7.4,590.6z"/>
		</g>
	</g>
</g>
<g>
	<g>
		<g>
			<defs>
				<rect id="SVGID_17_" x="0.6" y="393.3" width="30.8" height="30.8"/>
			</defs>
			<clipPath id="SVGID_18_">
				<use xlink:href="#SVGID_17_"  overflow="visible"/>
			</clipPath>
			
				<linearGradient id="SVGID_19_" gradientUnits="userSpaceOnUse" x1="-607.3146" y1="487.6464" x2="-607.3146" y2="538.6976" gradientTransform="matrix(0.6028 0 0 0.6028 382.0478 99.3493)">
				<stop  offset="0" style="stop-color:#517DA2"/>
				<stop  offset="1" style="stop-color:#326088"/>
			</linearGradient>
			<path clip-path="url(#SVGID_18_)" fill="url(#SVGID_19_)" d="M27.8,406.3h-2.7c0.2,0.7,0.2,1.6,0.2,2.4c0,5.2-4.3,9.5-9.5,9.5
				s-9.5-4.3-9.5-9.5c0-0.7,0.1-1.6,0.2-2.4H4v13c0,0.7,0.6,1.2,1.2,1.2h21.3c0.7,0,1.2-0.6,1.2-1.2L27.8,406.3L27.8,406.3z
				 M27.8,397.9c0-0.7-0.6-1.2-1.2-1.2h-3.5c-0.7,0-1.2,0.6-1.2,1.2v3.5c0,0.7,0.5,1.2,1.2,1.2h3.5c0.7,0,1.2-0.6,1.2-1.2V397.9
				L27.8,397.9z M16,402.7c-3.3,0-5.8,2.6-5.8,5.8c0,3.3,2.7,5.8,5.8,5.8s5.8-2.7,5.8-5.8S19.2,402.7,16,402.7 M27.8,424H4.1
				c-1.9,0-3.5-1.6-3.5-3.5v-23.7c0-1.9,1.6-3.5,3.5-3.5h23.7c1.9,0,3.5,1.6,3.5,3.5v23.7C31.2,422.5,29.8,424,27.8,424"/>
		</g>
	</g>
</g>
<g>
	<g>
		<path fill="#FFFFFF" d="M11.2,172.3c-5.4,0-9.6,4.4-9.6,9.6c0,5.4,4.4,9.6,9.6,9.6s9.6-4.4,9.6-9.6
			C20.8,176.6,16.5,172.3,11.2,172.3z M11.2,190.9c-4.9,0-9-4-9-9c0-4.9,4-9,9-9s9,4,9,9C20.2,186.8,16.2,190.9,11.2,190.9z
			 M13,177.1l-4.4,4.4l-0.4,0.5l0.5,0.5l4.4,4.4l0.5-0.5l-4.4-4.4l4.4-4.4L13,177.1z"/>
	</g>
	<g>
		<path fill="none" stroke="#FFFFFF" stroke-miterlimit="10" d="M11.2,172.3c-5.4,0-9.6,4.4-9.6,9.6c0,5.4,4.4,9.6,9.6,9.6
			s9.6-4.4,9.6-9.6C20.8,176.6,16.5,172.3,11.2,172.3z M11.2,190.9c-4.9,0-9-4-9-9c0-4.9,4-9,9-9s9,4,9,9
			C20.2,186.8,16.2,190.9,11.2,190.9z M13,177.1l-4.4,4.4l-0.4,0.5l0.5,0.5l4.4,4.4l0.5-0.5l-4.4-4.4l4.4-4.4L13,177.1z"/>
	</g>
</g>
<g>
	<path fill="#FFFFFF" d="M11.2,201.6c-5.4,0-9.6,4.4-9.6,9.6s4.4,9.6,9.6,9.6s9.6-4.4,9.6-9.6C20.8,205.9,16.5,201.6,11.2,201.6z
		 M11.2,220.2c-4.9,0-9-4-9-9c0-4.9,4-9,9-9s9,4,9,9C20.2,216.2,16,220.2,11.2,220.2z M9.4,206.5L8.9,207l4.4,4.4l-4.4,4.4l0.5,0.5
		l4.4-4.4l0.5-0.5l-0.5-0.5L9.4,206.5z"/>
	<path fill="none" stroke="#FFFFFF" stroke-miterlimit="10" d="M11.2,201.6c-5.4,0-9.6,4.4-9.6,9.6s4.4,9.6,9.6,9.6s9.6-4.4,9.6-9.6
		C20.8,205.9,16.5,201.6,11.2,201.6z"/>
	<path fill="none" stroke="#FFFFFF" stroke-miterlimit="10" d="M11.2,220.2c-4.9,0-9-4-9-9c0-4.9,4-9,9-9s9,4,9,9
		C20.2,216.2,16,220.2,11.2,220.2z"/>
	<polygon fill="none" stroke="#FFFFFF" stroke-miterlimit="10" points="9.4,206.5 8.9,207 13.2,211.4 8.9,215.6 9.4,216.1 
		13.7,211.9 14.2,211.4 13.7,210.9 	"/>
</g>
<g>
	<path fill="#EC6D24" d="M28,1037.7c0,1.1-1,2.1-2.1,2.1H2.1c-1.1,0-2.1-1-2.1-2.1l0,0c0-1.1,1-2.1,2.1-2.1h23.8
		C27,1035.6,28,1036.6,28,1037.7L28,1037.7z"/>
	<path fill="#EC6D24" d="M28,1045.4c0,1.1-1,2.1-2.1,2.1H2.1c-1.1,0-2.1-1-2.1-2.1l0,0c0-1.1,1-2.1,2.1-2.1h23.8
		C27,1043.3,28,1044.3,28,1045.4L28,1045.4z"/>
	<path fill="#EC6D24" d="M28,1053c0,1.1-1,2.1-2.1,2.1H2.1c-1.1,0-2.1-1-2.1-2.1l0,0c0-1.1,1-2.1,2.1-2.1h23.8
		C27,1051,28,1051.9,28,1053L28,1053z"/>
</g>
<polygon fill="#818285" points="1.2,1067 9.1,1074.9 16.9,1067 17.7,1067.9 10,1075.8 9.1,1076.6 8.3,1075.8 0.5,1067.9 "/>
<path fill="#888889" d="M17.4,878.5c0,0-1.8-1.2-3.2-1.2s-3.2,0.9-3.2,0.9L9.5,884c0,0,1.9-0.7,3.3-0.7s3,1,3,1L17.4,878.5z"/>
<path fill="#888889" d="M15.6,884.9c0,0-1.6-0.9-2.9-0.9c-1.3,0-3.4,0.9-3.4,0.9l-1.5,5.6c0,0,1.3-0.5,2.7-0.5s3.5,0.7,3.5,0.7
	L15.6,884.9z"/>
<path fill="#888889" d="M24.8,879.5c0,0-1.7,0.5-3,0.5c-1.3,0-3.6-1-3.6-1l-1.6,5.6c0,0,2.1,1.1,3.3,1.1c1.2,0,3.4-0.9,3.4-0.9
	L24.8,879.5z"/>
<path fill="#888889" d="M23,885.8c0,0-1.8,0.6-3.2,0.6c-1.3,0-3.4-1.1-3.4-1.1l-1.6,5.7c0,0,1.8,1.1,3,1.2c1.6,0,3.4-0.7,3.4-0.7
	L23,885.8z"/>
<path fill="#FFFFFF" d="M16.4,908.1c0,0-0.6-0.5-1.1-0.5c-0.5,0-1.1,0.4-1.1,0.4l-0.6,2.1c0,0,0.7-0.2,1.2-0.2
	c0.5,0,1.1,0.4,1.1,0.4L16.4,908.1z"/>
<path fill="#FFFFFF" d="M15.8,910.4c0,0-0.6-0.4-1-0.4c-0.4,0-1.2,0.2-1.2,0.2l-0.5,1.9c0,0,0.5-0.1,1-0.1c0.5,0,1.2,0.2,1.2,0.2
	L15.8,910.4z"/>
<path fill="#FFFFFF" d="M19.1,908.4c0,0-0.6,0.1-1.1,0.1s-1.3-0.4-1.3-0.4l-0.6,2.1c0,0,0.7,0.4,1.2,0.4s1.2-0.4,1.2-0.4L19.1,908.4
	z"/>
<path fill="#FFFFFF" d="M18.4,910.7c0,0-0.6,0.2-1.1,0.2c-0.5,0-1.2-0.4-1.2-0.4l-0.6,2.1c0,0,0.6,0.4,1.1,0.4
	c0.6,0,1.2-0.2,1.2-0.2L18.4,910.7z"/>
<g id="Shape_29_1_">
	<g>
		<path fill="#EB6D25" d="M9.4,1094.7v-2c0-1.5-1.2-2.7-2.7-2.7s-2.7,1.2-2.7,2.7v2H2.3v7.4h9v-7.4H9.4z M4.4,1092.8
			c0-1.3,1-2.3,2.3-2.3s2.3,1,2.3,2.3v2H4.4V1092.8z M10.9,1101.7H2.7v-6.6h8.3V1101.7z"/>
	</g>
	<g>
		<path fill="none" stroke="#EB6D25" stroke-width="0.5" stroke-miterlimit="10" d="M9.4,1094.7v-2c0-1.5-1.2-2.7-2.7-2.7
			s-2.7,1.2-2.7,2.7v2H2.3v7.4h9v-7.4H9.4z M4.4,1092.8c0-1.3,1-2.3,2.3-2.3s2.3,1,2.3,2.3v2H4.4V1092.8z M10.9,1101.7H2.7v-6.6h8.3
			V1101.7z"/>
	</g>
</g>
<path fill="#EE6E24" d="M1.7,1129.5v-1.2c0,0,0.1-0.8,1-1c0,0,1.4-0.6,2.6-1c0.6-0.3,0.7-0.4,1.3-0.7c0,0,0.1-0.3,0-0.5H7
	c0,0,0.1,0.1,0-0.7c0,0-0.6-0.2-0.6-1.2c0,0-0.4,0.1-0.5-0.6c0-0.5-0.4-0.9,0.1-1.2l-0.3-0.7c0,0-0.6-2.9,1-2.5
	c-0.7-0.8,3.6-1.5,3.9,0.9c0,0,0.2,1.3,0,2.2c0,0,0.7-0.1,0.2,1.1c0,0-0.2,0.9-0.6,0.7c0,0,0.1,1-0.5,1.2v0.6l0.6,0.1
	c0,0-0.1,0.5,0,0.6c0,0,0.7,0.4,1.3,0.6c1.4,0.4,3.1,1,3.1,1.5c0,0,0.2,0.8,0.2,1.6H1.7V1129.5z"/>
<g>
	<g>
		<g>
			<g>
				<path fill="#627B93" d="M8.7,1150.9c-0.1-0.1-0.1-0.2-0.1-0.3s0-0.3,0.2-0.3l0,0c0-0.1,0-0.3,0-0.4c0-0.3,0-0.6,0-0.8
					c0-0.6-0.2-1.1-0.4-1.6c-0.2-0.4-0.4-0.8-0.6-1.1c-0.2-0.2-0.4-0.4-0.6-0.5c-0.2-0.1-0.3-0.1-0.5-0.1H6.7
					c0.1,0.1,0.2,0.2,0.3,0.2c0.2,0.2,0.4,0.4,0.6,0.7c0.3,0.4,0.4,0.9,0.5,1.3c0.1,0.5,0.2,0.9,0.2,1.3c0,0.1,0,0.7,0,0.8
					c-0.1,0-0.2,0-0.3,0c0-0.1,0-0.7,0-0.7c0-0.5-0.1-0.9-0.2-1.3c-0.1-0.5-0.2-0.9-0.5-1.2c-0.2-0.3-0.4-0.5-0.7-0.7
					c-0.1-0.1-0.3-0.2-0.4-0.2c-0.1,0-0.2,0-0.3,0c-0.1,0.1-0.3,0.2-0.4,0.3c-0.2,0.2-0.3,0.5-0.4,0.7c-0.2,0.5-0.3,1-0.4,1.4
					c-0.1,0.3-0.1,0.7-0.2,1c0,0.2-0.1,0.5-0.1,0.7c0,0.1,0,0.1,0,0.2s0,0.2,0,0.3s0,0.1,0,0.2c-0.1,0.1-0.2,0.2-0.4,0.1
					c-0.1-0.1-0.2-0.2-0.1-0.4c0,0,0,0,0-0.1c0.1-0.1,0.1-0.2,0.1-0.3s0-0.3,0.1-0.4c0-0.3,0.1-0.6,0.1-0.9c0.1-0.7,0.2-1.2,0.5-1.8
					c0.1-0.3,0.3-0.7,0.6-1c0.1-0.1,0.1-0.1,0.2-0.2c-0.1,0-0.1,0-0.2,0c-0.2,0.1-0.4,0.2-0.6,0.4c-0.2,0.2-0.4,0.5-0.6,0.8
					c-0.2,0.5-0.4,1-0.5,1.4c-0.1,0.3-0.1,0.6-0.1,0.9v0.6c-0.1,0-0.2,0-0.3,0c0-0.1,0-0.7,0-0.7c0.1-0.5,0.1-0.9,0.3-1.2
					c0.1-0.5,0.3-1,0.6-1.3c0.2-0.3,0.3-0.5,0.6-0.7c0.4-0.3,0.8-0.4,1.2-0.4c0.1,0,0.2,0,0.3,0c0.4-0.1,0.7-0.1,1.1,0.1
					c0.4,0.1,0.6,0.4,0.9,0.7c0.3,0.4,0.6,0.9,0.7,1.3c0.1,0.3,0.1,0.4,0.1,0.5c0.1,0.4,0.2,0.8,0.2,1.2c0,0.4,0,0.7,0,1.1
					c0,0.1,0,0.1,0,0.2c0.2,0.2-0.1,0.2,0,0.5 M9.2,1149.6C9.2,1149.6,9.3,1149.5,9.2,1149.6"/>
			</g>
		</g>
	</g>
	<polyline fill="#627B93" points="10.1,1149.7 10.8,1158.1 3.2,1159.5 2.9,1158.4 1.9,1158.2 1.7,1158.2 1.9,1149.6 	"/>
</g>
<g>
	<path fill="#9E4767" d="M15.2,1175.2c-0.1-0.6-0.8-0.9-1.3-0.9c0,0-0.3,0-0.9,0c-1.8,0-3.7,0.3-4.5,0.9H8H7.6
		c-0.8-0.6-2.8-0.9-4.5-0.9c-0.6,0-0.9,0-0.9,0c-0.6,0-1.2,0.3-1.3,0.9c0,0-0.4,0-0.4,0.3c0,0.3,0,10.2,0,10.6
		c0,0.6,0.6,0.6,0.6,0.6h5.7l0,0c0,0.3,0.6,0.7,1.3,0.7s1.3-0.3,1.3-0.7l0,0h5.7c0,0,0.6,0,0.6-0.6c0-0.3,0-10.2,0-10.6
		C15.5,1175.2,15.2,1175.2,15.2,1175.2z M7.4,1186.2c-0.6-0.4-1.9-1-5.3-1c-0.4,0-0.8-0.3-0.8-0.7c0-0.1,0-8.7,0-8.7
		c0.1-0.4,0.4-0.8,0.8-0.8c0,0,0.3,0,0.9,0c2.9,0,4.5,0.4,4.5,1.3L7.4,1186.2L7.4,1186.2z M14.6,1184.5c-0.1,0.4-0.3,0.7-0.8,0.7
		c-3.5,0-4.7,0.6-5.3,1v-9.8c0-0.8,1.7-1.3,4.5-1.3c0.6,0,0.9,0,0.9,0c0.4,0,0.8,0.3,0.8,0.8C14.6,1175.9,14.6,1184.5,14.6,1184.5z"
		/>
	<path fill="#9E4767" d="M9.4,1178.3c0.8-0.2,2.3-0.3,4.3-0.3v-0.9c-1.5,0-2.9,0.1-4.3,0.4V1178.3z"/>
	<path fill="#9E4767" d="M9.4,1181c0.8-0.2,2.3-0.3,4.3-0.3v-0.9c-1.5,0-2.9,0.1-4.3,0.4V1181z"/>
	<path fill="#9E4767" d="M9.4,1183.7c0.8-0.2,2.3-0.3,4.3-0.3v-0.9c-1.5,0-2.9,0.1-4.3,0.4V1183.7z"/>
	<path fill="#9E4767" d="M2.2,1177.9c2,0,3.5,0.1,4.3,0.3v-0.8c-1.3-0.2-2.8-0.4-4.3-0.4V1177.9z"/>
	<path fill="#9E4767" d="M2.2,1180.6c2,0,3.5,0.1,4.3,0.3v-0.8c-1.3-0.2-2.8-0.4-4.3-0.4V1180.6z"/>
	<path fill="#9E4767" d="M2.2,1183.4c2,0,3.5,0.1,4.3,0.3v-0.8c-1.3-0.2-2.8-0.4-4.3-0.4V1183.4z"/>
</g>
<path fill="#808184" d="M11.8,1207.6c0-0.3,0-0.5-0.1-0.8l1-0.8c-0.3-1-0.8-1.9-1.5-2.6l-1.2,0.5c-0.4-0.3-0.8-0.6-1.3-0.8l-0.2-1.3
	c-0.5-0.1-1-0.2-1.5-0.2s-1,0.1-1.5,0.2l-0.2,1.3c-0.5,0.2-0.9,0.4-1.3,0.8l-1.2-0.5c-0.7,0.7-1.2,1.6-1.5,2.6l1,0.8
	c0,0.2-0.1,0.5-0.1,0.8c0,0.3,0,0.5,0.1,0.8l-1,0.8c0.3,1,0.8,1.9,1.5,2.6l1.2-0.5c0.4,0.3,0.8,0.6,1.3,0.8l0.2,1.3
	c0.5,0.1,1,0.2,1.5,0.2s1-0.1,1.5-0.2l0.2-1.3c0.5-0.2,0.9-0.4,1.3-0.8l1.2,0.5c0.7-0.7,1.2-1.6,1.5-2.6l-1-0.8
	C11.7,1208.1,11.8,1207.8,11.8,1207.6z M7,1210c-1.4,0-2.5-1.1-2.5-2.5s1.1-2.5,2.5-2.5s2.5,1.1,2.5,2.5S8.3,1210,7,1210z"/>
<g>
	<path fill="#EC6D24" d="M60.2,1265v-2c-1.3,1.6-2.8,2.2-4.9,2.2c-0.6,0-1.2-0.1-1.8-0.2c-0.6-0.1-1.1-0.3-1.7-0.6
		c-6.1-3.1-6.1-11.7-2.7-17c0.7-0.9,1.6-1.6,2.7-2.2c0.5-0.3,1.1-0.5,1.7-0.6c0.6-0.1,1.2-0.2,1.8-0.2c2.2,0,3.6,0.6,4.9,2.2
		c0.4-0.9,1.3-1.8,2.7-1.8c1.7,0,2.9,1.3,2.9,3v17.3h-5.6V1265z M52.2,1254.9c-0.1,2.3,1.2,4.5,3.8,4.7c0.6,0,1.2-0.1,1.7-0.4
		c1.5-0.7,2.3-2.5,2.3-4.5s-0.8-3.7-2.3-4.5c-0.5-0.2-1.1-0.4-1.7-0.4C53.2,1250.1,52.1,1252.7,52.2,1254.9L52.2,1254.9z"/>
	<path fill="#EC6D24" d="M68.3,1265v-17.3c0-1.7,1.2-3,2.9-3c1.5,0,2.5,1,2.9,1.8c1-1.1,2.4-2.2,4-2.2c1.5,0,2.9,1.2,2.9,3
		c0,2-1.5,2.5-3.6,3.1c-2.5,0.7-3.3,1.4-3.3,4.3v10.2h-5.8V1265z"/>
	<path fill="#EC6D24" d="M106.1,1265v-12.3c0-1.8-1-3.5-2.9-3.5c-1.9,0-2.9,1.7-2.9,3.5v12.3h-5.8v-12.3c0-1.8-1-3.5-2.9-3.5
		c-1.9,0-2.9,1.7-2.9,3.5v12.3h-5.6v-17.3c0-1.7,1.2-3,2.9-3c1.5,0,2.5,1,2.9,1.8c0.9-1.4,2.9-2.2,4.9-2.2c1.7,0,3.9,0.6,5.3,2.4
		c1.4-1,3.1-2.4,5.6-2.4c4,0,7.1,2.1,7.1,6.8v13.9L106.1,1265L106.1,1265z"/>
	<path fill="#EC6D24" d="M117.2,1236.1c1.9,0,3.4,1.5,3.4,3.4s-1.5,3.4-3.4,3.4c-1.9,0-3.4-1.5-3.4-3.4S115.4,1236.1,117.2,1236.1
		L117.2,1236.1z M114.4,1265v-17.3c0-1.7,1.2-3,2.9-3c1.7,0,2.9,1.3,2.9,3v17.3H114.4z"/>
	<path fill="#EC6D24" d="M155.2,1254.7c0,5.8-3.9,10.5-9.8,10.5c-5.8,0-9.8-4.6-9.8-10.5s3.9-10.5,9.8-10.5
		C151.3,1244.3,155.2,1248.9,155.2,1254.7L155.2,1254.7z M141.4,1254.7c0,2.7,1.4,4.9,3.9,4.9c2.5,0,3.9-2.2,3.9-4.9
		c0-2.7-1.4-4.9-3.9-4.9C142.9,1249.9,141.4,1252.1,141.4,1254.7L141.4,1254.7z"/>
	<path fill="#EC6D24" d="M157.1,1265v-17.3c0-1.7,1.2-3,2.9-3c1.5,0,2.5,1,2.9,1.8c0.9-1.4,2.5-2.2,4.9-2.2c4,0,7.1,2.1,7.1,6.8
		v13.9h-5.7v-12.3c0-2-1.2-3.5-3.2-3.5c-2,0-3.2,1.5-3.2,3.5v12.3L157.1,1265L157.1,1265z"/>
	<path fill="#EC6D24" d="M132.3,1244.9h-1.6v-3.8c0-1.7-1.2-3-2.9-3c-1.7,0-2.9,1.3-2.9,3v3.9c-1.2,0.3-2,1.1-2,2.6s0.8,2.3,2,2.6
		v14.8h5.8v-14.7h1.6c1.8,0,3-0.8,3-2.7C135.4,1245.7,134.1,1244.9,132.3,1244.9z"/>
	<g>
		<path fill="#EC6D24" d="M16.6,1249.1c-1.9,0-2.9,1.7-2.9,3.5v12.3h5.7v-12.3C19.5,1250.8,18.5,1249.1,16.6,1249.1z"/>
		<path fill="#EC6D24" d="M28.2,1249.1c-1.9,0-2.9,1.7-2.9,3.5v12.3h5.8v-12.3C31.1,1250.8,30.1,1249.1,28.2,1249.1z"/>
		<path fill="#EC6D24" d="M43.8,1243.6c-0.9,0.2-1.8,0.4-2.7,0.4c-0.5,0-0.9-0.1-1.4-0.2c-1.4-0.3-2.6-1-3.6-2.1
			c-0.4-0.5-0.8-1-1.1-1.5c-2.4,0.7-5.2,0-6.9-2c-1-1.2-1.6-2.6-1.7-4.1c-1.6,0.9-3.6,0.6-4.8-0.8c-0.1-0.2-0.3-0.3-0.4-0.5
			c-1.4,1.4-3.3,2.3-5.4,2.3c-3,0-5.6-1.8-6.8-4.4c-3.2,0.4-5.9,2.6-7.1,5.4c-0.2,0.5-0.4,1.1-0.5,1.7c-1.3,9.1-1.6,18.1-0.1,27.1h7
			v-17.3c0-1.7,1.2-3,2.9-3c1.5,0,2.5,1,2.9,1.8c0.9-1.4,2.9-2.2,4.9-2.2c1.7,0,3.9,0.6,5.3,2.4c1.4-1,3.1-2.4,5.6-2.4
			c4,0,7.2,2.1,7.2,6.8v13.9h6.8C44.5,1257.7,44.5,1250.7,43.8,1243.6z"/>
	</g>
</g>
<g>
	<path fill="#EC6D24" d="M0,1341c0.4-0.9,0.7-1.7,1.2-2.4c0.4-0.7,0.4-1.3,0-2.1c-1.7-3.9,0.1-8.4,4.1-9.7c3.9-1.5,8.3,0.7,9.5,4.7
		c1.2,4.1-1.3,8.4-5.5,9.1c-1.3,0.2-2.9-0.1-4.4-0.5c-0.9-0.2-1.6-0.4-2.3,0.1c-0.7,0.4-1.6,0.7-2.3,1.1C0.1,1341.2,0,1341.2,0,1341
		z"/>
	<g id="like_xA0_Masque_1_">
		<g>
			<path fill="#FFFFFF" d="M9.4,1331c-1.3,0-1.8,1.2-1.8,1.2s-0.6-1.2-1.8-1.2c-1.3,0-2.2,1.2-2.2,2.3c0,1.9,4,4.4,4,4.4
				s3.9-2.4,3.9-4.4C11.4,1332,10.7,1331,9.4,1331z"/>
		</g>
	</g>
</g>
<path fill="#EC6D24" d="M202.3,1341c0.4-0.9,0.7-1.7,1.2-2.4c0.4-0.7,0.4-1.3,0-2.1c-1.7-3.9,0.1-8.4,4.1-9.7
	c3.9-1.5,8.3,0.7,9.5,4.7c1.2,4.1-1.3,8.4-5.5,9.1c-1.3,0.2-2.9-0.1-4.4-0.5c-0.9-0.2-1.6-0.4-2.3,0.1c-0.7,0.4-1.6,0.7-2.3,1.1
	C202.5,1341.2,202.4,1341,202.3,1341z"/>
<g>
	<path fill="#FFFFFF" d="M212.5,1336.9c-0.4,0.2-0.9,0.5-1.6,0.5c-0.9,0-1.7-0.4-2.2-1c-0.4-0.5-0.7-1.1-0.7-1.8h-0.7v-0.5h0.6v-0.1
		c0-0.1,0-0.4,0-0.5h-0.6v-0.5h0.7c0.1-0.7,0.5-1.3,0.9-1.8c0.6-0.6,1.2-0.9,2.2-0.9c0.6,0,1.1,0.2,1.5,0.4l-0.2,0.7
		c-0.2-0.1-0.7-0.2-1.2-0.2c-0.6,0-1.1,0.2-1.5,0.6c-0.4,0.4-0.5,0.9-0.6,1.3h3v0.5h-3.2c0,0.1,0,0.4,0,0.5s0,0.1,0,0.2h3.2v0.5h-3
		c0.1,0.6,0.2,1.1,0.6,1.5s1,0.6,1.6,0.6c0.6,0,1.1-0.2,1.3-0.4V1336.9z"/>
</g>
<path fill="none" stroke="#EC6D24" stroke-width="0.5" stroke-miterlimit="10" d="M0,1294.3c0,2.4,1.9,4.3,4.3,4.3h37.8l4.4,2.7
	l4.4-2.7h37.1c2.4,0,4.3-1.9,4.3-4.3"/>
<polygon fill="#EC6D24" points="199.5,1067 207.4,1074.9 215.1,1067 216,1067.9 208.2,1075.8 207.4,1076.6 206.5,1075.8 
	198.7,1067.9 "/>
<path fill="#818285" d="M126.1,57.2L126.1,57.2c0-0.7,0-1.3,0-1.9c0-0.1,0-0.1-0.1-0.1c-0.3,0-0.5-0.1-0.9-0.1s-0.7,0-1,0
	c-0.5,0-1.1,0.2-1.5,0.5c-0.5,0.3-0.9,0.9-1,1.5c-0.1,0.3-0.2,0.6-0.2,0.9c0,0.5,0,1.1,0,1.7v0.1c-0.6,0-1.3,0-1.9,0
	c0,0.8,0,1.5,0,2.3c0.6,0,1.3,0,1.9,0c0,1.9,0,3.8,0,5.8l0,0c-2.4,0-4.7,0-7.1,0c-0.5,0-0.9-0.3-0.9-0.9l0,0c0-4.4,0-8.8,0-13.2
	c0-0.3,0.2-0.5,0.4-0.8c0.2-0.1,0.3-0.1,0.3-0.1c0,0,0,0,0.1,0c4.4,0,8.8,0,13.2,0c0.3,0,0.7,0.2,0.9,0.5c0,0.1,0.1,0.2,0.1,0.3
	c0,4.4,0,8.8,0,13.3c0,0.4-0.3,0.9-0.9,0.9c-1.2,0-2.5,0-3.8,0c0,0,0,0-0.1,0c0-1.9,0-3.8,0-5.8h0.1c0.6,0,1.1,0,1.8,0
	c0.1,0,0.1,0,0.1-0.1c0.1-0.5,0.2-1,0.2-1.5c0-0.2,0.1-0.4,0.1-0.7c0,0,0,0,0-0.1c-0.8,0-1.5,0-2.2,0c0,0,0,0,0-0.1c0-0.5,0-1,0-1.6
	c0-0.1,0-0.2,0.1-0.3c0.1-0.3,0.3-0.5,0.6-0.5c0.2,0,0.3-0.1,0.4-0.1C125.3,57.3,125.7,57.3,126.1,57.2L126.1,57.2z"/>
<path fill="#818285" d="M131.2,83.3c-0.2,0.5-0.3,0.8-0.6,1.2c-0.3,0.4-0.6,0.6-0.9,0.9c0.7-0.1,1.4-0.3,2-0.6l0,0
	c0,0.1-0.1,0.1-0.1,0.2c-0.5,0.6-1,1.2-1.6,1.7c-0.1,0.1-0.2,0.1-0.1,0.2c0.1,1.8-0.4,3.5-1.1,5c-0.9,1.7-2,3.1-3.7,4.2
	c-1.2,0.8-2.5,1.2-3.9,1.6c-0.8,0.2-1.6,0.2-2.4,0.2c-1.9-0.1-3.6-0.6-5.1-1.6c0,0-0.1-0.1-0.2-0.1c2,0.2,3.9-0.3,5.4-1.6l0,0
	c-0.1,0-0.2,0-0.2,0c-1.5-0.1-2.7-1-3.2-2.4c0-0.1,0-0.1-0.1-0.2c0.3,0,0.6,0.1,0.8,0.1c0.3,0,0.6-0.1,0.8-0.2c-0.1,0-0.1,0-0.2-0.1
	c-1.5-0.5-2.4-1.4-2.8-2.8c-0.1-0.4-0.1-0.6-0.1-0.8c0,0,0-0.1,0-0.2c0.6,0.3,1,0.5,1.6,0.5c-0.9-0.7-1.6-1.7-1.6-2.9
	c-0.1-0.7,0.2-1.5,0.6-2.1c2,2.4,4.6,3.7,7.7,3.9c0-0.2-0.1-0.5-0.1-0.6c-0.1-1.9,1.2-3.6,3-3.9c1.2-0.2,2.4,0.1,3.3,1
	c0.1,0.1,0.2,0.2,0.3,0.1c0.7-0.2,1.4-0.5,2-0.8C131.1,83.3,131.1,83.3,131.2,83.3z"/>
<path fill="#818285" d="M117.6,123.3c0,0.2-0.1,0.2-0.1,0.4c-0.2,0.6-0.4,1.3-0.5,1.9c-0.2,0.5-0.4,1.1-0.7,1.6
	c-0.3,0.4-0.5,0.9-0.9,1.2l0,0c0,0.1-0.1,0.1-0.2,0.1c-0.1,0-0.1-0.1-0.1-0.1c-0.1-0.4-0.1-0.6-0.1-1c0-0.4,0-0.8,0-1.1
	c0-0.5,0.1-1,0.2-1.5c0.4-1.5,0.7-2.9,1.1-4.3v-0.1c-0.2-0.5-0.3-1.1-0.2-1.6c0-0.4,0.2-0.9,0.4-1.1c0.2-0.4,0.5-0.6,0.9-0.7
	c0.3-0.1,0.6-0.1,0.9,0.1c0.4,0.2,0.5,0.4,0.6,0.8c0.1,0.3,0.1,0.6,0,0.9c-0.1,0.5-0.3,1-0.4,1.5c-0.2,0.4-0.2,0.8-0.3,1.1
	c-0.2,0.8,0.4,1.5,1.1,1.6c0.5,0.1,1.1-0.1,1.5-0.4c0.4-0.3,0.6-0.7,0.9-1.1c0.3-0.5,0.4-1.1,0.5-1.8c0.1-0.4,0.2-0.9,0.1-1.3
	c0-0.6-0.2-1.2-0.5-1.8c-0.4-0.6-1-1.1-1.7-1.3c-0.5-0.2-1.1-0.3-1.8-0.2c-0.5,0.1-1.1,0.2-1.6,0.4c-1.1,0.5-1.8,1.5-2.2,2.8
	c-0.1,0.4-0.2,0.9-0.1,1.3c0.1,0.5,0.2,0.9,0.5,1.2c0.2,0.2,0.2,0.4,0.2,0.5c-0.1,0.2-0.2,0.4-0.2,0.6c-0.1,0.2-0.2,0.4-0.4,0.2
	c-0.5-0.2-1-0.6-1.2-1.1c-0.3-0.4-0.4-0.9-0.5-1.4c-0.4-2.2,0.9-4.2,2.5-5.2c0.7-0.5,1.5-0.8,2.4-0.9c0.5-0.1,1-0.2,1.5-0.1
	c1.2,0,2.5,0.4,3.5,1.1c0.9,0.7,1.5,1.7,1.8,2.8c0.1,0.4,0.2,0.9,0.1,1.3c0,0.5-0.1,1.1-0.2,1.6c-0.2,0.9-0.5,1.7-1.1,2.4
	c-0.6,0.8-1.4,1.2-2.4,1.5c-0.5,0.2-1,0.2-1.5,0.1c-0.5-0.1-1-0.3-1.3-0.7C117.8,123.4,117.7,123.3,117.6,123.3z"/>
<g>
	<path fill="#818285" d="M119.2,152.9c-0.6-0.6-0.9-1.3-0.4-2.1h-0.1c-0.5,0-1,0-1.4-0.2c-1.3-0.4-2.2-1.3-2.4-2.8
		c-0.2-1,0.2-1.9,0.8-2.6c0.7-0.8,1.5-1.2,2.6-1.3c0.2-0.1,0.5-0.1,0.7-0.1c1.5,0,3,0,4.5,0h0.1c0,0,0,0-0.1,0.1
		c-0.3,0.2-0.6,0.4-0.9,0.7c0,0-0.1,0-0.2,0c-0.4,0-0.9,0-1.3,0c0,0,0,0-0.1,0l0,0c0.5,0.2,0.9,0.7,1.2,1.2c0.3,0.7,0.4,1.4,0.2,2.1
		c-0.2,0.6-0.5,1.2-1,1.5c-0.2,0.2-0.4,0.4-0.5,0.5c-0.2,0.2-0.2,0.2-0.4,0.4c-0.2,0.2-0.2,0.5-0.2,0.7c0,0.1,0.1,0.2,0.1,0.3
		c0.2,0.3,0.4,0.5,0.6,0.7c0.2,0.2,0.5,0.4,0.8,0.6c0.4,0.3,0.7,0.6,1,1.1c0.2,0.4,0.4,0.9,0.4,1.2c0,0.4,0.1,0.7,0,1.1
		c-0.2,0.7-0.5,1.2-1,1.7c-0.5,0.5-1.2,0.8-1.9,1c-0.7,0.2-1.5,0.2-2.2,0.2c-0.6-0.1-1.2-0.2-1.9-0.4c-0.5-0.2-1.1-0.4-1.5-0.8
		c-0.4-0.3-0.6-0.6-0.8-1.1c-0.2-0.5-0.1-1,0.2-1.4c0.2-0.5,0.6-1,1.2-1.4c0.6-0.5,1.4-0.9,2.2-1c0.5-0.1,1-0.1,1.5-0.1
		C119,152.9,119.1,152.9,119.2,152.9L119.2,152.9z M118.7,158.3c0.2,0,0.4,0,0.5,0c0.5,0,0.9-0.2,1.3-0.3c0.4-0.2,0.9-0.4,1.2-0.9
		c0.4-0.5,0.4-1,0.4-1.5c-0.1-0.4-0.2-0.8-0.5-1.1c-0.1-0.1-0.2-0.2-0.2-0.2c-0.4-0.3-0.8-0.5-1.2-0.8h-0.1
		c-0.9-0.2-1.6-0.2-2.5,0.1c-0.5,0.2-1.1,0.5-1.5,0.9c-0.5,0.6-0.7,1.5-0.3,2.2c0.2,0.5,0.6,0.9,1.2,1.2
		C117.4,158.2,118.1,158.3,118.7,158.3z M116.5,147c0,0.4,0.1,0.7,0.2,1.1c0.2,0.7,0.5,1.3,1.2,1.9c0.4,0.3,0.7,0.4,1.2,0.5
		c0.5,0.1,1.1-0.2,1.4-0.6c0.4-0.4,0.5-1,0.5-1.5c0-0.7-0.2-1.3-0.5-2c-0.3-0.5-0.7-1-1.2-1.2c-0.4-0.2-0.8-0.3-1.2-0.2
		c-0.5,0.1-0.9,0.4-1.2,0.8C116.6,145.9,116.5,146.4,116.5,147z"/>
	<path fill="#818285" d="M131.6,147c0,0.3,0,0.5,0,0.8c-1,0-2,0-3,0c0,1,0,2,0,3c-0.3,0-0.5,0-0.8,0c0-1,0-2,0-3c-1,0-2,0-2.9,0
		c0-0.3,0-0.5,0-0.8c1,0,2,0,2.9,0c0-1,0-2,0-3c0.3,0,0.5,0,0.8,0c0,1,0,2,0,3C129.6,147,130.6,147,131.6,147z"/>
</g>
<g id="Shape_29_2_">
	<g>
		<path fill="#EC6D24" d="M214.4,1206.1v-2c0-1.5-1.2-2.7-2.7-2.7c-1.5,0-2.7,1.2-2.7,2.7v2h-1.8v7.5h9.2v-7.5H214.4z M209.4,1204.1
			c0-1.3,1-2.3,2.3-2.3c1.3,0,2.3,1,2.3,2.3v2h-4.6V1204.1z M216,1213.2h-8.4v-6.7h8.4V1213.2z"/>
	</g>
	<g>
		<path fill="none" stroke="#EC6D24" stroke-width="0.5" stroke-miterlimit="10" d="M214.4,1206.1v-2c0-1.5-1.2-2.7-2.7-2.7
			c-1.5,0-2.7,1.2-2.7,2.7v2h-1.8v7.5h9.2v-7.5H214.4z M209.4,1204.1c0-1.3,1-2.3,2.3-2.3c1.3,0,2.3,1,2.3,2.3v2h-4.6V1204.1z
			 M216,1213.2h-8.4v-6.7h8.4V1213.2z"/>
	</g>
</g>
<rect x="207.6" y="1206.5" fill="#EC6D24" width="8.6" height="6.7"/>
<rect x="207.4" y="1204" fill="#FFFFFF" width="4.7" height="1.8"/>
<path fill="#FFFFFF" d="M218,55.3h-4.3v-2.1c0,0-0.2-2,1.1-2c1.6,0,2.8,0,2.8,0v-4.3h-4.8c0,0-4,0-4,4c0,0.9,0,2.4,0,4.3h-2.7v3.4
	h2.7c0,5.5,0,11.5,0,11.5h4.9V58.7h3.2L218,55.3z"/>
<path fill="#FFFFFF" d="M218,82.6c-1,0.5-2.1,0.8-3.3,0.9c1.2-0.7,2.1-1.8,2.5-3.2c-1.1,0.7-2.4,1.1-3.7,1.4
	c-1.1-1.1-2.6-1.8-4.2-1.8c-3.2,0-5.8,2.6-5.8,5.8c0,0.5,0.1,0.9,0.1,1.3c-4.8-0.2-9.1-2.5-11.9-6c-0.5,0.9-0.8,1.8-0.8,2.9
	c0,2,1,3.8,2.6,4.8c-0.9,0-1.8-0.3-2.6-0.7c0,0,0,0,0,0.1c0,2.8,2,5.1,4.6,5.7c-0.5,0.1-1,0.2-1.5,0.2c-0.4,0-0.7,0-1.1-0.1
	c0.7,2.3,2.9,4,5.4,4c-2,1.5-4.5,2.5-7.2,2.5c-0.5,0-0.9,0-1.4-0.1c2.6,1.6,5.6,2.6,8.9,2.6c10.6,0,16.4-8.8,16.4-16.4
	c0-0.3,0-0.5,0-0.7C216.2,84.8,217.2,83.7,218,82.6z"/>
<path fill="#FFFFFF" d="M218,144.4v1.6h-3.2v3.2h-1.6V146h-3.2v-1.6h3.2v-3.2h1.6v3.2H218z M208,142.5h-1.8c1.3,0.7,1.9,2.2,1.9,3.9
	c0,1.5-0.8,2.7-2,3.7c-1.2,0.9-1.4,1.3-1.4,2c0,0.7,1.4,1.6,2,2.1c2.2,1.7,2.7,2.7,2.7,4.8c0,2.6-2.8,5.2-7.3,5.2
	c-4,0-7.3-1.6-7.3-4.2c0-2.6,2.8-5.4,6.8-5.4c0.4,0,0.8,0,1.2,0c-0.5-0.5-1-1-1-1.8c0-0.5,0.2-0.9,0.4-1.3c-0.2,0-0.4,0-0.7,0
	c-3.3,0-5.2-2.3-5.2-5.2c0-2.8,2.9-5.4,6.4-5.4c1.8,0,6.8,0,6.8,0L208,142.5z M204.2,155.7c-0.5-0.2-1.1-0.3-1.8-0.3
	c-2.7,0-5.1,1.7-5.1,3.8c0,2.1,2,3.8,4.7,3.8c3.9,0,5.2-1.6,5.2-3.7c0-0.3,0-0.5-0.1-0.7C206.9,157.4,205.7,156.7,204.2,155.7z
	 M205.4,146.5c-0.3-2.4-1.9-4.4-3.7-4.5c-1.8-0.1-3.1,1.8-2.8,4.2c0.3,2.4,2.1,4.1,3.9,4.2C204.7,150.5,205.7,148.9,205.4,146.5z"/>
<path fill="#FFFFFF" d="M207.5,125.3c-0.6,3.1-1.3,6.2-3.5,7.7c-0.7-4.8,1-8.3,1.8-12.1c-1.3-2.2,0.2-6.6,2.9-5.5
	c3.4,1.3-2.9,8.2,1.3,9c4.4,0.9,6.3-7.7,3.5-10.5c-4-4-11.6-0.1-10.6,5.7c0.2,1.4,1.7,1.8,0.6,3.8c-2.5-0.6-3.3-2.6-3.2-5.3
	c0.2-4.4,3.9-7.5,7.7-7.9c4.8-0.5,9.3,1.8,9.9,6.3c0.7,5.1-2.2,10.6-7.3,10.2C209.2,126.7,208.6,126,207.5,125.3z"/>
<path fill-rule="evenodd" clip-rule="evenodd" fill="#6E7072" d="M216.5,880.9l-4.6-4.6V871h-3v2.3l-1.2-1.2c-1.5-1.5-4-1.5-5.6,0
	l-8.8,8.8c-0.6,0.6-0.2,1.7,0.7,1.7h1.7v8.6c0,2.4,1.9,4.3,4.3,4.3h1.3c-0.1-0.2-0.1-0.5-0.1-0.7v-8.6c0-1.3,1.1-2.3,2.4-2.3h2.6
	c1.3,0,2.4,1,2.4,2.3v8.6c0,0.2-0.1,0.5-0.1,0.7h1.3c2.4,0,4.3-1.9,4.3-4.3v-8.6h1.7C216.7,882.6,217.1,881.5,216.5,880.9z"/>
<polygon fill="#EC6D24" points="215.3,711.1 207.4,703.2 199.6,711.1 198.7,710.3 206.5,702.4 207.4,701.5 208.2,702.4 216,710.3 
	"/>
<path fill-rule="evenodd" clip-rule="evenodd" fill="#818285" d="M115.5,175h11.1c1.1,0,1.9,0.9,1.9,1.9v11.1c0,1.1-0.9,1.9-1.9,1.9
	h-11.1c-1.1,0-1.9-0.9-1.9-1.9V177C113.6,175.9,114.5,175,115.5,175L115.5,175z M124.5,176.7c-0.4,0-0.7,0.3-0.7,0.7v1.6
	c0,0.4,0.3,0.7,0.7,0.7h1.7c0.4,0,0.7-0.3,0.7-0.7v-1.6c0-0.4-0.3-0.7-0.7-0.7H124.5L124.5,176.7z M126.9,181.4h-1.3
	c0.1,0.4,0.2,0.8,0.2,1.3c0,2.5-2.1,4.5-4.7,4.5c-2.6,0-4.7-2-4.7-4.5c0-0.4,0.1-0.9,0.2-1.3h-1.4v6.3c0,0.3,0.3,0.6,0.6,0.6h10.4
	c0.3,0,0.6-0.3,0.6-0.6V181.4L126.9,181.4z M121.1,179.6c-1.7,0-3,1.3-3,2.9c0,1.6,1.3,2.9,3,2.9c1.7,0,3-1.3,3-2.9
	C124.1,180.9,122.8,179.6,121.1,179.6z"/>
<path fill="#818285" d="M133.8,208.2c-0.2-1.4-0.8-2.8-2.9-2.9c-1-0.1-4.9-0.2-7.5-0.2c-2.6,0-5.6,0.1-7.4,0.2
	c-1.8,0.1-2.8,1.2-2.9,2.9c-0.1,1.1-0.3,1.8-0.3,4.3c0,2.5,0.1,2.9,0.2,4.4c0.2,1.7,0.9,2.7,3,2.9c1.4,0.2,5.3,0.3,7.3,0.3
	s6.3-0.1,7.5-0.2c1.9-0.2,2.7-1.3,2.9-2.8c0.2-1.2,0.3-2.6,0.3-4.3C134.1,210.8,134,209.5,133.8,208.2z M121.3,215.4v-6l5.6,2.9
	L121.3,215.4z"/>
</svg>
