<?xml version="1.0" encoding="utf-8"?>
<!-- Generator: Adobe Illustrator 17.1.0, SVG Export Plug-In . SVG Version: 6.00 Build 0)  -->
<!DOCTYPE svg PUBLIC "-//W3C//DTD SVG 1.1//EN" "https://www.w3.org/Graphics/SVG/1.1/DTD/svg11.dtd">
<svg version="1.1" width="20" height="337" id="Calque_1" xmlns="https://www.w3.org/2000/svg" xmlns:xlink="https://www.w3.org/1999/xlink" x="0px" y="0px"
	 viewBox="0 0 19.8 337.3" enable-background="new 0 0 19.8 337.3" xml:space="preserve">
<g>
	<path fill="#886084" d="M0,37.2V30h1.4l2.9,4.8V30h1.3v7.2H4.2l-2.9-4.7v4.7H0z"/>
	<path fill="#886084" d="M10.2,35.5l1.4,0.2c-0.2,0.5-0.5,0.9-0.8,1.1c-0.4,0.3-0.9,0.4-1.4,0.4c-0.9,0-1.6-0.3-2-0.9
		c-0.3-0.5-0.5-1.1-0.5-1.8c0-0.9,0.2-1.5,0.7-2s1-0.7,1.7-0.7c0.8,0,1.4,0.3,1.8,0.8c0.4,0.5,0.7,1.3,0.6,2.3H8.2
		c0,0.4,0.1,0.7,0.3,0.9c0.2,0.2,0.5,0.3,0.8,0.3c0.2,0,0.4-0.1,0.5-0.2S10.1,35.8,10.2,35.5z M10.3,34.1c0-0.4-0.1-0.7-0.3-0.9
		s-0.4-0.3-0.7-0.3c-0.3,0-0.5,0.1-0.7,0.3s-0.3,0.5-0.3,0.9H10.3z"/>
	<path fill="#886084" d="M13.7,37.2L12.1,32h1.3l1,3.4l0.9-3.4h1.3l0.9,3.4l1-3.4h1.4l-1.7,5.2h-1.3l-0.9-3.3l-0.9,3.3H13.7z"/>
</g>
<g>
	<path fill="#9D4866" d="M0,7.2V0h1.4l2.9,4.8V0h1.3v7.2H4.2L1.3,2.5v4.7H0z"/>
	<path fill="#9D4866" d="M10.2,5.5l1.4,0.2c-0.2,0.5-0.5,0.9-0.8,1.1c-0.4,0.3-0.9,0.4-1.4,0.4c-0.9,0-1.6-0.3-2-0.9
		C7,5.9,6.8,5.3,6.8,4.6c0-0.9,0.2-1.5,0.7-2c0.4-0.5,1-0.7,1.7-0.7c0.8,0,1.4,0.3,1.8,0.8c0.4,0.5,0.7,1.3,0.6,2.3H8.2
		c0,0.4,0.1,0.7,0.3,1C8.8,6.1,9,6.3,9.3,6.3c0.2,0,0.4-0.1,0.5-0.2S10.1,5.8,10.2,5.5z M10.3,4.1c0-0.4-0.1-0.7-0.3-0.9
		C9.8,3,9.5,2.9,9.3,2.9C9,2.9,8.7,3,8.5,3.2C8.3,3.5,8.2,3.8,8.2,4.1H10.3z"/>
	<path fill="#9D4866" d="M13.7,7.2L12.1,2h1.3l1,3.4L15.3,2h1.3l0.9,3.4l1-3.4h1.4l-1.7,5.2h-1.3L16,3.8l-0.9,3.3H13.7z"/>
</g>
<g>
	<path fill="#D15C63" d="M0,307.2V300h1.4l2.9,4.8V300h1.3v7.2H4.2l-2.9-4.7v4.7H0z"/>
	<path fill="#D15C63" d="M10.2,305.5l1.4,0.2c-0.2,0.5-0.5,0.9-0.8,1.1c-0.4,0.3-0.9,0.4-1.4,0.4c-0.9,0-1.6-0.3-2-0.9
		c-0.3-0.5-0.5-1.1-0.5-1.8c0-0.9,0.2-1.5,0.7-2s1-0.7,1.7-0.7c0.8,0,1.4,0.3,1.8,0.8c0.4,0.5,0.7,1.3,0.6,2.3H8.2
		c0,0.4,0.1,0.7,0.3,0.9c0.2,0.2,0.5,0.3,0.8,0.3c0.2,0,0.4-0.1,0.5-0.2S10.1,305.8,10.2,305.5z M10.3,304.1c0-0.4-0.1-0.7-0.3-0.9
		s-0.4-0.3-0.7-0.3c-0.3,0-0.5,0.1-0.7,0.3s-0.3,0.5-0.3,0.9H10.3z"/>
	<path fill="#D15C63" d="M13.7,307.2l-1.6-5.2h1.3l1,3.4l0.9-3.4h1.3l0.9,3.4l1-3.4h1.4l-1.7,5.2h-1.3l-0.9-3.3l-0.9,3.3H13.7z"/>
</g>
<g>
	<path fill="#CEDF8C" d="M0,67.2V60h1.4l2.9,4.8V60h1.3v7.2H4.2l-2.9-4.7v4.7H0z"/>
	<path fill="#CEDF8C" d="M10.2,65.5l1.4,0.2c-0.2,0.5-0.5,0.9-0.8,1.1c-0.4,0.3-0.9,0.4-1.4,0.4c-0.9,0-1.6-0.3-2-0.9
		c-0.3-0.5-0.5-1.1-0.5-1.8c0-0.9,0.2-1.5,0.7-2s1-0.7,1.7-0.7c0.8,0,1.4,0.3,1.8,0.8c0.4,0.5,0.7,1.3,0.6,2.3H8.2
		c0,0.4,0.1,0.7,0.3,0.9c0.2,0.2,0.5,0.3,0.8,0.3c0.2,0,0.4-0.1,0.5-0.2S10.1,65.8,10.2,65.5z M10.3,64.1c0-0.4-0.1-0.7-0.3-0.9
		s-0.4-0.3-0.7-0.3c-0.3,0-0.5,0.1-0.7,0.3s-0.3,0.5-0.3,0.9H10.3z"/>
	<path fill="#CEDF8C" d="M13.7,67.2L12.1,62h1.3l1,3.4l0.9-3.4h1.3l0.9,3.4l1-3.4h1.4l-1.7,5.2h-1.3l-0.9-3.3l-0.9,3.3H13.7z"/>
</g>
<g>
	<path fill="#FBC062" d="M0,97.2V90h1.4l2.9,4.8V90h1.3v7.2H4.2l-2.9-4.7v4.7H0z"/>
	<path fill="#FBC062" d="M10.2,95.5l1.4,0.2c-0.2,0.5-0.5,0.9-0.8,1.1c-0.4,0.3-0.9,0.4-1.4,0.4c-0.9,0-1.6-0.3-2-0.9
		c-0.3-0.5-0.5-1.1-0.5-1.8c0-0.9,0.2-1.5,0.7-2s1-0.7,1.7-0.7c0.8,0,1.4,0.3,1.8,0.8c0.4,0.5,0.7,1.3,0.6,2.3H8.2
		c0,0.4,0.1,0.7,0.3,0.9c0.2,0.2,0.5,0.3,0.8,0.3c0.2,0,0.4-0.1,0.5-0.2S10.1,95.8,10.2,95.5z M10.3,94.1c0-0.4-0.1-0.7-0.3-0.9
		s-0.4-0.3-0.7-0.3c-0.3,0-0.5,0.1-0.7,0.3s-0.3,0.5-0.3,0.9H10.3z"/>
	<path fill="#FBC062" d="M13.7,97.2L12.1,92h1.3l1,3.4l0.9-3.4h1.3l0.9,3.4l1-3.4h1.4l-1.7,5.2h-1.3l-0.9-3.3l-0.9,3.3H13.7z"/>
</g>
<g>
	<path fill="#F9A36A" d="M0,277.2V270h1.4l2.9,4.8V270h1.3v7.2H4.2l-2.9-4.7v4.7H0z"/>
	<path fill="#F9A36A" d="M10.2,275.5l1.4,0.2c-0.2,0.5-0.5,0.9-0.8,1.1c-0.4,0.3-0.9,0.4-1.4,0.4c-0.9,0-1.6-0.3-2-0.9
		c-0.3-0.5-0.5-1.1-0.5-1.8c0-0.9,0.2-1.5,0.7-2c0.4-0.5,1-0.7,1.7-0.7c0.8,0,1.4,0.3,1.8,0.8c0.4,0.5,0.7,1.3,0.6,2.3H8.2
		c0,0.4,0.1,0.7,0.3,0.9c0.2,0.2,0.5,0.3,0.8,0.3c0.2,0,0.4-0.1,0.5-0.2S10.1,275.8,10.2,275.5z M10.3,274.1c0-0.4-0.1-0.7-0.3-0.9
		c-0.2-0.2-0.4-0.3-0.7-0.3c-0.3,0-0.5,0.1-0.7,0.3c-0.2,0.2-0.3,0.5-0.3,0.9H10.3z"/>
	<path fill="#F9A36A" d="M13.7,277.2l-1.6-5.2h1.3l1,3.4l0.9-3.4h1.3l0.9,3.4l1-3.4h1.4l-1.7,5.2h-1.3l-0.9-3.3l-0.9,3.3H13.7z"/>
</g>
<g>
	<path fill="#637C93" d="M0,247.2V240h1.4l2.9,4.8V240h1.3v7.2H4.2l-2.9-4.7v4.7H0z"/>
	<path fill="#637C93" d="M10.2,245.5l1.4,0.2c-0.2,0.5-0.5,0.9-0.8,1.1c-0.4,0.3-0.9,0.4-1.4,0.4c-0.9,0-1.6-0.3-2-0.9
		c-0.3-0.5-0.5-1.1-0.5-1.8c0-0.9,0.2-1.5,0.7-2c0.4-0.5,1-0.7,1.7-0.7c0.8,0,1.4,0.3,1.8,0.8c0.4,0.5,0.7,1.3,0.6,2.3H8.2
		c0,0.4,0.1,0.7,0.3,0.9c0.2,0.2,0.5,0.3,0.8,0.3c0.2,0,0.4-0.1,0.5-0.2S10.1,245.8,10.2,245.5z M10.3,244.1c0-0.4-0.1-0.7-0.3-0.9
		c-0.2-0.2-0.4-0.3-0.7-0.3c-0.3,0-0.5,0.1-0.7,0.3c-0.2,0.2-0.3,0.5-0.3,0.9H10.3z"/>
	<path fill="#637C93" d="M13.7,247.2l-1.6-5.2h1.3l1,3.4l0.9-3.4h1.3l0.9,3.4l1-3.4h1.4l-1.7,5.2h-1.3l-0.9-3.3l-0.9,3.3H13.7z"/>
</g>
<g>
	<path fill="#ED6D23" d="M0,217.2V210h1.4l2.9,4.8V210h1.3v7.2H4.2l-2.9-4.7v4.7H0z"/>
	<path fill="#ED6D23" d="M10.2,215.5l1.4,0.2c-0.2,0.5-0.5,0.9-0.8,1.1c-0.4,0.3-0.9,0.4-1.4,0.4c-0.9,0-1.6-0.3-2-0.9
		c-0.3-0.5-0.5-1.1-0.5-1.8c0-0.9,0.2-1.5,0.7-2c0.4-0.5,1-0.7,1.7-0.7c0.8,0,1.4,0.3,1.8,0.8c0.4,0.5,0.7,1.3,0.6,2.3H8.2
		c0,0.4,0.1,0.7,0.3,0.9c0.2,0.2,0.5,0.3,0.8,0.3c0.2,0,0.4-0.1,0.5-0.2S10.1,215.8,10.2,215.5z M10.3,214.1c0-0.4-0.1-0.7-0.3-0.9
		c-0.2-0.2-0.4-0.3-0.7-0.3c-0.3,0-0.5,0.1-0.7,0.3c-0.2,0.2-0.3,0.5-0.3,0.9H10.3z"/>
	<path fill="#ED6D23" d="M13.7,217.2l-1.6-5.2h1.3l1,3.4l0.9-3.4h1.3l0.9,3.4l1-3.4h1.4l-1.7,5.2h-1.3l-0.9-3.3l-0.9,3.3H13.7z"/>
</g>
<g>
	<path fill="#F7A497" d="M0,187.2V180h1.4l2.9,4.8V180h1.3v7.2H4.2l-2.9-4.7v4.7H0z"/>
	<path fill="#F7A497" d="M10.2,185.5l1.4,0.2c-0.2,0.5-0.5,0.9-0.8,1.1c-0.4,0.3-0.9,0.4-1.4,0.4c-0.9,0-1.6-0.3-2-0.9
		c-0.3-0.5-0.5-1.1-0.5-1.8c0-0.9,0.2-1.5,0.7-2c0.4-0.5,1-0.7,1.7-0.7c0.8,0,1.4,0.3,1.8,0.8c0.4,0.5,0.7,1.3,0.6,2.3H8.2
		c0,0.4,0.1,0.7,0.3,0.9c0.2,0.2,0.5,0.3,0.8,0.3c0.2,0,0.4-0.1,0.5-0.2S10.1,185.8,10.2,185.5z M10.3,184.1c0-0.4-0.1-0.7-0.3-0.9
		c-0.2-0.2-0.4-0.3-0.7-0.3c-0.3,0-0.5,0.1-0.7,0.3c-0.2,0.2-0.3,0.5-0.3,0.9H10.3z"/>
	<path fill="#F7A497" d="M13.7,187.2l-1.6-5.2h1.3l1,3.4l0.9-3.4h1.3l0.9,3.4l1-3.4h1.4l-1.7,5.2h-1.3l-0.9-3.3l-0.9,3.3H13.7z"/>
</g>
<g>
	<path fill="#4EBA95" d="M0,157.2V150h1.4l2.9,4.8V150h1.3v7.2H4.2l-2.9-4.7v4.7H0z"/>
	<path fill="#4EBA95" d="M10.2,155.5l1.4,0.2c-0.2,0.5-0.5,0.9-0.8,1.1c-0.4,0.3-0.9,0.4-1.4,0.4c-0.9,0-1.6-0.3-2-0.9
		c-0.3-0.5-0.5-1.1-0.5-1.8c0-0.9,0.2-1.5,0.7-2c0.4-0.5,1-0.7,1.7-0.7c0.8,0,1.4,0.3,1.8,0.8c0.4,0.5,0.7,1.3,0.6,2.3H8.2
		c0,0.4,0.1,0.7,0.3,0.9c0.2,0.2,0.5,0.3,0.8,0.3c0.2,0,0.4-0.1,0.5-0.2S10.1,155.8,10.2,155.5z M10.3,154.1c0-0.4-0.1-0.7-0.3-0.9
		c-0.2-0.2-0.4-0.3-0.7-0.3c-0.3,0-0.5,0.1-0.7,0.3c-0.2,0.2-0.3,0.5-0.3,0.9H10.3z"/>
	<path fill="#4EBA95" d="M13.7,157.2l-1.6-5.2h1.3l1,3.4l0.9-3.4h1.3l0.9,3.4l1-3.4h1.4l-1.7,5.2h-1.3l-0.9-3.3l-0.9,3.3H13.7z"/>
</g>
<g>
	<path fill="#97B786" d="M0,127.2V120h1.4l2.9,4.8V120h1.3v7.2H4.2l-2.9-4.7v4.7H0z"/>
	<path fill="#97B786" d="M10.2,125.5l1.4,0.2c-0.2,0.5-0.5,0.9-0.8,1.1c-0.4,0.3-0.9,0.4-1.4,0.4c-0.9,0-1.6-0.3-2-0.9
		c-0.3-0.5-0.5-1.1-0.5-1.8c0-0.9,0.2-1.5,0.7-2c0.4-0.5,1-0.7,1.7-0.7c0.8,0,1.4,0.3,1.8,0.8c0.4,0.5,0.7,1.3,0.6,2.3H8.2
		c0,0.4,0.1,0.7,0.3,0.9c0.2,0.2,0.5,0.3,0.8,0.3c0.2,0,0.4-0.1,0.5-0.2S10.1,125.8,10.2,125.5z M10.3,124.1c0-0.4-0.1-0.7-0.3-0.9
		c-0.2-0.2-0.4-0.3-0.7-0.3c-0.3,0-0.5,0.1-0.7,0.3c-0.2,0.2-0.3,0.5-0.3,0.9H10.3z"/>
	<path fill="#97B786" d="M13.7,127.2l-1.6-5.2h1.3l1,3.4l0.9-3.4h1.3l0.9,3.4l1-3.4h1.4l-1.7,5.2h-1.3l-0.9-3.3l-0.9,3.3H13.7z"/>
</g>
<g>
	<path fill="#FFFFFF" d="M0,337.2V330h1.4l2.9,4.8V330h1.3v7.2H4.2l-2.9-4.7v4.7H0z"/>
	<path fill="#FFFFFF" d="M10.2,335.5l1.4,0.2c-0.2,0.5-0.5,0.9-0.8,1.1c-0.4,0.3-0.9,0.4-1.4,0.4c-0.9,0-1.6-0.3-2-0.9
		c-0.3-0.5-0.5-1.1-0.5-1.8c0-0.9,0.2-1.5,0.7-2s1-0.7,1.7-0.7c0.8,0,1.4,0.3,1.8,0.8c0.4,0.5,0.7,1.3,0.6,2.3H8.2
		c0,0.4,0.1,0.7,0.3,0.9c0.2,0.2,0.5,0.3,0.8,0.3c0.2,0,0.4-0.1,0.5-0.2S10.1,335.8,10.2,335.5z M10.3,334.1c0-0.4-0.1-0.7-0.3-0.9
		s-0.4-0.3-0.7-0.3c-0.3,0-0.5,0.1-0.7,0.3s-0.3,0.5-0.3,0.9H10.3z"/>
	<path fill="#FFFFFF" d="M13.7,337.2l-1.6-5.2h1.3l1,3.4l0.9-3.4h1.3l0.9,3.4l1-3.4h1.4l-1.7,5.2h-1.3l-0.9-3.3l-0.9,3.3H13.7z"/>
</g>
</svg>
