<?xml version="1.0" encoding="utf-8"?>
<!-- Generator: Adobe Illustrator 18.1.1, SVG Export Plug-In . SVG Version: 6.00 Build 0)  -->
<svg version="1.1" xmlns="https://www.w3.org/2000/svg" xmlns:xlink="https://www.w3.org/1999/xlink" x="0px" y="0px"
	 viewBox="0 0 1920 1080" enable-background="new 0 0 1920 1080" xml:space="preserve">
<g id="Layer_1">
	<g>
		<path fill="#2368B1" d="M475.7,212.7c-145.4,0-266.4,90.9-266.4,189c0,48.7,29.4,66.6,76.6,66.6c-0.7-6.5-10-12.2-10-48.7
			c0-108.9,80.9-174,187.6-174c62.3,0,104.6,38,104.6,135.3c0,144.7-52.3,315.1-137.5,315.1c-13.6,0-27.2-4.3-40.8-14.3L475.7,280
			l-106,14.3l-97.4,455.4h103.1l5.7-28.6c30.8,26.5,60.2,38,87.4,38c106,0,198.4-175.5,198.4-340.2
			C666.9,309.4,614.7,212.7,475.7,212.7z M328.7,710.9l-0.1,0.5l-0.1,0.5l-4.1,20.9h-7.6h-22.3l4.7-21.8l82.8-387.1l2.6-12.4
			l12.5-1.7l17.6-2.4l-2.6,12.4L328.7,710.9z M560.4,624.2c-28.1,49.9-63.3,80.8-91.9,80.8c-0.1,0-0.2,0-0.3,0
			c31.7-15.7,58.5-51.2,79.8-105.7c24.2-61.8,38-141.4,38-218.3c0-31.9-4.5-59.3-13.3-81.6c3,2.9,5.8,5.9,8.5,9.2
			c26.1,32.5,31.6,77.9,31.6,110.4C612.9,489.2,593.3,566,560.4,624.2z"/>
		<g id="I">
			<path fill="#2368B1" d="M833.3,388.2l-51.6,243.5c-2.2,9.3-2.9,16.5-2.9,22.9c0,20,9.3,26.5,29.4,26.5c12.9,0,18.6-2.1,22.9-4.3
				c-3.6,50.8-40.1,73.8-78.8,73.8c-43,0-76.6-25.8-76.6-85.9c0-13.6,2.2-29.4,5.7-46.5l48.7-229.9H833.3z M796.9,240.8
				c31,0,56.4,25.4,56.4,56.4c0,31-25.4,55.7-56.4,55.7c-31,0-55.7-24.7-55.7-55.7C741.2,266.2,765.9,240.8,796.9,240.8z"/>
		</g>
		<g id="P">
			<path fill="#2368B1" d="M1033.2,361.7l-11.5,53.7c20.8-17.9,48-30.8,83.8-30.8c48.7,0,87.4,27.9,87.4,113.1
				c0,96.7-37.2,252.8-176.2,252.8c-35.8,0-53-12.2-60.9-25.8l-37.2,174.7l-108.1,25.8l119.6-563.6H1033.2z M1094.8,495.6
				c0-55.1-22.9-59.4-35.8-59.4c-15.8,0-35.8,12.2-49.4,35.1l-42.2,200.5c2.9,7.9,10.7,16.5,27.2,16.5
				C1069.7,688.2,1094.8,562.9,1094.8,495.6z"/>
		</g>
		<g id="LP">
			<path fill="#2368B1" d="M1627.6,390.4l-48.5,228.9c-10.7,35.6-29.2,62.7-57,62.7c-16.4,0-21.4-15-21.4-31.4
				c0-5.7,0.7-12.1,2.1-17.8l51.3-242.5h-102.7L1403,619.3c0,0,0,0.1,0,0.1c-10.7,35.6-36.4,62.6-64.1,62.6
				c-20,0-29.2-6.4-29.2-26.4c0-6.4,0.7-13.6,2.9-22.8l82-385.1L1288.9,262l-76.3,357.3c-3.6,17.1-5.7,32.8-5.7,46.3
				c0,59.9,33.5,85.6,76.3,85.6c29.2,0,76.7-9,115.8-63.9c7.2,44.5,37.4,63.9,74.6,63.9c24.2,0,56.3-6.4,87-41.4l-7.1,31.4
				c-67.7,20-123.4,40.6-123.4,107c0,46.3,40.6,77,84.2,77c47.1,0,108.4-19.3,129.8-121.2l87-413.6H1627.6z M1539.9,806.1
				c-9.3,42.1-27.8,55.6-42.1,55.6c-15.7,0-28.5-13.5-28.5-23.5c0-38.5,34.2-59.2,79.2-74.2L1539.9,806.1z"/>
		</g>
	</g>
</g>
<g id="Livello_1" display="none">
	<path display="inline" fill="#FFFFFF" d="M371.3,335l58.5,44.2l-35.8,45.5c24.7,28,33.8,59.8,33.8,94.9c0,39.7-15,95.6-67.6,119.6
		c53.3,26.7,66.3,65,66.3,106c0,88.4-67.6,143-160.6,143c-93,0-162.5-56.6-162.5-143h78.7c0,41.6,38.4,68.9,83.9,68.9
		c45.5,0,81.3-24.7,81.3-68.9c0-44.2-41.6-64.4-81.3-64.4c-100.1,0-162.5-61.1-162.5-161.2c0-100.1,72.8-162.5,162.5-162.5
		c25.4,0,51.4,3.3,73.5,18.2L371.3,335z M182.1,519.6c0,55.9,37.7,89.1,83.9,89.1c45.5,0,83.2-33.8,83.2-89.1
		c0-55.3-37.7-90.4-83.2-90.4C219.8,429.2,182.1,463.7,182.1,519.6z"/>
	<path display="inline" fill="#FFFFFF" d="M1091.3,366.8L954.8,689.3H869L731.8,366.8h86.5l44.2,106L911.9,608l48.8-133.9
		l44.2-107.3H1091.3z"/>
	<path display="inline" fill="#FFFFFF" d="M1190.3,296.3c0,65-98.5,65-98.5,0C1091.8,231.3,1190.3,231.3,1190.3,296.3z"/>
	<rect x="1099.4" y="366.2" display="inline" fill="#FFFFFF" width="79.3" height="321.8"/>
	<path display="inline" fill="#FFFFFF" d="M1635.9,367.5h76.1V688h-74.8l-3.9-46.8c-18.2,37.7-68.3,55.9-104,56.6
		c-94.9,0.6-165.1-57.9-165.1-170.3c0-110.5,73.5-168.4,167.1-167.7c42.9,0,83.9,20.2,102.1,52L1635.9,367.5z M1443.5,527.4
		c0,61.1,42.3,97.5,94.9,97.5c124.8,0,124.8-194.4,0-194.4C1485.8,430.6,1443.5,466.3,1443.5,527.4z"/>
	<path display="inline" fill="#FFFFFF" d="M1815.7,233.5V688H1737V233.5H1815.7z"/>
	<path display="inline" fill="#FFFFFF" d="M1366,437.7c13.8-29.8,35.5-52.4,62.3-67.5c-15.7-6.9-34.3-11.2-53.3-11.2
		c-32.5,0-65.7,6-90.4,45.6l-5.9-37h-74.3v319.2h80.2V519c0-59.2,38.3-81.2,79.9-81.2C1365.2,437.7,1365.6,437.7,1366,437.7z"/>
	<path display="inline" fill="#FFFFFF" d="M603.8,355.4c-92.7,0-167.8,74.5-167.8,166.3c0,91.8,75.1,166.3,167.8,166.3
		c92.7,0,167.8-74.5,167.8-166.3C771.7,429.8,696.5,355.4,603.8,355.4z M604.2,611.4c-46.2,0-83.9-33.1-83.9-89S558,432,604.2,432
		c45.5,0,83.2,35.1,83.2,90.4C687.4,577.6,649.7,611.4,604.2,611.4z"/>
	<path display="inline" fill="#8CC63F" d="M371.3,335l58.5,44.2l-35.8,45.5c24.7,28,33.8,59.8,33.8,94.9c0,39.7-15,95.6-67.6,119.6
		c53.3,26.7,66.3,65,66.3,106c0,88.4-67.6,143-160.6,143c-93,0-162.5-56.6-162.5-143h78.7c0,41.6,38.4,68.9,83.9,68.9
		c45.5,0,81.3-24.7,81.3-68.9c0-44.2-41.6-64.4-81.3-64.4c-100.1,0-162.5-61.1-162.5-161.2c0-100.1,72.8-162.5,162.5-162.5
		c25.4,0,51.4,3.3,73.5,18.2L371.3,335z M182.1,519.6c0,55.9,37.7,89.1,83.9,89.1c45.5,0,83.2-33.8,83.2-89.1
		c0-55.3-37.7-90.4-83.2-90.4C219.8,429.2,182.1,463.7,182.1,519.6z"/>
	<path display="inline" opacity="0.8" fill="#8CC63F" d="M1091.3,366.8L954.8,689.3H869L731.8,366.8h86.5l44.2,106L911.9,608
		l48.8-133.9l44.2-107.3H1091.3z"/>
	<path display="inline" opacity="0.8" fill="#8CC63F" d="M1190.3,296.3c0,65-98.5,65-98.5,0C1091.8,231.3,1190.3,231.3,1190.3,296.3
		z"/>
	<rect x="1099.4" y="366.2" display="inline" opacity="0.8" fill="#8CC63F" width="79.3" height="321.8"/>
	<path display="inline" opacity="0.8" fill="#8CC63F" d="M1635.9,367.5h76.1V688h-74.8l-3.9-46.8c-18.2,37.7-68.3,55.9-104,56.6
		c-94.9,0.6-165.1-57.9-165.1-170.3c0-110.5,73.5-168.4,167.1-167.7c42.9,0,83.9,20.2,102.1,52L1635.9,367.5z M1443.5,527.4
		c0,61.1,42.3,97.5,94.9,97.5c124.8,0,124.8-194.4,0-194.4C1485.8,430.6,1443.5,466.3,1443.5,527.4z"/>
	<path display="inline" opacity="0.8" fill="#8CC63F" d="M1815.7,233.5V688H1737V233.5H1815.7z"/>
	<path display="inline" opacity="0.8" fill="#8CC63F" d="M1366,437.7c13.8-29.8,35.5-52.4,62.3-67.5c-15.7-6.9-34.3-11.2-53.3-11.2
		c-32.5,0-65.7,6-90.4,45.6l-5.9-37h-74.3v319.2h80.2V519c0-59.2,38.3-81.2,79.9-81.2C1365.2,437.7,1365.6,437.7,1366,437.7z"/>
	<path display="inline" fill="#8CC63F" d="M603.8,355.4c-92.7,0-167.8,74.5-167.8,166.3c0,91.8,75.1,166.3,167.8,166.3
		c92.7,0,167.8-74.5,167.8-166.3C771.7,429.8,696.5,355.4,603.8,355.4z M604.2,611.4c-46.2,0-83.9-33.1-83.9-89S558,432,604.2,432
		c45.5,0,83.2,35.1,83.2,90.4C687.4,577.6,649.7,611.4,604.2,611.4z"/>
</g>
</svg>
