<?xml version="1.0" encoding="UTF-8" standalone="no"?>
<svg width="200px" height="95px" viewBox="0 0 200 95" version="1.1" xmlns="http://www.w3.org/2000/svg" xmlns:xlink="http://www.w3.org/1999/xlink" xmlns:sketch="http://www.bohemiancoding.com/sketch/ns">
    <!-- Generator: Sketch 3.3.3 (12072) - http://www.bohemiancoding.com/sketch -->
    <title>inter-blk-triple-3</title>
    <desc>Created with Sketch.</desc>
    <defs>
        <linearGradient x1="-0.221104536%" y1="49.6942857%" x2="99.9374753%" y2="49.6942857%" id="linearGradient-1">
            <stop stop-color="#FFFFFF" stop-opacity="0" offset="0%"></stop>
            <stop stop-color="#0055A4" offset="100%"></stop>
        </linearGradient>
        <linearGradient x1="-0.0921446384%" y1="50.0985714%" x2="99.9905237%" y2="50.0985714%" id="linearGradient-2">
            <stop stop-color="#FFFFFF" stop-opacity="0" offset="0%"></stop>
            <stop stop-color="#0055A4" offset="100%"></stop>
        </linearGradient>
        <linearGradient x1="0.0720570822%" y1="50.1671429%" x2="100.058042%" y2="50.1671429%" id="linearGradient-3">
            <stop stop-color="#FFFFFF" stop-opacity="0" offset="0%"></stop>
            <stop stop-color="#0055A4" offset="100%"></stop>
        </linearGradient>
        <linearGradient x1="0.00502512563%" y1="49.7642857%" x2="99.9954774%" y2="49.7642857%" id="linearGradient-4">
            <stop stop-color="#FFFFFF" stop-opacity="0" offset="0%"></stop>
            <stop stop-color="#0055A4" offset="100%"></stop>
        </linearGradient>
    </defs>
    <g id="Page-1" stroke="none" stroke-width="1" fill="none" fill-rule="evenodd" sketch:type="MSPage">
        <g id="fibre" sketch:type="MSLayerGroup" transform="translate(1.000000, 11.000000)">
            <g id="Group" transform="translate(0.000000, 13.637363)" sketch:type="MSShapeGroup">
                <g transform="translate(85.858871, 1.604396)" id="Shape">
                    <path d="M79.5197581,25.7505495 L44.4540323,25.7505495 C42.9294355,25.7505495 41.6455645,27.0340659 41.6455645,28.5582418 C41.6455645,30.0824176 42.9294355,31.3659341 44.4540323,31.3659341 L79.5197581,31.3659341 C81.0443548,31.3659341 82.3282258,30.0824176 82.3282258,28.5582418 C82.3282258,26.9538462 81.0443548,25.7505495 79.5197581,25.7505495 L79.5197581,25.7505495 L79.5197581,25.7505495 Z" fill="url(#linearGradient-1)"></path>
                    <path d="M109.770968,9.30549451 L51.033871,9.30549451 C49.5092742,9.30549451 48.2254032,10.589011 48.2254032,12.1131868 C48.2254032,13.6373626 49.5092742,14.9208791 51.033871,14.9208791 L109.770968,14.9208791 C111.295565,14.9208791 112.579435,13.6373626 112.579435,12.1131868 C112.579435,10.589011 111.295565,9.30549451 109.770968,9.30549451 L109.770968,9.30549451 L109.770968,9.30549451 Z" fill="url(#linearGradient-2)"></path>
                    <path d="M77.5939516,0.641758242 L3.37016129,0.641758242 C1.84556452,0.641758242 0.561693548,1.92527473 0.561693548,3.44945055 C0.561693548,4.97362637 1.84556452,6.25714286 3.37016129,6.25714286 L77.5939516,6.25714286 C79.1185484,6.25714286 80.4024194,4.97362637 80.4024194,3.44945055 C80.4826613,1.92527473 79.1987903,0.641758242 77.5939516,0.641758242 L77.5939516,0.641758242 L77.5939516,0.641758242 Z" fill="url(#linearGradient-3)"></path>
                    <path d="M100.462903,17.5681319 L26.2391129,17.5681319 C24.7145161,17.5681319 23.4306452,18.8516484 23.4306452,20.3758242 C23.4306452,21.9 24.7145161,23.1835165 26.2391129,23.1835165 L100.462903,23.1835165 C101.9875,23.1835165 103.271371,21.9 103.271371,20.3758242 C103.271371,18.8516484 101.9875,17.5681319 100.462903,17.5681319 L100.462903,17.5681319 L100.462903,17.5681319 Z" fill="url(#linearGradient-4)"></path>
                </g>
                <g fill="#0055A4">
                    <g transform="translate(44.935484, 0.000000)">
                        <g transform="translate(26.479839, 0.000000)" id="Shape">
                            <path d="M0.88266129,22.1406593 C0.88266129,28.7186813 5.77741935,33.6120879 11.9560484,33.6120879 C18.3754032,33.6120879 23.1899194,28.3175824 23.1899194,21.8197802 C23.1899194,16.5252747 18.616129,10.589011 12.1967742,10.589011 C6.3391129,10.589011 3.77137097,14.6802198 3.77137097,14.6802198 L3.77137097,1.04285714 L0.88266129,1.04285714 L0.88266129,22.1406593 L0.88266129,22.1406593 Z M20.3012097,22.0604396 C20.3012097,26.7934066 17.0112903,31.0450549 12.0362903,31.0450549 L12.0362903,31.0450549 C7.4625,31.0450549 3.69112903,27.0340659 3.69112903,22.1406593 C3.69112903,17.167033 7.78346774,13.2362637 12.0362903,13.156044 C16.5298387,13.156044 20.2209677,17.167033 20.3012097,22.0604396 L20.3012097,22.0604396 Z"></path>
                            <path d="M11.9560484,33.8527473 L11.9560484,33.8527473 C5.45645161,33.8527473 0.641935484,28.7989011 0.641935484,22.0604396 L0.641935484,0.721978022 L4.09233871,0.721978022 L4.09233871,13.878022 C5.13548387,12.6747253 7.70322581,10.3483516 12.2770161,10.3483516 C18.9370968,10.3483516 23.5108871,16.4450549 23.5108871,21.8197802 C23.5108871,28.5582418 18.4556452,33.8527473 11.9560484,33.8527473 L11.9560484,33.8527473 Z M1.20362903,1.28351648 L1.20362903,22.1406593 C1.20362903,28.5582418 5.85766129,33.3714286 12.0362903,33.3714286 C18.2149194,33.3714286 23.0294355,28.3175824 23.0294355,21.8197802 C23.0294355,16.6054945 18.616129,10.8296703 12.2770161,10.8296703 C6.66008065,10.8296703 4.09233871,14.7604396 4.09233871,14.7604396 L3.6108871,15.5626374 L3.6108871,1.28351648 L1.20362903,1.28351648 L1.20362903,1.28351648 Z M11.9560484,31.2857143 C7.22177419,31.2857143 3.37016129,27.1945055 3.37016129,22.0604396 C3.37016129,17.167033 7.38225806,12.8351648 11.9560484,12.8351648 L11.9560484,12.8351648 C16.6903226,12.8351648 20.5419355,16.9263736 20.5419355,22.0604396 C20.5419355,27.3549451 16.8508065,31.2857143 11.9560484,31.2857143 L11.9560484,31.2857143 Z M11.9560484,13.3967033 C7.62298387,13.3967033 3.93185484,17.4879121 3.93185484,22.0604396 C3.93185484,26.8736264 7.54274194,30.7241758 11.9560484,30.7241758 C16.5298387,30.7241758 19.9802419,26.9538462 19.9802419,22.0604396 C19.9802419,17.3274725 16.3693548,13.3967033 11.9560484,13.3967033 L11.9560484,13.3967033 L11.9560484,13.3967033 Z"></path>
                        </g>
                        <g id="Shape">
                            <path d="M3.77137097,33.3714286 L6.66008065,33.3714286 L6.66008065,13.3967033 L12.1967742,13.3967033 L12.1967742,10.9901099 L6.57983871,10.9901099 L6.57983871,10.1076923 C6.57983871,4.65274725 8.18467742,1.92527473 13.9620968,3.52967033 L14.6842742,1.12307692 C13.4004032,0.802197802 12.3572581,0.641758242 11.233871,0.641758242 C6.74032258,0.641758242 3.8516129,3.85054945 3.8516129,10.1076923 L3.8516129,10.9901099 L1.04314516,10.9901099 L1.04314516,13.3967033 L3.8516129,13.3967033 L3.8516129,33.3714286 L3.77137097,33.3714286 Z"></path>
                            <path d="M6.90080645,33.6120879 L3.53064516,33.6120879 L3.53064516,13.6373626 L0.722177419,13.6373626 L0.722177419,10.7494505 L3.53064516,10.7494505 L3.53064516,10.1879121 C3.53064516,4.01098901 6.3391129,0.481318681 11.153629,0.481318681 C12.2770161,0.481318681 13.3201613,0.641758242 14.6842742,0.962637363 L14.925,1.04285714 L14.1225806,3.93076923 L13.8818548,3.85054945 C11.233871,3.12857143 9.46854839,3.28901099 8.34516129,4.41208791 C7.30201613,5.45494505 6.82056452,7.3 6.82056452,10.1879121 L6.82056452,10.7494505 L12.4375,10.7494505 L12.4375,13.6373626 L6.90080645,13.6373626 L6.90080645,33.6120879 L6.90080645,33.6120879 Z M4.01209677,33.0505495 L6.3391129,33.0505495 L6.3391129,13.0758242 L11.8758065,13.0758242 L11.8758065,11.2307692 L6.25887097,11.2307692 L6.25887097,10.1076923 C6.25887097,6.97912088 6.74032258,5.05384615 7.94395161,3.93076923 C9.14758065,2.72747253 10.9931452,2.48681319 13.8016129,3.20879121 L14.3633065,1.36373626 C13.1596774,1.04285714 12.1967742,0.962637363 11.233871,0.962637363 C6.74032258,0.962637363 4.09233871,4.33186813 4.09233871,10.1879121 L4.09233871,11.310989 L1.28387097,11.310989 L1.28387097,13.156044 L4.09233871,13.156044 L4.09233871,33.0505495 L4.01209677,33.0505495 Z"></path>
                        </g>
                        <g transform="translate(52.157258, 9.626374)" id="Shape">
                            <path d="M0.962903226,23.6648352 L3.8516129,23.6648352 L3.8516129,9.94725275 C3.8516129,5.45494505 5.29596774,3.60989011 9.54879032,3.60989011 C10.6721774,3.60989011 12.0362903,3.77032967 13.4806452,4.17142857 L14.1225806,1.52417582 C12.3572581,1.12307692 10.9931452,0.962637363 9.46854839,0.962637363 C3.12943548,0.962637363 0.802419355,4.17142857 0.802419355,9.54615385 L0.802419355,23.6648352 L0.962903226,23.6648352 Z"></path>
                            <path d="M4.17258065,23.9054945 L0.722177419,23.9054945 L0.722177419,9.62637363 C0.722177419,3.52967033 3.53064516,0.721978022 9.62903226,0.721978022 C11.233871,0.721978022 12.5979839,0.882417582 14.2830645,1.28351648 L14.5237903,1.36373626 L13.721371,4.49230769 L13.4806452,4.41208791 C12.0362903,4.01098901 10.7524194,3.85054945 9.54879032,3.85054945 C5.53669355,3.85054945 4.09233871,5.45494505 4.09233871,9.94725275 L4.09233871,23.9054945 L4.17258065,23.9054945 Z M1.20362903,23.4241758 L3.53064516,23.4241758 L3.53064516,10.0274725 C3.53064516,5.21428571 5.13548387,3.36923077 9.54879032,3.36923077 C10.6721774,3.36923077 11.9560484,3.52967033 13.3201613,3.85054945 L13.8818548,1.76483516 C12.3572581,1.44395604 11.0733871,1.28351648 9.62903226,1.28351648 C3.8516129,1.28351648 1.28387097,3.85054945 1.28387097,9.62637363 L1.28387097,23.4241758 L1.20362903,23.4241758 Z"></path>
                        </g>
                        <g transform="translate(16.850806, 0.000000)">
                            <g transform="translate(0.802419, 10.428571)">
                                <rect id="Rectangle-path" x="0.962903226" y="0.561538462" width="2.88870968" height="22.3010989"></rect>
                                <path d="M4.17258065,23.1032967 L0.722177419,23.1032967 L0.722177419,0.240659341 L4.17258065,0.240659341 L4.17258065,23.1032967 L4.17258065,23.1032967 Z M1.20362903,22.621978 L3.53064516,22.621978 L3.53064516,0.802197802 L1.20362903,0.802197802 L1.20362903,22.621978 L1.20362903,22.621978 Z" id="Shape"></path>
                            </g>
                            <g id="Shape">
                                <path d="M5.21572581,3.12857143 C5.21572581,1.92527473 4.25282258,1.04285714 3.12943548,1.04285714 C1.92580645,1.04285714 1.04314516,2.00549451 1.04314516,3.12857143 C1.04314516,4.33186813 2.00604839,5.21428571 3.12943548,5.21428571 C4.25282258,5.21428571 5.21572581,4.33186813 5.21572581,3.12857143 L5.21572581,3.12857143 Z"></path>
                                <path d="M3.12943548,5.53516484 C1.84556452,5.53516484 0.722177419,4.49230769 0.722177419,3.12857143 C0.722177419,1.84505495 1.76532258,0.721978022 3.12943548,0.721978022 C4.41330645,0.721978022 5.53669355,1.76483516 5.53669355,3.12857143 C5.53669355,4.41208791 4.41330645,5.53516484 3.12943548,5.53516484 L3.12943548,5.53516484 Z M3.12943548,1.28351648 C2.08629032,1.28351648 1.28387097,2.08571429 1.28387097,3.12857143 C1.28387097,4.17142857 2.08629032,4.97362637 3.12943548,4.97362637 C4.17258065,4.97362637 4.975,4.17142857 4.975,3.12857143 C4.975,2.08571429 4.17258065,1.28351648 3.12943548,1.28351648 L3.12943548,1.28351648 Z"></path>
                            </g>
                        </g>
                        <g transform="translate(65.798387, 9.626374)" id="Shape">
                            <path d="M11.7153226,0.962637363 C5.45645161,0.962637363 0.641935484,6.01648352 0.641935484,12.5142857 C0.641935484,19.0120879 5.77741935,23.9857143 12.2770161,23.9857143 C15.4064516,23.9857143 18.3754032,23.0230769 20.4616935,21.4186813 L19.1778226,19.332967 C17.4125,20.6164835 15.1657258,21.4186813 12.6782258,21.4186813 C6.82056452,21.4186813 3.69112903,17.4076923 3.45040323,12.9153846 L17.6532258,12.9153846 C20.8629032,12.9153846 21.9060484,11.5516484 21.4245968,8.42307692 C20.8629032,4.33186813 16.3693548,0.962637363 11.7153226,0.962637363 L11.7153226,0.962637363 Z M17.9741935,10.589011 L3.45040323,10.589011 C3.93185484,6.97912088 6.82056452,3.44945055 11.7153226,3.44945055 L11.7153226,3.44945055 C16.128629,3.44945055 18.7766129,6.73846154 18.7766129,9.54615385 C18.8568548,10.1879121 18.696371,10.589011 17.9741935,10.589011 L17.9741935,10.589011 Z"></path>
                            <path d="M12.2770161,24.2263736 C5.61693548,24.2263736 0.401209677,19.0120879 0.401209677,12.4340659 C0.401209677,5.85604396 5.37620968,0.641758242 11.7153226,0.641758242 C16.5298387,0.641758242 21.103629,4.09120879 21.7455645,8.34285714 C21.9862903,10.0274725 21.8258065,11.2307692 21.183871,12.032967 C20.5419355,12.8351648 19.4185484,13.156044 17.7334677,13.156044 L3.8516129,13.156044 C4.17258065,17.167033 6.98104839,21.178022 12.7584677,21.178022 C15.0854839,21.178022 17.2520161,20.456044 19.0975806,19.1725275 L19.3383065,19.0120879 L20.9431452,21.4989011 L20.7826613,21.6593407 C18.5358871,23.343956 15.4866935,24.2263736 12.2770161,24.2263736 L12.2770161,24.2263736 Z M11.7153226,1.2032967 C5.61693548,1.2032967 0.88266129,6.17692308 0.88266129,12.4340659 C0.88266129,18.7714286 5.85766129,23.6648352 12.2770161,23.6648352 C15.2459677,23.6648352 18.0544355,22.7824176 20.1407258,21.3384615 L19.0975806,19.7340659 C17.2520161,21.0175824 15.0854839,21.6593407 12.6782258,21.6593407 C6.41935484,21.6593407 3.45040323,17.2472527 3.20967742,12.8351648 L3.20967742,12.5142857 L17.6532258,12.5142857 C19.1778226,12.5142857 20.1407258,12.1934066 20.7024194,11.5516484 C21.2641129,10.9098901 21.4245968,9.86703297 21.183871,8.34285714 C20.6221774,4.57252747 16.2891129,1.2032967 11.7153226,1.2032967 L11.7153226,1.2032967 Z M17.9741935,10.8296703 L3.12943548,10.8296703 L3.20967742,10.5087912 C3.77137097,6.81868132 6.57983871,3.12857143 11.7153226,3.12857143 L11.7153226,3.12857143 C16.128629,3.12857143 19.0975806,6.41758242 19.0975806,9.46593407 C19.0975806,9.94725275 19.0975806,10.8296703 17.9741935,10.8296703 L17.9741935,10.8296703 Z M3.77137097,10.3483516 L17.9741935,10.3483516 C18.3754032,10.3483516 18.5358871,10.2681319 18.5358871,9.54615385 C18.5358871,7.13956044 16.128629,3.69010989 11.7153226,3.69010989 L11.7153226,3.44945055 L11.7153226,3.69010989 C7.06129032,3.69010989 4.41330645,6.97912088 3.77137097,10.3483516 L3.77137097,10.3483516 Z"></path>
                        </g>
                    </g>
                    <g transform="translate(11.233871, 10.428571)" id="Shape">
                        <path d="M11.4745968,23.1032967 C17.0915323,23.1032967 19.9,18.2098901 19.9,18.2098901 L19.9,22.7021978 L22.5479839,22.7021978 L22.5479839,11.7923077 C22.5479839,5.61538462 17.5729839,0.561538462 11.4745968,0.561538462 C5.45645161,0.561538462 0.401209677,5.93626374 0.401209677,12.2736264 C0.481451613,18.2901099 5.13548387,23.1032967 11.4745968,23.1032967 L11.4745968,23.1032967 Z M11.4745968,20.456044 C6.98104839,20.456044 3.28991935,16.6054945 3.28991935,11.8725275 C3.28991935,7.21978022 7.06129032,3.28901099 11.3943548,3.28901099 L11.3943548,3.28901099 C15.8879032,3.28901099 19.4987903,7.13956044 19.4987903,11.8725275 C19.6592742,16.5252747 15.9681452,20.456044 11.4745968,20.456044 L11.4745968,20.456044 Z"></path>
                        <path d="M11.4745968,23.343956 C5.05524194,23.343956 0.160483871,18.5307692 0.160483871,12.1934066 C0.160483871,5.6956044 5.29596774,0.240659341 11.4745968,0.240659341 C17.7334677,0.240659341 22.7887097,5.37472527 22.7887097,11.7923077 L22.7887097,23.0230769 L19.5790323,23.0230769 L19.5790323,19.0923077 C18.5358871,20.5362637 15.8879032,23.343956 11.4745968,23.343956 L11.4745968,23.343956 Z M11.4745968,0.802197802 C5.61693548,0.802197802 0.641935484,6.01648352 0.722177419,12.1934066 C0.722177419,18.2098901 5.37620968,22.7824176 11.5548387,22.7824176 C16.9310484,22.7824176 19.6592742,18.1296703 19.7395161,18.0494505 L20.2209677,17.167033 L20.2209677,22.4615385 L22.3072581,22.4615385 L22.3072581,11.7923077 C22.2270161,5.77582418 17.4125,0.802197802 11.4745968,0.802197802 L11.4745968,0.802197802 Z M11.4745968,20.6967033 C6.82056452,20.6967033 3.04919355,16.7659341 3.04919355,11.8725275 C3.04919355,9.54615385 3.93185484,7.38021978 5.53669355,5.61538462 C7.14153226,3.93076923 9.30806452,2.96813187 11.3943548,2.96813187 L11.3943548,2.96813187 C16.0483871,2.96813187 19.8197581,6.8989011 19.8197581,11.7923077 C19.9,16.6857143 16.128629,20.6967033 11.4745968,20.6967033 L11.4745968,20.6967033 Z M11.4745968,3.20879121 L11.4745968,3.44945055 C9.46854839,3.44945055 7.4625,4.33186813 5.93790323,5.93626374 C4.41330645,7.54065934 3.6108871,9.62637363 3.6108871,11.7923077 C3.6108871,16.3648352 7.14153226,20.1351648 11.4745968,20.1351648 C15.8076613,20.1351648 19.3383065,16.3648352 19.3383065,11.7923077 C19.3383065,7.21978022 15.8076613,3.44945055 11.4745968,3.44945055 L11.4745968,3.20879121 L11.4745968,3.20879121 Z"></path>
                    </g>
                    <g transform="translate(0.000000, 0.802198)" id="Shape">
                        <path d="M0.802419355,0.962637363 L0.802419355,25.189011 C0.802419355,28.7989011 1.44435484,32.7296703 6.82056452,32.7296703 C7.94395161,32.7296703 9.38830645,32.489011 10.5919355,32.1681319 L10.1104839,29.6010989 C5.21572581,30.8846154 3.69112903,29.8417582 3.69112903,24.1461538 L3.69112903,0.962637363 L0.802419355,0.962637363 L0.802419355,0.962637363 Z"></path>
                        <path d="M6.74032258,32.9703297 C1.20362903,32.9703297 0.481451613,28.7989011 0.481451613,25.189011 L0.481451613,0.721978022 L3.8516129,0.721978022 L3.8516129,24.1461538 C3.8516129,26.8736264 4.17258065,28.3978022 4.975,29.1197802 C5.85766129,30.0021978 7.22177419,30.0021978 9.95,29.2802198 L10.1907258,29.2 L10.8326613,32.2483516 L10.5919355,32.3285714 C9.38830645,32.8098901 7.94395161,32.9703297 6.74032258,32.9703297 L6.74032258,32.9703297 Z M1.04314516,1.2032967 L1.04314516,25.189011 C1.04314516,31.6065934 3.93185484,32.489011 6.74032258,32.489011 C7.78346774,32.489011 9.06733871,32.3285714 10.1907258,32.0076923 L9.78951613,30.0021978 C8.5858871,30.3230769 7.70322581,30.4032967 6.98104839,30.4032967 C5.93790323,30.4032967 5.13548387,30.1626374 4.57379032,29.6010989 C3.69112903,28.7186813 3.28991935,27.1142857 3.28991935,24.2263736 L3.28991935,1.28351648 L1.04314516,1.28351648 L1.04314516,1.2032967 Z"></path>
                    </g>
                </g>
                <g transform="translate(0.000000, 37.703297)" id="Shape" fill="#0055A4">
                    <path d="M0.561693548,16.1241758 L1.52459677,15.1615385 C1.76532258,15.0010989 1.92580645,15.0010989 2.08629032,15.1615385 C2.32701613,15.4021978 2.72822581,15.7230769 3.28991935,15.7230769 C4.01209677,15.7230769 4.81451613,15.1615385 4.81451613,13.878022 L4.81451613,5.05384615 C4.81451613,4.89340659 4.975,4.73296703 5.13548387,4.73296703 L6.90080645,4.73296703 C7.14153226,4.73296703 7.22177419,4.89340659 7.22177419,5.05384615 L7.22177419,13.878022 C7.22177419,16.4450549 5.45645161,17.9692308 3.28991935,17.9692308 C1.68508065,17.9692308 0.802419355,17.0065934 0.481451613,16.6054945 C0.401209677,16.4450549 0.481451613,16.2043956 0.561693548,16.1241758 L0.561693548,16.1241758 Z"></path>
                    <path d="M10.1104839,5.05384615 C10.1104839,4.89340659 10.2709677,4.73296703 10.4314516,4.73296703 L12.1967742,4.73296703 C12.4375,4.73296703 12.5177419,4.89340659 12.5177419,5.05384615 L12.5177419,12.6747253 C12.5177419,14.2791209 13.5608871,15.4824176 15.2459677,15.4824176 C16.8508065,15.4824176 17.9741935,14.1989011 17.9741935,12.6747253 L17.9741935,5.05384615 C17.9741935,4.89340659 18.1346774,4.73296703 18.2951613,4.73296703 L20.0604839,4.73296703 C20.2209677,4.73296703 20.3814516,4.89340659 20.3814516,5.05384615 L20.3814516,12.8351648 C20.3814516,15.6428571 18.1346774,17.9692308 15.1657258,17.9692308 C12.1967742,17.9692308 9.95,15.6428571 9.95,12.8351648 L9.95,5.05384615 L10.1104839,5.05384615 Z"></path>
                    <path d="M22.9491935,15.8835165 L23.591129,14.7604396 C23.7516129,14.5197802 24.0725806,14.5197802 24.2330645,14.6 C24.3133065,14.6802198 25.8379032,15.7230769 27.0415323,15.7230769 C28.0044355,15.7230769 28.7266129,15.0813187 28.7266129,14.2791209 C28.7266129,13.3164835 27.9241935,12.6747253 26.3193548,12.032967 C24.5540323,11.310989 22.7887097,10.1879121 22.7887097,8.02197802 C22.7887097,6.33736264 23.9923387,4.41208791 26.9612903,4.41208791 C28.8870968,4.41208791 30.3314516,5.37472527 30.7326613,5.6956044 C30.8931452,5.77582418 30.9733871,6.0967033 30.8129032,6.33736264 L30.0907258,7.38021978 C29.9302419,7.62087912 29.6895161,7.78131868 29.4487903,7.62087912 C29.2883065,7.54065934 27.8439516,6.57802198 26.8810484,6.57802198 C25.8379032,6.57802198 25.2762097,7.3 25.2762097,7.86153846 C25.2762097,8.74395604 25.9983871,9.30549451 27.4427419,9.94725275 C29.2883065,10.6692308 31.3745968,11.7923077 31.3745968,14.1989011 C31.3745968,16.1241758 29.6895161,17.889011 27.1217742,17.889011 C24.7947581,17.889011 23.3504032,16.7659341 23.0294355,16.4450549 C22.8689516,16.2846154 22.7887097,16.2043956 22.9491935,15.8835165 L22.9491935,15.8835165 Z"></path>
                    <path d="M39.6395161,4.49230769 C43.4108871,4.49230769 46.3798387,7.46043956 46.3798387,11.2307692 C46.3798387,13.7978022 44.9354839,16.043956 42.7689516,17.167033 L45.0959677,20.8571429 C45.2564516,21.0978022 45.0959677,21.4186813 44.775,21.4186813 L42.7689516,21.4186813 C42.6887097,21.4186813 42.5282258,21.3384615 42.4479839,21.2582418 L40.4419355,17.889011 C40.1209677,17.889011 39.8,17.9692308 39.6395161,17.9692308 C35.8681452,17.9692308 32.9794355,15.0010989 32.9794355,11.310989 C32.9794355,7.62087912 35.8681452,4.49230769 39.6395161,4.49230769 L39.6395161,4.49230769 Z M39.6395161,15.4824176 C41.9665323,15.4824176 43.8923387,13.5571429 43.8923387,11.2307692 C43.8923387,8.9043956 41.9665323,6.8989011 39.6395161,6.8989011 C37.3125,6.8989011 35.3866935,8.82417582 35.3866935,11.2307692 C35.3866935,13.6373626 37.3125,15.4824176 39.6395161,15.4824176 L39.6395161,15.4824176 Z"></path>
                    <path d="M48.6266129,5.05384615 C48.6266129,4.89340659 48.7870968,4.73296703 48.9475806,4.73296703 L50.7129032,4.73296703 C50.953629,4.73296703 51.033871,4.89340659 51.033871,5.05384615 L51.033871,12.6747253 C51.033871,14.2791209 52.0770161,15.4824176 53.7620968,15.4824176 C55.3669355,15.4824176 56.4903226,14.1989011 56.4903226,12.6747253 L56.4903226,5.05384615 C56.4903226,4.89340659 56.6508065,4.73296703 56.8112903,4.73296703 L58.5766129,4.73296703 C58.7370968,4.73296703 58.8975806,4.89340659 58.8975806,5.05384615 L58.8975806,12.8351648 C58.8975806,15.6428571 56.6508065,17.9692308 53.6818548,17.9692308 C50.7129032,17.9692308 48.466129,15.6428571 48.466129,12.8351648 L48.466129,5.05384615 L48.6266129,5.05384615 Z"></path>
                    <path d="M61.4653226,9.62637363 C61.3048387,9.46593407 61.3850806,9.30549451 61.4653226,9.22527473 C61.6258065,9.06483516 62.7491935,8.26263736 62.7491935,6.97912088 C62.7491935,6.97912088 62.5084677,7.05934066 62.1875,7.05934066 C61.4653226,7.05934066 60.903629,6.4978022 60.903629,5.85604396 C60.903629,5.21428571 61.4653226,4.57252747 62.2677419,4.57252747 C62.9096774,4.57252747 63.7923387,5.05384615 63.7923387,6.57802198 C63.7923387,8.42307692 62.5887097,9.54615385 62.1072581,9.94725275 C61.9467742,10.0274725 61.8665323,10.1076923 61.7060484,9.94725275 L61.4653226,9.62637363 L61.4653226,9.62637363 Z"></path>
                    <path d="M64.1935484,17.2472527 L69.9709677,4.65274725 C70.0512097,4.57252747 70.1314516,4.41208791 70.2919355,4.41208791 L70.4524194,4.41208791 C70.6129032,4.41208791 70.6931452,4.49230769 70.7733871,4.65274725 L76.5508065,17.2472527 C76.6310484,17.4879121 76.5508065,17.7285714 76.2298387,17.7285714 L74.625,17.7285714 C74.3842742,17.7285714 74.2237903,17.6483516 74.0633065,17.3274725 L73.1806452,15.321978 L67.5637097,15.321978 L66.6810484,17.3274725 C66.6008065,17.4879121 66.4403226,17.7285714 66.1193548,17.7285714 L64.5145161,17.7285714 C64.1935484,17.7285714 64.1133065,17.4879121 64.1935484,17.2472527 L64.1935484,17.2472527 Z M68.446371,2.00549451 C68.2858871,1.92527473 68.2056452,1.76483516 68.366129,1.52417582 L68.9278226,0.561538462 C69.0080645,0.401098901 69.2487903,0.401098901 69.4092742,0.481318681 L72.4584677,2.32637363 C72.5387097,2.40659341 72.6189516,2.56703297 72.5387097,2.64725275 L72.2177419,3.28901099 C72.1375,3.44945055 71.9770161,3.52967033 71.7362903,3.44945055 L68.446371,2.00549451 L68.446371,2.00549451 Z M72.2177419,13.3164835 L70.3721774,9.22527473 L70.2919355,9.22527473 L68.446371,13.3164835 L72.2177419,13.3164835 L72.2177419,13.3164835 Z"></path>
                    <path d="M83.291129,8.42307692 L81.6862903,8.74395604 C81.5258065,8.74395604 81.3653226,8.66373626 81.2850806,8.5032967 L81.2048387,7.62087912 C81.2048387,7.46043956 81.2048387,7.38021978 81.2850806,7.3 L83.9330645,5.05384615 L85.2169355,5.05384615 C85.3774194,5.05384615 85.5379032,5.21428571 85.5379032,5.37472527 L85.5379032,17.3274725 C85.5379032,17.4879121 85.3774194,17.6483516 85.2169355,17.6483516 L83.6120968,17.6483516 C83.371371,17.6483516 83.291129,17.4879121 83.291129,17.3274725 L83.291129,8.42307692 L83.291129,8.42307692 Z"></path>
                    <path d="M98.9383065,4.49230769 C100.623387,4.49230769 102.228226,5.13406593 103.512097,6.25714286 C103.672581,6.41758242 103.672581,6.65824176 103.512097,6.81868132 L102.38871,8.02197802 C102.228226,8.18241758 102.067742,8.18241758 101.907258,8.02197802 C101.104839,7.3 100.141935,6.97912088 99.0987903,6.97912088 C96.7717742,6.97912088 94.9262097,8.98461538 94.9262097,11.310989 C94.9262097,13.6373626 96.7717742,15.5626374 99.0987903,15.5626374 C100.141935,15.5626374 100.944355,15.2417582 101.345565,15.0813187 L101.345565,13.4769231 L99.8209677,13.4769231 C99.5802419,13.4769231 99.5,13.3164835 99.5,13.156044 L99.5,11.7120879 C99.5,11.4714286 99.6604839,11.3912088 99.8209677,11.3912088 L103.431855,11.3912088 C103.592339,11.3912088 103.752823,11.5516484 103.752823,11.7120879 L103.752823,16.5252747 C103.752823,16.6857143 103.672581,16.7659341 103.592339,16.8461538 C103.592339,16.8461538 101.666532,18.0494505 98.9383065,18.0494505 C95.2471774,18.0494505 92.2782258,15.0813187 92.2782258,11.3912088 C92.2782258,7.7010989 95.2471774,4.49230769 98.9383065,4.49230769 L98.9383065,4.49230769 Z"></path>
                    <path d="M106.481048,5.05384615 C106.481048,4.89340659 106.641532,4.73296703 106.802016,4.73296703 L111.054839,4.73296703 C113.301613,4.73296703 114.986694,6.25714286 114.986694,8.18241758 C114.986694,9.62637363 113.783065,10.7494505 112.900403,11.1505495 C113.863306,11.4714286 115.307661,12.5142857 115.307661,14.1989011 C115.307661,16.2846154 113.542339,17.8087912 111.215323,17.8087912 L106.721774,17.8087912 C106.481048,17.8087912 106.400806,17.6483516 106.400806,17.4879121 L106.400806,5.05384615 L106.481048,5.05384615 Z M110.894355,10.1879121 C111.857258,10.1879121 112.499194,9.46593407 112.499194,8.5032967 C112.499194,7.54065934 111.857258,6.8989011 110.894355,6.8989011 L108.888306,6.8989011 L108.888306,10.1879121 L110.894355,10.1879121 L110.894355,10.1879121 Z M111.135081,15.5626374 C112.097984,15.5626374 112.820161,14.8406593 112.820161,13.878022 C112.820161,12.9153846 111.857258,12.2736264 110.894355,12.2736264 L108.888306,12.2736264 L108.888306,15.5626374 L111.135081,15.5626374 L111.135081,15.5626374 Z"></path>
                    <path d="M120.523387,4.97362637 C120.523387,4.81318681 120.683871,4.73296703 120.844355,4.73296703 L122.208468,4.73296703 C122.449194,4.73296703 122.609677,4.97362637 122.529435,5.21428571 L118.918548,17.5681319 C118.918548,17.7285714 118.677823,17.8087912 118.597581,17.8087912 L117.153226,17.8087912 C116.9125,17.8087912 116.752016,17.5681319 116.832258,17.3274725 L120.523387,4.97362637 L120.523387,4.97362637 Z"></path>
                    <path d="M123.813306,15.8835165 L124.455242,14.7604396 C124.615726,14.5197802 124.936694,14.5197802 125.097177,14.6 C125.177419,14.6802198 126.702016,15.7230769 127.905645,15.7230769 C128.868548,15.7230769 129.590726,15.0813187 129.590726,14.2791209 C129.590726,13.3164835 128.788306,12.6747253 127.183468,12.032967 C125.418145,11.310989 123.652823,10.1879121 123.652823,8.02197802 C123.652823,6.33736264 124.856452,4.41208791 127.825403,4.41208791 C129.75121,4.41208791 131.195565,5.37472527 131.596774,5.6956044 C131.757258,5.77582418 131.8375,6.0967033 131.677016,6.33736264 L130.954839,7.38021978 C130.794355,7.62087912 130.553629,7.78131868 130.312903,7.62087912 C130.152419,7.54065934 128.708065,6.57802198 127.745161,6.57802198 C126.702016,6.57802198 126.140323,7.3 126.140323,7.86153846 C126.140323,8.74395604 126.8625,9.30549451 128.306855,9.94725275 C130.152419,10.6692308 132.23871,11.7923077 132.23871,14.1989011 C132.23871,16.1241758 130.553629,17.889011 127.985887,17.889011 C125.658871,17.889011 124.214516,16.7659341 123.893548,16.4450549 C123.733065,16.2846154 123.652823,16.2043956 123.813306,15.8835165 L123.813306,15.8835165 Z"></path>
                </g>
            </g>
            <g id="Group" transform="translate(0.802419, 0.000000)" fill="#0055A4" sketch:type="MSShapeGroup">
                <path d="M0.240725806,8.74395604 L4.01209677,0.641758242 C4.01209677,0.561538462 4.09233871,0.481318681 4.25282258,0.481318681 L4.33306452,0.481318681 C4.49354839,0.481318681 4.49354839,0.561538462 4.57379032,0.641758242 L8.26491935,8.74395604 C8.34516129,8.9043956 8.26491935,9.06483516 8.02419355,9.06483516 L6.98104839,9.06483516 C6.82056452,9.06483516 6.74032258,8.98461538 6.66008065,8.82417582 L6.0983871,7.54065934 L2.4875,7.54065934 L1.92580645,8.82417582 C1.84556452,8.9043956 1.76532258,9.06483516 1.60483871,9.06483516 L0.561693548,9.06483516 C0.320967742,9.06483516 0.160483871,8.9043956 0.240725806,8.74395604 L0.240725806,8.74395604 Z M5.45645161,6.17692308 L4.25282258,3.52967033 L3.04919355,6.17692308 L5.45645161,6.17692308 L5.45645161,6.17692308 Z" id="Shape"></path>
                <path d="M7.62298387,0.962637363 C7.54274194,0.802197802 7.62298387,0.641758242 7.86370968,0.641758242 L9.06733871,0.641758242 C9.14758065,0.641758242 9.22782258,0.721978022 9.30806452,0.802197802 L11.6350806,5.93626374 L11.7153226,5.93626374 L14.0423387,0.802197802 C14.0423387,0.721978022 14.1225806,0.641758242 14.2830645,0.641758242 L15.4866935,0.641758242 C15.6471774,0.641758242 15.7274194,0.802197802 15.7274194,0.962637363 L12.0362903,9.06483516 C12.0362903,9.14505495 11.9560484,9.22527473 11.7955645,9.22527473 L11.6350806,9.22527473 C11.5548387,9.22527473 11.4745968,9.14505495 11.3943548,9.06483516 L7.62298387,0.962637363 L7.62298387,0.962637363 Z" id="Shape"></path>
                <path d="M16.6903226,0.882417582 C16.6903226,0.721978022 16.7705645,0.641758242 16.9310484,0.641758242 L21.8258065,0.641758242 C21.9862903,0.641758242 22.0665323,0.721978022 22.0665323,0.882417582 L22.0665323,1.84505495 C22.0665323,2.00549451 21.9862903,2.08571429 21.8258065,2.08571429 L18.2951613,2.08571429 L18.2951613,4.09120879 L21.2641129,4.09120879 C21.4245968,4.09120879 21.5048387,4.17142857 21.5048387,4.33186813 L21.5048387,5.29450549 C21.5048387,5.45494505 21.4245968,5.53516484 21.2641129,5.53516484 L18.2951613,5.53516484 L18.2951613,7.62087912 L21.8258065,7.62087912 C21.9862903,7.62087912 22.0665323,7.7010989 22.0665323,7.86153846 L22.0665323,8.82417582 C22.0665323,8.98461538 21.9862903,9.06483516 21.8258065,9.06483516 L16.9310484,9.06483516 C16.7705645,9.06483516 16.6903226,8.98461538 16.6903226,8.82417582 L16.6903226,0.882417582 L16.6903226,0.882417582 Z" id="Shape"></path>
                <path d="M27.5229839,0.561538462 C28.7266129,0.561538462 29.6092742,0.962637363 30.4116935,1.68461538 C30.4919355,1.76483516 30.4919355,1.92527473 30.4116935,2.00549451 L29.6895161,2.72747253 C29.6092742,2.80769231 29.4487903,2.80769231 29.3685484,2.72747253 C28.8870968,2.24615385 28.1649194,2.00549451 27.5229839,2.00549451 C25.9983871,2.00549451 24.875,3.28901099 24.875,4.81318681 C24.875,6.33736264 25.9983871,7.62087912 27.6032258,7.62087912 C28.3254032,7.62087912 28.9673387,7.38021978 29.4487903,6.8989011 C29.5290323,6.81868132 29.6895161,6.81868132 29.7697581,6.8989011 L30.4919355,7.7010989 C30.5721774,7.78131868 30.5721774,7.94175824 30.4919355,8.02197802 C29.6895161,8.82417582 28.646371,9.22527473 27.6032258,9.22527473 C25.1959677,9.22527473 23.2701613,7.3 23.2701613,4.89340659 C23.2701613,2.48681319 25.1157258,0.561538462 27.5229839,0.561538462 L27.5229839,0.561538462 Z" id="Shape"></path>
            </g>
        </g>
    </g>
</svg>