<svg width="697" height="181" viewBox="0 0 697 181" xmlns="http://www.w3.org/2000/svg" xmlns:xlink="http://www.w3.org/1999/xlink"><title>Slice 1</title><defs><path d="M.2 4.2C-.4 2.8.4 1.5 2 1.5h10.7c.9 0 1.6.6 1.8 1.2l20.1 45h.7l20.1-45c.2-.5.8-1.2 1.8-1.2h10.7c1.6 0 2.4 1.4 1.8 2.7L37.2 74.7c-.3.6-.8 1.2-1.8 1.2h-1c-.9 0-1.5-.5-1.8-1.2L.2 4.2zm79-.8c0-1 .8-2 2-2h42.6c1.2 0 2 .9 2 2V12c0 1-.8 2-2 2h-31v17.2h25.9c1 0 2 .9 2 2v8.7c0 1.2-.9 2-2 2H92.8v18.3h31c1.2 0 2 .9 2 2v8.6c0 1-.8 2-2 2H81.2c-1.2 0-2-.9-2-2V3.4zm61.6-1.1c0-1 .9-1.9 2-1.9h2.6L189 46.7h.1V3.4c0-1 .8-2 2-2h9.6c1 0 2 .9 2 2v70.5c0 1-.9 1.9-2 1.9h-2.5l-43.8-48.1h-.1v45c0 1-.8 2-2 2h-9.5c-1 0-2-.9-2-2V2.3zm81 1.1c0-1 .8-2 1.9-2h24.8c20.2 0 36.8 16.4 36.8 36.6 0 20.3-16.6 36.8-36.8 36.8h-24.8c-1 0-1.9-.9-1.9-2V3.4zM247.2 62c13.6 0 23.6-10.3 23.6-24 0-13.6-10-23.9-23.6-23.9h-11.9V62h11.9zm51.9-58.6c0-1 .8-2 2-2h30c12.6 0 22.8 10.1 22.8 22.5 0 9.6-6.4 17.5-15.5 21.2l14.4 26.6c.7 1.4 0 3-1.8 3h-11c-.9 0-1.5-.5-1.7-.9L324.4 46h-11.6v26.7c0 1-.9 2-2 2h-9.6c-1.2 0-2-.9-2-2V3.4h-.1zm30.8 31.5c5.6 0 10.4-4.8 10.4-10.7 0-5.6-4.8-10.2-10.4-10.2h-17.1v20.8h17.1v.1zm34.5-5.9c-.7-.7-.5-1.8.2-2.4 1-.7 7.1-5.4 7.1-12.8-.1 0-1.5.5-3.1.5-3.9 0-7-3-7-6.9 0-3.9 3.1-7 7.4-7 3.8 0 8.7 2.6 8.7 11.2 0 10.3-6.7 16.6-9.4 19-.8.6-1.6.7-2.4-.1l-1.5-1.5z" id="a"/><linearGradient x1="33.964%" y1="49.998%" x2="81.846%" y2="49.998%" id="b"><stop stop-color="#1AABD9" offset="27.36%"/><stop stop-color="#18A6D6" offset="36.22%"/><stop stop-color="#1496CC" offset="47.28%"/><stop stop-color="#0D7DBB" offset="59.49%"/><stop stop-color="#025AA5" offset="72.46%"/><stop stop-color="#0052A0" offset="74.98%"/></linearGradient><path d="M.2 4.2C-.4 2.8.4 1.5 2 1.5h10.7c.9 0 1.6.6 1.8 1.2l20.1 45h.7l20.1-45c.2-.5.8-1.2 1.8-1.2h10.7c1.6 0 2.4 1.4 1.8 2.7L37.2 74.7c-.3.6-.8 1.2-1.8 1.2h-1c-.9 0-1.5-.5-1.8-1.2L.2 4.2zm79-.8c0-1 .8-2 2-2h42.6c1.2 0 2 .9 2 2V12c0 1-.8 2-2 2h-31v17.2h25.9c1 0 2 .9 2 2v8.7c0 1.2-.9 2-2 2H92.8v18.3h31c1.2 0 2 .9 2 2v8.6c0 1-.8 2-2 2H81.2c-1.2 0-2-.9-2-2V3.4zm61.6-1.1c0-1 .9-1.9 2-1.9h2.6L189 46.7h.1V3.4c0-1 .8-2 2-2h9.6c1 0 2 .9 2 2v70.5c0 1-.9 1.9-2 1.9h-2.5l-43.8-48.1h-.1v45c0 1-.8 2-2 2h-9.5c-1 0-2-.9-2-2V2.3zm81 1.1c0-1 .8-2 1.9-2h24.8c20.2 0 36.8 16.4 36.8 36.6 0 20.3-16.6 36.8-36.8 36.8h-24.8c-1 0-1.9-.9-1.9-2V3.4zM247.2 62c13.6 0 23.6-10.3 23.6-24 0-13.6-10-23.9-23.6-23.9h-11.9V62h11.9zm51.9-58.6c0-1 .8-2 2-2h30c12.6 0 22.8 10.1 22.8 22.5 0 9.6-6.4 17.5-15.5 21.2l14.4 26.6c.7 1.4 0 3-1.8 3h-11c-.9 0-1.5-.5-1.7-.9L324.4 46h-11.6v26.7c0 1-.9 2-2 2h-9.6c-1.2 0-2-.9-2-2V3.4h-.1zm30.8 31.5c5.6 0 10.4-4.8 10.4-10.7 0-5.6-4.8-10.2-10.4-10.2h-17.1v20.8h17.1v.1zm34.5-5.9c-.7-.7-.5-1.8.2-2.4 1-.7 7.1-5.4 7.1-12.8-.1 0-1.5.5-3.1.5-3.9 0-7-3-7-6.9 0-3.9 3.1-7 7.4-7 3.8 0 8.7 2.6 8.7 11.2 0 10.3-6.7 16.6-9.4 19-.8.6-1.6.7-2.4-.1l-1.5-1.5z" id="d"/><linearGradient x1="-.517%" y1="16.019%" x2="39.138%" y2="42.554%" id="e"><stop stop-color="#1AABD9" offset="0%"/><stop stop-color="#1EACDA" offset="20.55%"/><stop stop-color="#2AB0DC" offset="40.54%"/><stop stop-color="#3DB7E0" offset="60.31%"/><stop stop-color="#59C0E5" offset="79.94%"/><stop stop-color="#7CCCEC" offset="99.32%"/><stop stop-color="#7DCCEC" offset="100%"/></linearGradient></defs><g fill="none" fill-rule="evenodd"><g fill="#0055A4"><path d="M118.6 160.6c3.6 0 5.8 1.9 5.8 1.9v-15c0-.3.2-.6.6-.6h.9c.3 0 .6.3.6.6v32c0 .3-.3.6-.6.6h-.5c-.4 0-.6-.2-.7-.6l-.1-1.7c-.6.6-2.9 2.8-6.6 2.8-4.9 0-8.8-4.4-8.8-10s3.9-10 9.4-10zm-.5 18.1c4.1 0 6.2-3.2 6.3-3.4v-10.6s-2.2-2-5.6-2c-4.4 0-7.5 3.4-7.5 7.9 0 4.4 2.8 8.1 6.8 8.1zM133.4 161.7c0-.3.3-.6.6-.6h.9c.3 0 .6.3.6.6v10.2c0 4.4 2 6.6 5.6 6.6 3.9 0 6.1-3.1 6.3-3.3v-13.5c0-.4.2-.6.6-.6h.9c.3 0 .6.3.6.6v17.8c0 .3-.3.6-.6.6h-.6c-.4 0-.5-.3-.6-.6l-.2-1.9c-.5.7-2.8 2.9-6.6 2.9-5.3 0-7.6-3.3-7.6-8.6v-10.2h.1zM163.7 147.5c-.2-.4 0-.6.4-.6h1.3c.3 0 .5.2.5.3l12.8 29.5h.1l13-29.5c0-.1.2-.3.5-.3h1.2c.4 0 .6.3.4.7l-14.6 32.6c-.1.2-.3.4-.6.4h-.2c-.3 0-.5-.3-.5-.4l-14.3-32.7zM202.3 160.6c5 0 8.6 3.7 8.6 8.7 0 .8 0 1.9-.7 1.9H195c.2 4.1 3.1 7.5 7.4 7.5 2.5 0 4.5-1 5.6-1.8.4-.3.6-.3.9 0l.5.7c.1.2.1.5-.2.8-.9 1-3.9 2.2-6.9 2.2-5.8 0-9.4-4.5-9.4-10 0-5.4 3.6-10 9.4-10zm6.5 8.9c0-3.7-2.2-6.9-6.5-6.9-4.2 0-7 3-7.2 6.9h13.7zM216.5 161.7c0-.3.3-.6.7-.6h.5c.3 0 .5.2.6.5l.2 2c.6-.7 3.2-3 7-3 5.3 0 7.6 3.4 7.6 8.7v10.2c0 .3-.3.6-.6.6h-.9c-.3 0-.6-.3-.6-.6v-10.2c0-4.4-2-6.6-5.6-6.6-3.9 0-6.6 3-6.8 3.3v13.5c0 .4-.2.6-.6.6h-1c-.3 0-.5-.3-.5-.6v-17.8zM248 160.6c3.6 0 5.8 1.9 5.8 1.9v-15c0-.3.2-.6.6-.6h.9c.3 0 .6.3.6.6v32c0 .3-.3.6-.6.6h-.5c-.4 0-.6-.2-.7-.6l-.1-1.7c-.6.6-2.9 2.8-6.6 2.8-4.9 0-8.8-4.4-8.8-10s4-10 9.4-10zm-.5 18.1c4.1 0 6.2-3.2 6.3-3.4v-10.6s-2.2-2-5.6-2c-4.4 0-7.5 3.4-7.5 7.9 0 4.4 2.8 8.1 6.8 8.1zM263.1 161.7c0-.3.3-.6.6-.6h.6c.3 0 .5.2.6.5l.2 1.9c.5-.7 2.4-2.9 5.9-2.9 1.5 0 2.6.4 2.9.6.4.1.7.5.5.9l-.4 1c-.1.3-.4.4-.8.2-.2-.1-1.2-.6-2.5-.6-3.7 0-5.5 3-5.6 3.3v13.5c0 .4-.2.6-.6.6h-.9c-.3 0-.5-.3-.5-.6v-17.8zM276.7 157c-.2-.2-.1-.5.2-.8.2-.2 2.4-1.6 2.7-4.5 0-.7 0-1.3-.2-1.8-.2.1-.5.2-.8.2-1.2 0-1.9-.9-1.9-1.9 0-1.1.8-1.9 2-1.9 1.4 0 2.7 1.3 2.7 4.5 0 3.8-2.5 6.1-3.4 6.6-.3.2-.6.2-.8 0l-.5-.4zM294.8 160.6c3.6 0 5.8 1.9 5.8 1.9v-15c0-.3.2-.6.6-.6h.9c.3 0 .6.3.6.6v32c0 .3-.3.6-.6.6h-.5c-.4 0-.6-.2-.7-.6l-.1-1.7c-.6.6-2.9 2.8-6.6 2.8-4.9 0-8.8-4.4-8.8-10 .1-5.6 4-10 9.4-10zm-.4 18.1c4.1 0 6.2-3.2 6.3-3.4v-10.6s-2.2-2-5.6-2c-4.4 0-7.5 3.4-7.5 7.9 0 4.4 2.8 8.1 6.8 8.1zM317.9 160.6c5 0 8.6 3.7 8.6 8.7 0 .8 0 1.9-.7 1.9h-15.1c.2 4.1 3.1 7.5 7.4 7.5 2.5 0 4.5-1 5.6-1.8.4-.3.6-.3.9 0l.5.7c.1.2.1.5-.2.8-.9 1-3.9 2.2-6.9 2.2-5.8 0-9.4-4.5-9.4-10-.1-5.4 3.5-10 9.3-10zm6.5 8.9c0-3.7-2.2-6.9-6.5-6.9-4.2 0-7 3-7.2 6.9h13.7zM338.5 167.9c2.2 0 4.3.7 4.8.9 0-4.2-.4-6.3-4.2-6.3-3.1 0-5.3 1.1-5.7 1.3-.4.1-.6 0-.7-.4l-.2-.6c-.1-.4 0-.6.3-.7.1-.1 2.6-1.4 6.5-1.4 5.8 0 6 3.5 6 8.3v10.5c0 .3-.3.6-.6.6h-.6c-.3 0-.5-.2-.6-.5l-.2-1.7c-1.2 1.1-3.6 2.7-6.6 2.7-3.5 0-6.2-2.4-6.2-6.3.1-3.7 3.1-6.4 8-6.4zm-1.5 10.8c2.9 0 5.4-1.8 6.3-2.9v-5.2c-.6-.3-2.5-1-4.8-1-3.6 0-6 1.9-6 4.7 0 2.7 1.9 4.4 4.5 4.4zM352.4 147.5c0-.3.3-.6.6-.6h.9c.3 0 .6.3.6.6v32c0 .4-.2.6-.6.6h-.9c-.3 0-.5-.3-.5-.6v-32h-.1zM360.6 177.8l.5-.8c.1-.2.5-.3.9 0 .5.4 2.4 1.9 5.1 1.9 2.7 0 4.6-1.5 4.6-3.4 0-2.2-2.1-3.1-5.3-4.3-3.4-1.2-5.8-2.7-5.8-5.6 0-2.1 1.9-4.9 6.2-4.9 2.5 0 4.4.9 5.4 1.5.3.2.4.6.2.9l-.3.5c-.2.3-.6.4-.9.2-.4-.3-2.3-1.3-4.4-1.3-3 0-4.1 1.8-4.1 3 0 1.9 1.7 2.8 4.5 3.8 3.6 1.3 6.7 2.5 6.7 6 0 2.8-2.9 5.3-6.7 5.3-3.2 0-5.2-1.3-6.2-2.1-.4-.2-.6-.5-.4-.7zM396 167.9c2.2 0 4.3.7 4.8.9 0-4.2-.4-6.3-4.2-6.3-3.1 0-5.3 1.1-5.7 1.3-.4.1-.6 0-.7-.4l-.2-.6c-.1-.4 0-.6.3-.7.1-.1 2.6-1.4 6.5-1.4 5.8 0 6 3.5 6 8.3v10.5c0 .3-.3.6-.6.6h-.6c-.3 0-.5-.2-.6-.5l-.2-1.7c-1.2 1.1-3.6 2.7-6.6 2.7-3.5 0-6.2-2.4-6.2-6.3 0-3.7 3-6.4 8-6.4zm-1.5 10.8c2.9 0 5.4-1.8 6.3-2.9v-5.2c-.6-.3-2.5-1-4.8-1-3.6 0-6 1.9-6 4.7 0 2.7 1.9 4.4 4.5 4.4zM409.5 161.7c0-.3.3-.6.6-.6h.9c.3 0 .6.3.6.6v10.2c0 4.4 2 6.6 5.6 6.6 3.9 0 6.1-3.1 6.3-3.3v-13.5c0-.4.2-.6.6-.6h.9c.3 0 .6.3.6.6v17.8c0 .3-.3.6-.6.6h-.6c-.4 0-.5-.3-.6-.6l-.2-1.9c-.5.7-2.8 2.9-6.6 2.9-5.3 0-7.6-3.3-7.6-8.6v-10.2h.1zM448.6 146.7c0-.2.2-.3.4-.3h.5c.2 0 .4.1.5.3l9.8 29.1h.1l9.8-29.1c.1-.2.2-.3.5-.3h.5c.2 0 .4.1.4.3l6.7 32.8c.1.5-.1.6-.5.6h-1.1c-.3 0-.5-.2-.6-.5l-5.4-27.8h-.1l-9.6 28.4c-.1.3-.4.4-.7.4h-.2c-.2 0-.5 0-.6-.4l-9.6-28.4h-.1l-5.4 27.8c0 .3-.3.5-.6.5h-1.1c-.4 0-.6-.1-.5-.6l6.9-32.8zM491.5 160.6c5 0 8.6 3.7 8.6 8.7 0 .8 0 1.9-.7 1.9h-15.1c.2 4.1 3.1 7.5 7.4 7.5 2.5 0 4.5-1 5.6-1.8.4-.3.6-.3.9 0l.5.7c.1.2.1.5-.2.8-.9 1-3.9 2.2-6.9 2.2-5.8 0-9.4-4.5-9.4-10 0-5.4 3.6-10 9.3-10zm6.5 8.9c0-3.7-2.2-6.9-6.5-6.9-4.2 0-7 3-7.2 6.9H498zM505.7 161.7c0-.3.3-.6.6-.6h.6c.3 0 .5.2.6.5l.2 1.9c.5-.7 2.4-2.9 5.9-2.9 1.5 0 2.6.4 2.9.6.4.1.7.5.5.9l-.4 1c-.1.3-.4.4-.8.2-.2-.1-1.2-.6-2.5-.6-3.7 0-5.5 3-5.6 3.3v13.5c0 .4-.2.6-.6.6h-.9c-.3 0-.5-.3-.5-.6v-17.8zM529.5 160.6c3.7 0 6.2 1.9 7 3 .2.3.2.6-.1.9l-.4.5c-.3.3-.7.2-1-.1-.5-.5-2.5-2.2-5.5-2.2-4.3 0-7.8 3.4-7.8 7.9 0 4.6 3.6 8 7.8 8 3.6 0 5.4-2.2 5.9-2.8.3-.4.6-.4.9-.1l.5.5c.2.2.3.5.1.8-.7 1.1-3.5 3.7-7.5 3.7-5.4 0-10-4.2-10-10 .2-5.8 4.8-10.1 10.1-10.1zM542.8 161.7c0-.3.3-.6.6-.6h.6c.3 0 .5.2.6.5l.2 1.9c.5-.7 2.4-2.9 5.9-2.9 1.5 0 2.6.4 2.9.6.4.1.7.5.5.9l-.4 1c-.1.3-.4.4-.8.2-.2-.1-1.2-.6-2.5-.6-3.7 0-5.5 3-5.6 3.3v13.5c0 .4-.2.6-.6.6h-.9c-.3 0-.5-.3-.5-.6v-17.8zM556.4 157c-.2-.2-.1-.5.2-.8.2-.2 2.4-1.6 2.7-4.5 0-.7 0-1.3-.2-1.8-.2.1-.5.2-.8.2-1.2 0-1.9-.9-1.9-1.9 0-1.1.8-1.9 2-1.9 1.4 0 2.7 1.3 2.7 4.5 0 3.8-2.5 6.1-3.4 6.6-.3.2-.6.2-.8 0l-.5-.4zM574.5 160.6c3.6 0 5.8 1.9 5.8 1.9v-15c0-.3.2-.6.6-.6h.9c.3 0 .6.3.6.6v32c0 .3-.3.6-.6.6h-.5c-.4 0-.6-.2-.7-.6l-.1-1.7c-.6.6-2.9 2.8-6.6 2.8-4.9 0-8.8-4.4-8.8-10 .1-5.6 4-10 9.4-10zm-.4 18.1c4.1 0 6.2-3.2 6.3-3.4v-10.6s-2.2-2-5.6-2c-4.4 0-7.5 3.4-7.5 7.9 0 4.4 2.8 8.1 6.8 8.1zM597.6 160.6c5 0 8.6 3.7 8.6 8.7 0 .8 0 1.9-.7 1.9h-15.1c.2 4.1 3.1 7.5 7.4 7.5 2.5 0 4.5-1 5.6-1.8.4-.3.6-.3.9 0l.5.7c.1.2.1.5-.2.8-.9 1-3.9 2.2-6.9 2.2-5.8 0-9.4-4.5-9.4-10-.1-5.4 3.5-10 9.3-10zm6.5 8.9c0-3.7-2.2-6.9-6.5-6.9-4.2 0-7 3-7.2 6.9h13.7zM618.2 167.9c2.2 0 4.3.7 4.8.9 0-4.2-.4-6.3-4.2-6.3-3.1 0-5.3 1.1-5.7 1.3-.4.1-.6 0-.7-.4l-.2-.6c-.1-.4 0-.6.3-.7.1-.1 2.6-1.4 6.5-1.4 5.8 0 6 3.5 6 8.3v10.5c0 .3-.3.6-.6.6h-.6c-.3 0-.5-.2-.6-.5l-.2-1.7c-1.2 1.1-3.6 2.7-6.6 2.7-3.5 0-6.2-2.4-6.2-6.3.1-3.7 3.1-6.4 8-6.4zm-1.5 10.8c2.9 0 5.4-1.8 6.3-2.9v-5.2c-.6-.3-2.5-1-4.8-1-3.6 0-6 1.9-6 4.7 0 2.7 1.9 4.4 4.5 4.4zM632.1 147.5c0-.3.3-.6.6-.6h.9c.3 0 .6.3.6.6v32c0 .4-.2.6-.6.6h-.9c-.3 0-.5-.3-.5-.6v-32h-.1zM640.3 177.8l.5-.8c.1-.2.5-.3.9 0 .5.4 2.4 1.9 5.1 1.9 2.7 0 4.6-1.5 4.6-3.4 0-2.2-2.1-3.1-5.3-4.3-3.4-1.2-5.8-2.7-5.8-5.6 0-2.1 1.9-4.9 6.2-4.9 2.5 0 4.4.9 5.4 1.5.3.2.4.6.2.9l-.3.5c-.2.3-.6.4-.9.2-.4-.3-2.3-1.3-4.4-1.3-3 0-4.1 1.8-4.1 3 0 1.9 1.7 2.8 4.5 3.8 3.6 1.3 6.7 2.5 6.7 6 0 2.8-2.9 5.3-6.7 5.3-3.2 0-5.2-1.3-6.2-2.1-.4-.2-.6-.5-.4-.7zM672.6 176.8c1.1 0 1.9.8 1.9 1.9 0 1-.8 1.9-1.9 1.9-1 0-1.9-.9-1.9-1.9 0-1.1.9-1.9 1.9-1.9zm-.8-10l-.5-13.5v-5.8c0-.5.4-.6.7-.6h1.2c.3 0 .6.3.6.6v5.7l-.4 13.5c0 .3-.3.6-.6.6h-.4c-.3 0-.6-.2-.6-.5z"/></g><g fill="#0055A4"><path d="M0 12.9c0-.5.4-.9.9-.9h1.8c.5 0 .9.4.9.9v28.3h13.3c.5 0 .9.4.9.9v1.3c0 .5-.4.9-.9.9H1c-.5 0-.9-.4-.9-.9V12.9H0zM22.6 12.9c0-.5.4-.9.9-.9h18.1c.5 0 .9.4.9.9v1.3c0 .5-.4.9-.9.9H26.1v11.2h13.2c.5 0 .9.4.9.9v1.3c0 .5-.4.9-.9.9H26.1v11.7h15.5c.5 0 .9.4.9.9v1.3c0 .5-.4.9-.9.9H23.5c-.5 0-.9-.4-.9-.9V12.9zM47.8 39.4c.2-.3.5-.6.7-.9.5-.6 1-1 1.6-.4.3.3 3.7 3.5 7.8 3.5 3.7 0 6.2-2.3 6.2-5.1 0-3.2-2.8-5.1-8.1-7.3-5.1-2.2-8.1-4.3-8.1-9.5 0-3.1 2.5-8.2 9.8-8.2 4.5 0 7.9 2.3 7.9 2.3.3.1.8.7.3 1.6l-.6.9c-.4.6-.9.8-1.6.4-.3-.2-3.2-2.1-6-2.1-4.9 0-6.4 3.1-6.4 5.1 0 3.1 2.3 4.9 6.2 6.5 6.2 2.5 10.2 4.9 10.2 10.2 0 4.8-4.6 8.3-10 8.3S48.6 41.5 48 41c-.3-.3-.8-.7-.2-1.6z"/></g><g transform="translate(1 50)"><mask id="c" fill="#fff"><use xlink:href="#a"/></mask><path d="M-157.4 255.9c57.3 58.3 202.6 9.2 324.5-109.9C289 26.9 341.3-116.7 283.9-175 226.5-233.3 85.3-187.4-36.6-68.3-158.4 50.8-214.7 197.6-157.4 255.9" fill="url(#b)" mask="url(#c)"/></g><g transform="translate(1 50)"><mask id="f" fill="#fff"><use xlink:href="#d"/></mask><path d="M729.7 825.5c116.4-86.7 65.2-354.1-114.8-597.2-180-243.1-420-369.8-536.4-283.1C-37.9 32 8.7 291.4 188.7 534.6s424.6 377.7 541 290.9" fill="url(#e)" mask="url(#f)"/></g><g fill="#C6037B"><path d="M446.2 125.2c-4.7 0-8.3-1-10.9-3.1-1.1-1.1-1.6-4-1.6-8.6 0-4.7.2-10.8.6-18.3-3.7 9.9-7.5 17.3-11.3 22.4-3.8 5.1-8.7 7.6-14.5 7.6-5.8 0-10.8-2.5-14.8-7.6s-6.1-13.2-6.1-24.3c0-11.1 3.1-20.9 9.4-29.4 6.2-8.5 14.4-12.7 24.6-12.7 4.9 0 10.1 1.9 15.4 5.8 2.2-26.7 4.2-41.8 6-45.2.8-1.5 2.8-3.7 5.9-6.6 3.1-2.9 5.7-4.3 7.7-4.3s3.1 3.2 3.1 9.7c0 7.5-.7 14.1-2.1 19.5-3.7 14.1-6 23.1-7 26.9-1.9 14.8-2.9 32.2-2.9 52.2 0 3.7.4 5.6 1.2 5.6 2.5-.1 5.8-3 9.9-8.6 4.1-5.6 8.2-12.9 12.2-21.9 4-9 6.5-13.5 7.4-13.5.9 0 1.3.5 1.3 1.6 0 3.8-2 9.9-6 18.3-10.8 23-20 34.5-27.5 34.5zm-25.9-66.6c-3.7 0-7.4 2.9-11.1 8.8-3.7 5.9-5.6 12.7-5.6 20.5 0 7.7 1 14.1 3 19s4.5 7.4 7.5 7.4c6.2 0 13.2-12.3 21.2-37 .7-7.5 1-12 1-13.4-4-3.5-9.3-5.3-16-5.3z"/><path d="M493.7 125.2c-7.7 0-13.8-2.9-18.3-8.7-4.5-5.8-6.8-12.4-6.8-19.8 0-14.9 3.2-26.2 9.5-33.9 6.3-7.7 14.5-11.5 24.5-11.5 4.7 0 8.5 1.3 11.5 3.8s4.5 6 4.5 10.4c0 8.2-3.5 15.1-10.4 20.7s-15.4 8.5-25.4 8.7c.5 5.3 2.4 10 5.4 13.9 3.1 3.9 6.7 5.9 10.8 5.9 4.1 0 7.8-1 11.1-2.9s6.3-4.7 9-8.2c5.8-7.5 10.7-16.1 14.8-25.7 1.1-2.5 2-4.2 2.6-5.3.6-1.1 1.3-1.6 2.1-1.6s1.1.5 1.1 1.6c0 6.9-4.2 17.1-12.5 30.8-9 14.5-20.2 21.8-33.5 21.8zm-10.9-35.3c8.1-1.4 14-4 17.8-7.8 3.8-3.8 5.7-8.8 5.7-15 0-6.2-2-9.3-6-9.3-4.8 0-8.8 3.3-12.1 10-3.4 6.6-5.1 14-5.4 22.1z"/><path d="M586.6 125.2c-5.3 0-9.4-1.1-12.1-3.3-1-1-1.4-3.4-1.4-7.3s.1-9.1.4-15.7c-3.6 8.9-7.1 15.5-10.6 19.8-3.5 4.3-8 6.5-13.5 6.5s-10.3-2.6-14.4-7.7-6.2-13.2-6.2-24.3c0-11 3.1-20.8 9.4-29.3 6.2-8.5 14.4-12.7 24.6-12.7 4.4 0 9.3 2.9 14.8 8.6 1.1-1.5 3-3.3 5.9-5.4 2.8-2.1 5.2-3.2 7.2-3.2s3 2.6 3 7.8c0 1.4-.4 4-1.1 8-.8 4-1.6 6.9-2.6 8.6-1.2 3.2-1.9 14.3-1.9 33.5 0 3.7.4 5.6 1.2 5.6 2.3-.1 5.6-3 9.7-8.7 4.1-5.7 8.2-13 12.2-21.9 4-8.9 6.5-13.4 7.4-13.4.9 0 1.3.5 1.3 1.6 0 3.8-2 9.9-6 18.3-10.8 23.1-19.9 34.6-27.3 34.6zm-25.1-65.8c-3.8 0-7.9 2.8-12.2 8.5-4.3 5.7-6.5 12.4-6.5 20 0 7.7 1.1 14 3.4 18.9 2.3 4.9 5.2 7.4 8.9 7.4 4.5 0 11.2-11.3 19.9-33.9.1-1.1.3-3 .5-5.7s.4-4.7.5-6.1c-1.2-2.2-3.4-4.3-6.5-6.3-2.9-1.8-5.6-2.8-8-2.8z"/><path d="M622.6 125.2c-3 0-5.8-.4-8.3-1.1-2.5-.8-4.1-1.5-4.6-2.2-1.4-1.6-2.1-10.2-2.1-25.6 0-15.4 1.7-36.4 5.1-62.8C615.6 11.7 622.3.8 632.8.8c2.5 0 4.2 1.3 5.3 4 1.1 2.7 1.6 5.2 1.6 7.7 0 17.8-5.4 37.8-16.2 59.8-.4 11.4-.6 21.3-.6 29.7 0 8.4.8 12.6 2.3 12.6 2.3-.1 5.6-3 9.7-8.7 4.1-5.7 8.2-13 12.2-21.9 4-8.9 6.5-13.4 7.4-13.4.9 0 1.3.5 1.3 1.6 0 3.8-2 9.9-6 18.3-10.7 23.2-19.8 34.7-27.2 34.7zm12.1-110.8c0-4.4-.5-6.6-1.6-6.6-4.1 0-7.1 17.1-9 51.2 7.1-18.7 10.6-33.6 10.6-44.6z"/><path d="M674 61.3l.4-3.1c0-2.5-1.4-3.7-4.2-3.7-2.8 0-5.5 1.8-8.1 5.4-2.6 3.6-3.9 6.6-3.9 8.9 0 2.3.1 4.2.4 5.6.3 1.4.6 2.5.9 3.4.3.9.9 2 1.7 3.2.8 1.2 1.4 2.1 1.9 2.7l2.3 2.9c1 1.4 1.6 2.3 2.1 2.7 7.1-5.9 15.6-12.5 25.5-19.7.5-.4 1.2-.6 1.9-.6 1.4 0 2.1.8 2.1 2.3 0 1.5-.6 2.7-1.8 3.5-8.8 5.6-17.1 11.7-24.9 18.3 3 4.4 4.5 9.2 4.5 14.4 0 5.2-2 9.7-6 13.4-4 3.7-9 5.6-15.2 5.6-6.2 0-9.3-2.9-9.3-8.8 0-4.2 4.5-10.8 13.6-19.5-.7-.8-1.9-2.2-3.7-4-1.8-1.9-3.1-3.3-4-4.4-.9-1.1-2-2.5-3.2-4.3-2.2-3.4-3.3-7.1-3.3-11.1 0-8.1 2.6-14.6 7.8-19.6 5.2-5 10.8-7.5 16.7-7.5 3.7 0 6.6 1 8.6 3 2.1 2 3.1 4 3.1 6.1 0 4.7-1.1 7-3.3 7-1.8-.5-2.6-1-2.6-2.1zm-13.2 40.5c-5.5 5.5-8.2 9.9-8.2 13.3 0 3.4 1.7 5 5.1 5 2.1 0 3.8-.8 5.1-2.5 3.1-4.1 2.4-9.4-2-15.8z"/></g></g></svg>