<?xml version="1.0" encoding="UTF-8" standalone="no"?>
<svg width="100px" height="100px" viewBox="0 0 100 100" version="1.1" xmlns="http://www.w3.org/2000/svg" xmlns:xlink="http://www.w3.org/1999/xlink" xmlns:sketch="http://www.bohemiancoding.com/sketch/ns">
    <!-- Generator: Sketch 3.3.3 (12072) - http://www.bohemiancoding.com/sketch -->
    <title>vente-flash-r</title>
    <desc>Created with Sketch.</desc>
    <defs></defs>
    <g id="Page-1" stroke="none" stroke-width="1" fill="none" fill-rule="evenodd" sketch:type="MSPage">
        <g id="VF" sketch:type="MSLayerGroup">
            <path d="M46.2903226,99.4354839 L48.2258065,98.3064516 C48.9516129,97.9032258 50.1612903,97.9032258 50.9677419,98.3064516 L53.2258065,99.5967742 C53.9516129,100 55.0806452,99.9193548 55.7258065,99.3548387 L57.6612903,97.6612903 C58.3064516,97.0967742 59.516129,96.8548387 60.3225806,97.0967742 L62.7419355,97.9032258 C63.5483871,98.2258065 64.6774194,97.8225806 65.1612903,97.1774194 L66.6935484,95.1612903 C67.1774194,94.4354839 68.3064516,94.0322581 69.1935484,94.1129032 L71.7741935,94.4354839 C72.6612903,94.516129 73.6290323,94.0322581 74.0322581,93.2258065 L75.1612903,90.8870968 C75.5645161,90.0806452 76.5322581,89.4354839 77.4193548,89.3548387 L80,89.1935484 C80.8870968,89.1129032 81.7741935,88.3870968 81.9354839,87.5806452 L82.5806452,85.0806452 C82.7419355,84.516129 83.2258065,83.8709677 83.7903226,83.5483871 L83.8709677,83.4677419 C84.1129032,83.3064516 84.2741935,83.2258065 84.516129,83.2258065 L87.016129,82.5806452 C87.8225806,82.3387097 88.5483871,81.4516129 88.6290323,80.6451613 L88.7903226,78.0645161 C88.8709677,77.1774194 89.516129,76.2096774 90.3225806,75.8064516 L92.6612903,74.6774194 C93.4677419,74.2741935 93.9516129,73.3064516 93.8709677,72.4193548 L93.5483871,69.8387097 C93.4677419,68.9516129 93.8709677,67.8225806 94.5967742,67.3387097 L96.6129032,65.8064516 C97.3387097,65.3225806 97.6612903,64.1935484 97.3387097,63.3870968 L96.4516129,60.9677419 C96.1290323,60.1612903 96.3709677,58.9516129 97.016129,58.3064516 L98.7096774,56.3709677 C99.2741935,55.7258065 99.4354839,54.5967742 98.9516129,53.8709677 L97.6612903,51.6935484 C97.2580645,50.9677419 97.2580645,49.7580645 97.6612903,48.9516129 L98.9516129,46.7741935 C99.3548387,46.0483871 99.2741935,44.9193548 98.7096774,44.2741935 L97.016129,42.3387097 C96.4516129,41.6935484 96.2096774,40.483871 96.4516129,39.6774194 L97.3387097,37.2580645 C97.6612903,36.4516129 97.2580645,35.3225806 96.6129032,34.8387097 L94.5967742,33.3064516 C93.8709677,32.8225806 93.4677419,31.6935484 93.5483871,30.8064516 L93.8709677,28.2258065 C93.9516129,27.3387097 93.4677419,26.3709677 92.6612903,25.9677419 L90.3225806,24.8387097 C89.516129,24.4354839 88.8709677,23.4677419 88.7903226,22.5806452 L88.6290323,20 C88.5483871,19.1129032 87.8225806,18.2258065 87.016129,18.0645161 L84.516129,17.4193548 C83.7096774,17.1774194 82.8225806,16.3709677 82.5806452,15.483871 L81.9354839,12.983871 C81.6935484,12.1774194 80.8064516,11.4516129 80,11.3709677 L77.4193548,11.2096774 C76.5322581,11.1290323 75.5645161,10.483871 75.1612903,9.67741935 L74.0322581,7.33870968 C73.6290323,6.53225806 72.6612903,6.0483871 71.7741935,6.12903226 L69.1935484,6.4516129 C68.3064516,6.53225806 67.1774194,6.12903226 66.6935484,5.40322581 L65.1612903,3.38709677 C64.6774194,2.66129032 63.5483871,2.33870968 62.7419355,2.66129032 L60.3225806,3.5483871 C59.516129,3.87096774 58.3064516,3.62903226 57.6612903,2.98387097 L55.7258065,1.29032258 C55.0806452,0.725806452 53.9516129,0.564516129 53.2258065,1.0483871 L52.3387097,1.53225806 L52.2580645,1.53225806 L50.9677419,2.25806452 C50.2419355,2.66129032 49.0322581,2.66129032 48.2258065,2.25806452 L46.0483871,0.967741935 C45.3225806,0.564516129 44.1935484,0.64516129 43.5483871,1.20967742 L41.6129032,2.90322581 C40.9677419,3.46774194 39.7580645,3.70967742 38.9516129,3.46774194 L36.5322581,2.58064516 C35.7258065,2.25806452 34.5967742,2.66129032 34.1129032,3.30645161 L32.5806452,5.32258065 C32.0967742,6.0483871 30.9677419,6.4516129 30.0806452,6.37096774 L27.5,6.0483871 C26.6129032,5.96774194 25.6451613,6.4516129 25.2419355,7.25806452 L24.1129032,9.59677419 C23.7096774,10.4032258 22.7419355,11.0483871 21.8548387,11.1290323 L19.2741935,11.2903226 C18.3870968,11.3709677 17.5,12.0967742 17.3387097,12.9032258 L16.6935484,15.4032258 C16.4516129,16.2096774 15.6451613,17.0967742 14.7580645,17.3387097 L12.2580645,17.983871 C11.4516129,18.2258065 10.7258065,19.1129032 10.6451613,19.9193548 L10.483871,22.5 C10.4032258,23.3870968 9.75806452,24.3548387 8.9516129,24.7580645 L6.61290323,25.8870968 C5.80645161,26.2903226 5.32258065,27.2580645 5.40322581,28.1451613 L5.72580645,30.7258065 C5.80645161,31.6129032 5.40322581,32.7419355 4.67741935,33.2258065 L2.66129032,34.7580645 C1.93548387,35.2419355 1.61290323,36.3709677 1.93548387,37.1774194 L2.82258065,39.5967742 C3.14516129,40.4032258 2.90322581,41.6129032 2.25806452,42.2580645 L0.564516129,44.1935484 C1.88876692e-14,44.8387097 -0.161290323,45.9677419 0.322580645,46.6935484 L1.61290323,48.9516129 C2.01612903,49.6774194 2.01612903,50.8870968 1.61290323,51.6935484 L0.322580645,53.8709677 C-0.0806451613,54.5967742 1.88876692e-14,55.7258065 0.564516129,56.3709677 L2.25806452,58.3064516 C2.82258065,58.9516129 3.06451613,60.1612903 2.82258065,60.9677419 L1.93548387,63.3870968 C1.61290323,64.1935484 2.01612903,65.3225806 2.66129032,65.8064516 L4.67741935,67.3387097 C5.40322581,67.8225806 5.80645161,68.9516129 5.72580645,69.8387097 L5.40322581,72.4193548 C5.32258065,73.3064516 5.80645161,74.2741935 6.61290323,74.6774194 L8.9516129,75.8064516 C9.75806452,76.2096774 10.4032258,77.1774194 10.483871,78.0645161 L10.6451613,80.6451613 C10.7258065,81.5322581 11.4516129,82.4193548 12.2580645,82.5806452 L14.7580645,83.2258065 C15.5645161,83.4677419 16.4516129,84.2741935 16.6935484,85.1612903 L17.3387097,87.6612903 C17.5806452,88.4677419 18.4677419,89.1935484 19.2741935,89.2741935 L21.8548387,89.4354839 C22.7419355,89.516129 23.7096774,90.1612903 24.1129032,90.9677419 L25.2419355,93.3064516 C25.6451613,94.1129032 26.6129032,94.5967742 27.5,94.516129 L30.0806452,94.1935484 C30.9677419,94.1129032 32.0967742,94.516129 32.5806452,95.2419355 L34.1129032,97.2580645 C34.5967742,97.983871 35.7258065,98.3064516 36.5322581,97.983871 L38.9516129,97.1774194 C39.1129032,97.0967742 39.3548387,97.0967742 39.5967742,97.0967742 L39.6774194,97.0967742 C40.4032258,97.0967742 41.2096774,97.3387097 41.6935484,97.7419355 L43.6290323,99.4354839 C44.2741935,100 45.4032258,100.16129 46.1290323,99.6774194 L46.2903226,99.4354839 L46.2903226,99.4354839 Z M29.3548387,88.2258065 C27.1774194,87.016129 25.0806452,85.7258065 23.1451613,84.1935484 L23.1451613,84.1935484 C21.7741935,83.1451613 20.483871,82.016129 19.2741935,80.8064516 C18.6290323,80.1612903 17.983871,79.4354839 17.3387097,78.7096774 L17.016129,78.3870968 C14.1129032,75 11.7741935,71.2903226 10.0806452,67.1774194 C9.19354839,65.0806452 8.46774194,62.983871 7.98387097,60.8064516 L7.98387097,60.6451613 C7.17741935,57.3387097 6.77419355,53.9516129 6.77419355,50.483871 C6.77419355,49.516129 6.77419355,48.4677419 6.85483871,47.5 L6.85483871,47.4193548 C7.09677419,44.5967742 7.58064516,41.7741935 8.30645161,39.0322581 L8.30645161,38.9516129 C8.79032258,37.2580645 9.35483871,35.483871 10.0806452,33.8709677 C12.2580645,28.7903226 15.3225806,24.1935484 19.2741935,20.2419355 C23.2258065,16.2903226 27.8225806,13.2258065 32.9032258,11.0483871 C38.1451613,8.79032258 43.7903226,7.66129032 49.5967742,7.66129032 C55.4032258,7.66129032 60.9677419,8.79032258 66.2903226,11.0483871 C71.0483871,13.0645161 75.3225806,15.8870968 79.1129032,19.4354839 L79.4354839,19.7580645 C79.5967742,19.9193548 79.7580645,20.0806452 79.9193548,20.2419355 C83.8709677,24.1935484 86.9354839,28.7903226 89.1129032,33.8709677 C91.3709677,39.1935484 92.5,44.7580645 92.5,50.5645161 C92.5,56.3709677 91.3709677,61.9354839 89.1129032,67.2580645 C87.4193548,71.2903226 85.0806452,75.0806452 82.2580645,78.3870968 L82.1774194,78.4677419 C81.4516129,79.2741935 80.7258065,80.0806452 80,80.8870968 C79.9193548,80.9677419 79.9193548,80.9677419 79.8387097,81.0483871 L79.6774194,81.2096774 C75.8064516,85 71.3709677,87.983871 66.3709677,90.0806452 C61.0483871,92.3387097 55.483871,93.4677419 49.6774194,93.4677419 C43.8709677,93.4677419 38.3064516,92.3387097 32.983871,90.0806452 C32.4193548,89.8387097 31.9354839,89.5967742 31.3709677,89.3548387 L29.3548387,88.2258065 Z" id="Shape" fill="#F64B7F" sketch:type="MSShapeGroup"></path>
            <circle id="Oval" fill="#F64B7F" sketch:type="MSShapeGroup" cx="49.516129" cy="50.4032258" r="41.3709677"></circle>
            <g id="Group" transform="translate(16.935484, 29.838710)" font-weight="normal" font-size="20.0512903" font-family="Helvetica" fill="#FFFFFF" sketch:type="MSTextLayer">
                <g transform="translate(0.508065, 0.059758)">
                    <text id="VE">
                        <tspan x="0" y="19">VE</tspan>
                    </text>
                    <text id="N">
                        <tspan x="25.8870968" y="19">N</tspan>
                    </text>
                    <text id="T">
                        <tspan x="40.1612903" y="19">T</tspan>
                    </text>
                    <text id="E">
                        <tspan x="52.1774194" y="19">E</tspan>
                    </text>
                    <text id="F">
                        <tspan x="0.403225806" y="36.7419355">F</tspan>
                    </text>
                    <text id="L">
                        <tspan x="12.0967742" y="36.7419355">L</tspan>
                    </text>
                    <text id="AS">
                        <tspan x="23.2258065" y="36.7419355">AS</tspan>
                    </text>
                    <text id="H">
                        <tspan x="48.2258065" y="36.7419355">H</tspan>
                    </text>
                </g>
            </g>
        </g>
    </g>
</svg>