<?xml version="1.0" encoding="UTF-8" standalone="no"?><svg width="822" height="13152" viewBox="0 0 822 13152" xmlns="https://www.w3.org/2000/svg" xmlns:xlink="https://www.w3.org/1999/xlink"><svg height="822" viewBox="1.001 1 821.99999 822.00004" width="822" id="hd1"><radialGradient id="aa" gradientUnits="userSpaceOnUse" cy="55.502" cx="150.55" gradientTransform="translate(99.19 260.76)" r="458.43"><stop stop-color="#0078B4" offset="0"/><stop stop-color="#003250" offset="1"/></radialGradient><path fill="url(#aa)" d="M436.28 371.12h-21.342v81.728h21.342c22.766 0 41.227-18.297 41.227-40.873 0-22.565-18.46-40.855-41.227-40.855zm135.31-109.36v68.927c-26.974-41.416-73.917-68.852-127.35-68.852h-26.675v-.075h-120.13v106.08H209.52V262.02H100.2v300.2h109.32V455.57h87.915v106.65h.637v.014h146.17c83.673 0 151.5-67.242 151.5-150.2 0-16.642-2.733-32.65-7.78-47.608h26.527v197.79h109.33v-300.46H571.59zM435.78 475.24h-40.23V348.83h40.23c34.25 0 62.023 29.247 62.023 63.204 0 33.964-27.772 63.206-62.023 63.206z"/><path fill="#00233c" d="M497.8 412.04c0 16.885-6.873 32.608-17.99 44.144 12.247-11.684 19.92-28.22 19.92-46.064 0-33.95-27.77-63.2-62.023-63.2h-44.095v3.833l1.933-1.916h40.23c34.252 0 62.025 29.246 62.025 63.203zm-82.862-40.914v81.728h21.342c11.876 0 22.57-4.992 30.095-12.963-7.372 6.85-17.267 11.044-28.16 11.044h-21.34v-77.907l-1.937-1.9zm201.48 189.18v-197.79h-29.092l.634 1.912h26.526v197.79h109.33l-1.93-1.918h-105.46zm-44.83-229.61l1.934 2.728V263.68l-1.934-1.91v68.926zm-272.22-67.015l-1.937-1.91v106.08l-1.928 1.915h3.865v-106.08zm.634 296.64v-.007h-.634v-106.65h-91.78v3.842l1.928-1.918h87.916v106.65h.637v.014h146.17c42.327 0 80.593-17.208 108.09-44.966-27.342 26.62-64.81 43.043-106.16 43.043H300zm-197.88-296.37l-1.93-1.922v300.2h109.32l-1.928-1.918h-105.47V263.95z"/><path fill="#69aad7" d="M395.54 475.24V348.83l-1.933 1.916v126.41h40.232c17.215 0 32.795-7.395 44.032-19.055-11.063 10.556-25.85 17.14-42.102 17.14h-40.23zm81.962-63.265c0-22.564-18.46-40.854-41.227-40.854h-21.342l1.936 1.902h17.476c22.766 0 41.225 18.3 41.225 40.87 0 10.798-4.233 20.608-11.132 27.915 8.036-7.45 13.064-18.062 13.064-29.832zm92.15-84.15c-27.247-39.804-73.23-65.99-125.42-65.99h-26.676v-.074h-120.13l1.936 1.913h116.26v.08h26.67c53.44 0 100.32 26.16 129.29 66.935l-1.932-2.864zm1.932-66.064l1.934 1.913h148.36v296.66l1.93 1.883v-300.46h-152.23zm16.372 102.66c5.046 14.958 5.84 32.89 5.84 49.52 0 40.995-16.56 78.14-43.41 105.24 27.984-27.255 45.35-65.185 45.35-107.15 0-15.932-2.517-31.28-7.16-45.69l-.62-1.92zM207.586 560.3l1.928 1.92V455.57l-1.928 1.917v102.81zm1.927-298.29h-109.32l1.93 1.924h105.46v105.82H295.5l1.928-1.916h-87.916v-105.82z"/></svg><svg id="hd1-grey" viewBox="6 -275 822 822" width="822" height="822" y="822"><style>.bst0{fill:#ccc}</style><path class="bst0" d="M441.3 95.1H420v81.7h21.3c22.8 0 41.2-18.3 41.2-40.9 0-22.5-18.5-40.8-41.2-40.8zM576.6-14.2v68.9c-27-41.4-73.9-68.9-127.4-68.9h-26.7v-.1H302.4V91.8h-87.9V-14H105.2v300.2h109.3V179.6h87.9v106.6H449.2c83.7 0 151.5-67.2 151.5-150.2 0-16.6-2.7-32.7-7.8-47.6h26.5v197.8h109.3V-14.2H576.6zM440.8 199.2h-40.2V72.8h40.2c34.3 0 62 29.2 62 63.2s-27.8 63.2-62 63.2z"/></svg><svg height="822" viewBox="0 0 822.00004 822.00002" width="822" id="hd1-white" y="1644"><path fill="#fff" d="M435.28 370.12h-21.343v81.728h21.343c22.766 0 41.227-18.297 41.227-40.873 0-22.565-18.46-40.855-41.227-40.855zm135.31-109.36v68.928c-26.974-41.417-73.917-68.853-127.35-68.853h-26.676v-.075h-120.13v106.08H208.52V261.02H99.2v300.2h109.32V454.57h87.915v106.65h.637v.015h146.17c83.673 0 151.5-67.242 151.5-150.2 0-16.643-2.733-32.65-7.78-47.608h26.527v197.79h109.33v-300.46H570.59zM434.78 474.24h-40.23V347.83h40.23c34.25 0 62.022 29.247 62.022 63.204.002 33.964-27.77 63.206-62.022 63.206z"/></svg><svg id="nt1" viewBox="105 -15 822 822" width="822" height="822" y="2466"><style>.dst0{fill:url(#dpath4059_1_)}.dst1{fill:none}.dst2{fill:url(#dpath4527_1_)}.dst3{fill:url(#dpolygon4534_1_)}.dst4{fill:url(#dpolygon4541_1_)}.dst5{fill:url(#dpolygon4548_1_)}.dst6{fill:url(#dpath4571_1_)}.dst7{opacity:.35;fill:url(#dpath4580_1_);enable-background:new}.dst8{fill:#ffd500}.dst9{fill:url(#dpath4595_1_)}.dst10{fill:url(#dpath4604_1_)}.dst11{fill:#2e2e33}.dst12{fill:url(#dpolygon4613_1_)}.dst13{fill:url(#dpath4620_1_)}.dst14{fill:#4b4b51}</style><linearGradient id="dpath4059_1_" gradientUnits="userSpaceOnUse" x1="147.029" y1="650.996" x2="406.112" y2="650.996" gradientTransform="matrix(1.667 0 0 -1.667 20.932 1481.086)"><stop offset="0" stop-color="#FFD500"/><stop offset=".498" stop-color="#F8C900"/><stop offset=".571" stop-color="#F2C200"/><stop offset=".676" stop-color="#E1AF00"/><stop offset=".8" stop-color="#C69100"/><stop offset=".937" stop-color="#A06600"/><stop offset="1" stop-color="#8C5000"/></linearGradient><path id="dpath4059" class="dst0" d="M697.8 396c0-137.6-81.8-249.2-182.6-249.2C377.6 146.8 266 258.4 266 396s111.6 249.2 249.2 249.2c100.9 0 182.6-111.6 182.6-249.2z"/><g id="dg4516" transform="matrix(1.667 0 0 1.667 160.96 160.98)"><g id="dg4518"><path id="dpath4520" class="dst1" d="M165.4 167.5c1-.2 1.5-.3 1.1-2.8l-2.7-15.1-7.5 1.3 7.9 14.8c.5 1 .9 1.6 1.2 1.8z"/><linearGradient id="dpath4527_1_" gradientUnits="userSpaceOnUse" x1="87.237" y1="325.475" x2="-39.919" y2="167.396" gradientTransform="matrix(1.667 0 0 -1.667 76.95 631.02)"><stop offset=".006" stop-color="#202025"/><stop offset="1" stop-color="#494951"/></linearGradient><path id="dpath4527" class="dst2" d="M166.4 164.5c.4 2.5 0 2.6-1.1 2.8-.2-.3-.6-.8-1.1-1.7l-7.9-14.8-21.9 3.9 12.1 22.9c2.2 4.2 5.5 7.2 9.7 9.1 4.1 1.8 8.5 2.3 13 1.5 3.1-.6 6-1.6 8.5-3.1 2.6-1.5 4.8-3.4 6.5-5.7 1.8-2.3 3-5 3.7-7.9.7-2.9.8-6.1.2-9.3l-2.9-16.5-21.5 3.8 2.7 15z"/><linearGradient id="dpolygon4534_1_" gradientUnits="userSpaceOnUse" x1="75.146" y1="335.294" x2="-52.084" y2="177.126" gradientTransform="matrix(1.667 0 0 -1.667 76.95 631.02)"><stop offset=".006" stop-color="#202025"/><stop offset="1" stop-color="#494951"/></linearGradient><path id="dpolygon4534" class="dst3" d="M110.4 197.9l21.5-3.8-6.7-37.9-21.4 3.8z"/><linearGradient id="dpolygon4541_1_" gradientUnits="userSpaceOnUse" x1="108.576" y1="308.293" x2="-18.656" y2="150.113" gradientTransform="matrix(1.667 0 0 -1.667 76.95 631.02)"><stop offset=".006" stop-color="#202025"/><stop offset="1" stop-color="#494951"/></linearGradient><path id="dpolygon4541" class="dst4" d="M218 178.8l20.7-3.6-6.7-37.9-20.6 3.7z"/><linearGradient id="dpolygon4548_1_" gradientUnits="userSpaceOnUse" x1="126.785" y1="293.582" x2="-.444" y2="135.402" gradientTransform="matrix(1.667 0 0 -1.667 76.95 631.02)"><stop offset=".006" stop-color="#202025"/><stop offset="1" stop-color="#494951"/></linearGradient><path id="dpolygon4548" class="dst5" d="M269.7 130.6l6.7 37.9 20.7-3.6-6.7-37.9z"/><linearGradient id="dpath4571_1_" gradientUnits="userSpaceOnUse" x1="-14.825" y1="322.698" x2="279.755" y2="374.644" gradientTransform="matrix(1.667 0 0 -1.667 76.95 631.02)"><stop offset="0" stop-color="#FFE358"/><stop offset=".08" stop-color="#FEE04B"/><stop offset=".415" stop-color="#FAD318"/><stop offset=".51" stop-color="#F7D018"/><stop offset=".588" stop-color="#EEC516"/><stop offset=".661" stop-color="#DFB414"/><stop offset=".731" stop-color="#CA9C10"/><stop offset=".798" stop-color="#AF7D0C"/><stop offset=".862" stop-color="#8E5707"/><stop offset=".879" stop-color="#844B05"/></linearGradient><path id="dpath4571" class="dst6" d="M263.8 110.6c-2.1-1.1-4.6-1.4-7.5-.9l-3.9.7-3.6-20.7 3.9-.7c3.6-.6 7.3-.7 11.1-.1s7.4 1.8 10.7 3.8c3.3 1.9 6.1 4.6 8.5 7.8 2.4 3.3 4.1 7.3 4.9 12l2.6 14.7 69.4-12.3C347.5 44.5 286.3-9 212.5-9 130-9 63 58.2 63 141c0 8.9.8 17.6 2.3 26l38.5-6.8-3.8-21.8c-.6-3.3-.5-6.4.2-9.3.7-2.9 2-5.6 3.7-7.9 1.7-2.3 3.9-4.2 6.5-5.7 2.5-1.5 5.4-2.5 8.5-3.1 4.5-.8 8.9-.3 13 1.6 4.1 1.9 7.4 4.9 9.6 9l14.9 27.9 7.5-1.3-7.6-43.5 21.5-3.8 7.6 43.5 26.1-4.6-4-22.8-18.1 3.2-3.6-20.7 55.8-9.9 3.6 20.7-17 3 4 22.8 37.7-6.7-2.6-14.9c-.7-2.6-1.7-4.3-3.5-5.3z"/><radialGradient id="dpath4580_1_" cx="-15.847" cy="278.151" r="387.58" gradientTransform="matrix(1.536 0 0 -1.54 93.44 595.68)" gradientUnits="userSpaceOnUse"><stop offset="0" stop-color="#FFF"/><stop offset=".068" stop-color="#FFF" stop-opacity=".931"/><stop offset=".982" stop-color="#FFF" stop-opacity="0"/></radialGradient><path id="dpath4580" class="dst7" d="M122.7 133.3c-1 .2-1.5.3-1.1 2.8l3.6 20.4 9.1-1.6-10.5-19.9c-.4-1-.8-1.5-1.1-1.7z"/></g><path id="dpath4582" class="dst8" d="M354.9 141c0 82.8-64.3 150-143.5 150 58.1 0 105.2-67.1 105.2-150 0-82.8-47.1-150-105.2-150 79.2 0 143.5 67.2 143.5 150z"/><g id="dg4584"><linearGradient id="dpath4595_1_" gradientUnits="userSpaceOnUse" x1="126.77" y1="197.413" x2="126.77" y2="522.813" gradientTransform="matrix(1.536 0 0 -1.536 93.442 594.294)"><stop offset="0" stop-color="#1D1E1E"/><stop offset=".288" stop-color="#121313"/><stop offset=".629" stop-color="#4B4C4D"/><stop offset=".994" stop-color="#000D0A"/></linearGradient><path id="dpath4595" class="dst9" d="M363 141c0 82.8-66.9 150-149.5 150C274 291 323 223.8 323 141S274-9 213.5-9C296-9 363 58.2 363 141z"/></g><linearGradient id="dpath4604_1_" gradientUnits="userSpaceOnUse" x1="130.938" y1="375.877" x2="130.938" y2="271.288" gradientTransform="matrix(1.667 0 0 -1.667 76.95 631.02)"><stop offset="0" stop-color="#ABABAC"/><stop offset=".732" stop-color="#414444"/><stop offset="1" stop-color="#4B4C4D"/></linearGradient><path id="dpath4604" class="dst10" d="M262.9 4.5c30.1 20.3 52.6 58.6 59.9 104.6 3.1-8 4.7-16.4 4.7-25.1 0-35-26.4-65.3-64.6-79.5z"/><path id="dpath4606" class="dst11" d="M287.8 112.5c-.8-4.6-2.5-8.7-4.9-12-2.4-3.2-5.2-5.9-8.5-7.8-3.3-1.9-6.8-3.2-10.7-3.8-3.7-.6-7.5-.5-11.1.1l-3.9.7 3.6 20.7 3.9-.7c2.9-.5 5.3-.2 7.5.9 1.8.9 2.8 2.6 3.3 5.4l2.6 14.9 20.7-3.7-2.5-14.7z"/><linearGradient id="dpolygon4613_1_" gradientUnits="userSpaceOnUse" x1="60.175" y1="311.137" x2="124.46" y2="311.137" gradientTransform="matrix(1.54 0 0 -1.54 92.894 595.584)"><stop offset="0" stop-color="#424247"/><stop offset=".982" stop-color="#2E2E33"/></linearGradient><path id="dpolygon4613" class="dst12" d="M245.1 111.8l-3.7-20.7-55.8 9.8 3.7 20.7 18.1-3.2 4 22.8 20.6-3.6-4-22.8z"/><linearGradient id="dpath4620_1_" gradientUnits="userSpaceOnUse" x1="4.33" y1="298.131" x2="65.71" y2="298.131" gradientTransform="matrix(1.54 0 0 -1.54 92.894 595.584)"><stop offset="0" stop-color="#6F6F74"/><stop offset=".982" stop-color="#57575D"/></linearGradient><path id="dpath4620" class="dst13" d="M141.4 123.1c-2.2-4.1-5.4-7.1-9.6-9-4.1-1.9-8.5-2.4-13-1.6-3.1.5-6 1.6-8.5 3.1-2.6 1.5-4.8 3.4-6.5 5.7-1.8 2.3-3 5-3.7 7.9-.7 2.9-.8 6.1-.2 9.3l3.8 21.8 21.5-3.8-3.6-20.4c-.4-2.5 0-2.6 1.1-2.8.2.3.6.8 1.1 1.7l10.5 19.8 21.9-3.9-14.8-27.8z"/><path id="drect4622" class="dst14" d="M163.8 149.6l-7.7-43.5 21.5-3.8 7.6 43.5z"/></g></svg><svg id="nt1-grey" viewBox="-55 -168 822 822" width="822" height="822" y="3288"><style>.est0{fill:#ccc}</style><g id="eg5112" transform="translate(160.96 154.61) scale(1.713)"><g id="eg5114"><g id="eg5116"><path id="epath5133" class="est0" d="M117.4 201.4c1.7 0 3.4-.1 5-.2-1.9.1-3.8.1-5.8.2h.8z"/><path id="epath5150" class="est0" d="M117.4-97.7h-.6c1.5 0 3 0 4.5.1-1.3 0-2.6-.1-3.9-.1z"/><path id="epath5152" class="est0" d="M116.3 201.4h.4-.4z"/><path id="epath5154" class="est0" d="M116.3-97.7h.5-.5z"/></g><path id="epath5156" class="est0" d="M259.8 51.8c0-79.5-59.6-144.5-134.7-149.2 57.4 4.7 102.8 69.7 102.8 149.2S182.4 196.3 125.1 201c75.1-4.7 134.7-69.7 134.7-149.2z"/></g><path id="epath5158" class="est0" d="M116.8-98.3C34.5-98-32.1-31.2-32.1 51.2c0 82.3 66.5 149.1 148.8 149.5 57.9-.3 104.7-67.1 104.7-149.5 0-82.3-46.7-149.1-104.6-149.5zM92.9 82.2c-.7 2.9-2 5.6-3.7 7.9-1.7 2.2-3.9 4.2-6.5 5.7-2.5 1.5-5.4 2.5-8.5 3.1-4.5.8-8.9.3-13-1.5-4.2-1.8-7.5-4.9-9.7-9.1l-12-22.6h-.1L28.9 45.9c-.5-1-.9-1.5-1.1-1.7-1 .2-1.5.3-1.1 2.8l3.5 20.1 6.7 37.8-21.5 3.8-6.6-37.5L5 49.5c-.6-3.3-.5-6.4.2-9.3.7-2.9 2-5.6 3.7-7.9s3.9-4.2 6.5-5.7c2.5-1.5 5.4-2.5 8.5-3.1 4.5-.8 8.9-.3 13 1.6 4.1 1.9 7.4 4.9 9.6 9l14.7 27.5h.1l7.9 14.8c.5 1 .9 1.5 1.1 1.7 1-.2 1.5-.3 1.1-2.8l-2.6-14.8-7.6-43.4 21.5-3.8 7.6 43.1 2.9 16.5c.4 3.2.4 6.3-.3 9.3zm44-34.7l6.7 37.7-20.7 3.6-6.6-37.5-4-22.7-18.1 3.2-3.6-20.7 55.8-9.8L150 22l-17 3 3.9 22.5zm37.8-5.7L172 27c-.5-2.7-1.5-4.4-3.3-5.4-2.1-1.1-4.6-1.4-7.5-.9l-3.9.7L153.7.7l3.9-.7c3.6-.6 7.3-.7 11.1-.1s7.4 1.8 10.7 3.8c3.3 1.9 6.1 4.6 8.5 7.8 2.4 3.3 4.1 7.3 4.9 11.9l2.5 14.5 6.7 37.8-20.6 3.6-6.7-37.5z"/></g></svg><svg viewBox="0 0 822.00001 822.00001" height="822" width="822" id="nt1-white" y="4110"><defs transform="translate(160.96 154.61) scale(1.713)"><path id="fa" d="M4262.1 4396.4h-.824H4262.085c1.176 0 2.344.025 3.512.074 1.375.047 2.748.113 4.113.2-1.475-.124-2.966-.206-4.455-.247-1.05-.02-2.096-.03-3.155-.03"/></defs><defs transform="translate(160.96 154.61) scale(1.713)"><path id="fb" d="M4262.1 4396.4h-.314c1.277.01 2.557.033 3.826.074-1.17-.048-2.338-.074-3.512-.074"/></defs><defs transform="translate(160.96 154.61) scale(1.713)"><path id="fc" d="M4250 4396.9c-7.11.566-14.087 1.635-20.88 3.166 6.426-1.447 13-2.48 19.714-3.066.387-.036.778-.07 1.166-.1"/></defs><defs transform="translate(160.96 154.61) scale(1.713)"><path id="fd" d="M4261.2 4396.4c-3.77.02-7.496.182-11.193.48-.39.03-.777.063-1.166.1 4.192-.368 8.44-.564 12.722-.577h-.362"/></defs><defs transform="translate(160.96 154.61) scale(1.713)"><path id="fe" d="M4138.6 4461.8c-6.548 9.62-12 20.045-16.178 31.098 4.17-10.997 9.61-21.43 16.178-31.098m110.29-64.824c-6.713.588-13.288 1.62-19.715 3.064-9.217 2.074-18.108 5.002-26.592 8.695 10.54-4.568 21.778-7.986 33.59-10.068 4.254-.75 8.494-1.313 12.717-1.69"/></defs><defs transform="translate(160.96 154.61) scale(1.713)"><path id="ff" d="M4172.4 4538c-1.023.184-1.48.326-1.05 2.77l3.574 20.272 9.106-1.605-10.504-19.727c-.495-.953-.892-1.46-1.126-1.71m89.183-141.61c-4.283.014-8.527.21-12.72.576-4.226.38-8.466.94-12.718 1.69-11.813 2.08-23.05 5.5-33.59 10.067-26.02 11.326-48.188 29.855-63.98 53.064-6.567 9.668-12.012 20.104-16.18 31.098-6.204 16.412-9.602 34.207-9.602 52.79 0 8.843.773 17.847 2.25 26.27l38.44-6.778-3.82-22.014c-.575-3.252-.505-6.377.204-9.283.707-2.91 1.965-5.55 3.738-7.842 1.734-2.248 3.92-4.152 6.49-5.664 2.54-1.494 5.398-2.527 8.493-3.074 1.345-.236 2.677-.354 3.99-.354 3.097 0 6.1.654 8.962 1.963 4.144 1.894 7.354 4.9 9.545 8.95l14.85 28.066 7.44-1.314-7.632-43.625 21.438-3.775 7.632 43.623 26.08-4.602-3.996-23.004-18.063 3.185-3.635-20.617 55.695-9.822 3.637 20.62-17.016 3 3.997 23.005 37.672-6.642-2.61-15.135c-.478-2.734-1.534-4.434-3.312-5.346-1.453-.746-3.048-1.115-4.824-1.115-.836 0-1.71.082-2.63.244l-3.903.69-3.637-20.62 3.9-.69c1.916-.34 3.87-.51 5.844-.51 1.723 0 3.46.132 5.2.392 3.827.566 7.41 1.828 10.655 3.75 3.268 1.93 6.12 4.545 8.488 7.768 2.41 3.28 4.043 7.29 4.857 11.918l2.59 15.018 25.322-4.465c-6.265-73.58-50.18-130.98-103.54-131.46"/></defs><defs transform="translate(160.96 154.61) scale(1.713)"><path id="fg" d="M4263 4396.4c60.412 0 109.39 66.836 109.39 149.29 0 19.742-2.808 38.584-7.906 55.832-16.19 54.754-55.48 93.408-101.39 93.46h-.088c82.45 0 149.29-66.843 149.29-149.29 0-81.126-64.7-147.13-145.31-149.24-1.32-.034-2.653-.052-3.98-.052"/></defs><defs transform="translate(160.96 154.61) scale(1.713)"><path id="fh" d="M3606.1 4520.4h-.824H3606.085c1.176 0 2.344.025 3.51.074 1.377.047 2.75.113 4.115.2-1.475-.124-2.966-.206-4.455-.247-1.05-.02-2.096-.03-3.155-.03"/></defs><defs transform="translate(160.96 154.61) scale(1.713)"><path id="fi" d="M3606.1 4520.4h-.314c1.277.01 2.557.033 3.825.074-1.167-.048-2.334-.074-3.51-.074"/></defs><defs transform="translate(160.96 154.61) scale(1.713)"><path id="fj" d="M3594 4520.9c-7.11.566-14.087 1.635-20.88 3.166 6.426-1.447 13-2.48 19.714-3.066.386-.036.777-.07 1.166-.1"/></defs><defs transform="translate(160.96 154.61) scale(1.713)"><path id="fk" d="M3605.2 4520.4c-3.77.02-7.495.182-11.193.48-.39.03-.777.063-1.166.1 4.192-.368 8.44-.564 12.722-.577h-.362"/></defs><defs transform="translate(160.96 154.61) scale(1.713)"><path id="fl" d="M3482.6 4585.8c-6.548 9.62-12 20.045-16.178 31.098 4.167-10.997 9.608-21.43 16.178-31.098m110.29-64.824c-6.713.588-13.288 1.62-19.715 3.064-9.217 2.074-18.108 5.002-26.592 8.695 10.54-4.568 21.777-7.986 33.59-10.068 4.252-.75 8.493-1.313 12.717-1.69"/></defs><defs transform="translate(160.96 154.61) scale(1.713)"><path id="fm" d="M3516.4 4662c-1.023.184-1.48.326-1.05 2.77l3.573 20.272 9.107-1.605-10.504-19.727c-.493-.953-.892-1.46-1.126-1.71m89.183-141.61c-4.283.014-8.527.21-12.72.576-4.226.38-8.466.94-12.718 1.69-11.813 2.08-23.05 5.5-33.59 10.067-26.02 11.326-48.188 29.855-63.98 53.064-6.568 9.668-12.012 20.104-16.18 31.098-6.204 16.412-9.603 34.207-9.603 52.79 0 8.843.774 17.847 2.25 26.27l38.442-6.778-3.82-22.014c-.576-3.252-.506-6.377.203-9.283.707-2.91 1.965-5.55 3.738-7.842 1.733-2.248 3.92-4.152 6.49-5.664 2.54-1.494 5.398-2.527 8.492-3.074 1.345-.236 2.677-.354 3.99-.354 3.097 0 6.1.654 8.963 1.963 4.143 1.894 7.354 4.9 9.545 8.95l14.85 28.066 7.44-1.314-7.632-43.625 21.438-3.775 7.632 43.623 26.08-4.602-3.996-23.004-18.063 3.185-3.635-20.617 55.695-9.822 3.636 20.62-17.016 3 3.996 23.005 37.672-6.642-2.61-15.135c-.478-2.734-1.534-4.434-3.312-5.346-1.453-.746-3.05-1.115-4.824-1.115-.836 0-1.71.082-2.63.244l-3.903.69-3.637-20.62 3.9-.69c1.916-.34 3.87-.51 5.843-.51 1.723 0 3.458.132 5.2.392 3.827.566 7.41 1.828 10.655 3.75 3.267 1.93 6.12 4.545 8.488 7.768 2.41 3.28 4.043 7.29 4.857 11.918l2.59 15.018 25.322-4.465c-6.265-73.58-50.18-130.98-103.54-131.46"/></defs><defs transform="translate(160.96 154.61) scale(1.713)"><path id="fn" d="M3607 4520.4c60.412 0 109.39 66.836 109.39 149.29 0 19.742-2.807 38.584-7.905 55.832-16.19 54.754-55.48 93.408-101.39 93.46h-.088c82.45 0 149.29-66.843 149.29-149.29 0-81.126-64.7-147.13-145.31-149.24-1.32-.034-2.652-.052-3.98-.052"/></defs><g transform="translate(160.96 154.61) scale(1.713)"><linearGradient id="fo" y2="220.66" gradientUnits="userSpaceOnUse" x2="156.71" gradientTransform="matrix(1 0 0 -1 102.4 520.1)" y1="220.66" x1="-102.37"><stop stop-color="#FFD500" offset="0"/><stop stop-color="#F8C900" offset=".498"/><stop stop-color="#F2C200" offset=".571"/><stop stop-color="#E1AF00" offset=".676"/><stop stop-color="#C69100" offset=".8"/><stop stop-color="#A06600" offset=".937"/><stop stop-color="#8C5000" offset="1"/></linearGradient><path fill="url(#fo)" d="M149.55 299.52c1.69 0 3.37-.06 5.04-.164-1.913.088-3.835.148-5.77.155.244.003.486.01.73.01z"/><linearGradient id="fp" y2="519.57" gradientUnits="userSpaceOnUse" x2="156.71" gradientTransform="matrix(1 0 0 -1 102.4 520.1)" y1="519.57" x1="-102.37"><stop stop-color="#FFD500" offset="0"/><stop stop-color="#F8C900" offset=".498"/><stop stop-color="#F2C200" offset=".571"/><stop stop-color="#E1AF00" offset=".676"/><stop stop-color="#C69100" offset=".8"/><stop stop-color="#A06600" offset=".937"/><stop stop-color="#8C5000" offset="1"/></linearGradient><path fill="url(#fp)" d="M149.55.477c-.2 0-.398.007-.597.007 1.49.007 2.973.04 4.452.095-1.28-.06-2.564-.103-3.855-.103z"/><path fill="#ffd500" d="M148.4 299.52c.143 0 .285-.007.428-.007h-.014c-.138 0-.276.007-.414.007zM148.4.475c.18 0 .36.008.542.01h.02c-.19 0-.375-.01-.562-.01z"/><path fill="#fff" d="M291.9 150C291.9 70.492 232.35 5.49 157.18.76 214.56 5.494 260.03 70.492 260.03 150c0 79.5-45.468 144.5-102.85 149.23C232.35 294.5 291.9 229.5 291.9 150z"/><path fill="#fff" d="M148.94-.182C66.638.15.03 66.958.03 149.338c0 82.33 66.544 149.11 148.78 149.51 57.88-.318 104.73-67.135 104.73-149.51 0-82.326-46.785-149.1-104.61-149.52zm-23.982 180.5c-.713 2.924-1.975 5.568-3.747 7.86-1.74 2.25-3.928 4.158-6.498 5.67-2.547 1.495-5.408 2.53-8.505 3.078-4.506.792-8.87.282-12.975-1.52-4.21-1.845-7.47-4.895-9.688-9.06l-12.034-22.59-.122.02-10.52-19.75c-.497-.953-.896-1.462-1.13-1.713-1.027.18-1.483.326-1.053 2.773l3.537 20.063.043-.01 6.657 37.755-21.468 3.79-6.614-37.515-.043.008-3.828-21.707c-.577-3.255-.506-6.386.203-9.296.708-2.915 1.968-5.558 3.743-7.853 1.74-2.25 3.928-4.157 6.5-5.673 2.546-1.497 5.41-2.532 8.508-3.08 4.52-.794 8.888-.254 12.974 1.61 4.148 1.897 7.364 4.912 9.56 8.967l14.748 27.54.123-.02 7.923 14.796c.497.955.88 1.462 1.13 1.727 1.03-.185 1.49-.328 1.057-2.777l-2.613-14.822-.046.008-7.645-43.35 21.468-3.788 7.605 43.114.045-.008 2.902 16.46c.575 3.25.505 6.38-.203 9.292zm44.032-34.66l.043-.006 6.658 37.755-20.65 3.64-6.615-37.51-.043.007-4.003-22.7-18.092 3.19-3.64-20.65 55.78-9.837 3.643 20.65-17.04 3.005 3.96 22.457zm37.815-5.75l-.043.006-2.613-14.817c-.48-2.738-1.54-4.44-3.32-5.353-2.14-1.096-4.583-1.38-7.468-.872l-3.906.688-3.644-20.65 3.908-.688c3.595-.636 7.315-.677 11.06-.12 3.834.567 7.425 1.83 10.675 3.753 3.27 1.934 6.13 4.552 8.5 7.78 2.413 3.288 4.05 7.303 4.866 11.937l2.55 14.458.043-.007 6.658 37.756-20.65 3.64-6.615-37.513z"/></g></svg><svg width="822" height="822" viewBox="-99.189 0.236 822 300" id="tf1" y="4932"><defs><path id="ga" d="M724 .236H-97.578v300H724v-300"/></defs><linearGradient id="gb" gradientUnits="userSpaceOnUse" x1="-97.578" y1="150.236" x2="724" y2="150.236"><stop offset="0" stop-color="#111E9B"/><stop offset=".239" stop-color="#002DC0"/><stop offset=".644" stop-color="#7E0839"/><stop offset="1" stop-color="#9E0003"/></linearGradient><use xlink:href="#ga" overflow="visible" width="100%" height="100%" fill="url(#gb)"/><clipPath id="gc"><use xlink:href="#ga" overflow="visible" width="100%" height="100%"/></clipPath><g clip-path="url(#gc)"><defs><path id="gd" d="M724 .236H-97.578v.537h821.16v84.582c-27.657-1.526-55.262-2.374-82.786-2.63V255.4h-94.998v-171.3c-36.76 1.368-73.024 3.65-108.466 6.638v7.82h-78.25l-.472.055v38.5h56.286v52.412H358.61v65.876h-91.637V110.764c-58.934 8.81-113.266 18.815-161.01 28.675v115.958H14.328v-95.516C-52.016 175.822-93.038 188.26-97.58 189.65v110.586H724v-300"/></defs><clipPath id="ge"><use xlink:href="#gd" overflow="visible" width="100%" height="100%"/></clipPath><g clip-path="url(#ge)"><image overflow="visible" width="623" height="228" xlink:href="file:///C:/Users/rtardivon/Desktop/RESPONSIVE/logo%20sav/png%20jul/D35CB09.jpg" transform="matrix(1.32 0 0 -1.32 -196.5 -28.69)"/></g></g><path fill="#fff" d="M-33.542 46.15v72.246h47.87v137.002h91.635V118.396h47.875V46.15h-187.38M266.974 46.15v209.248h91.637v-65.876h56.287v-52.41H358.61V98.555h78.722V46.15H266.974M640.796 45.074v210.324h-94.998V72.024l94.998-26.95"/><radialGradient id="gf" cx="-87.689" cy="790.736" r="1" gradientTransform="matrix(-235.65 324.3 324.56 235.84 -277015.03 -157962.63)" gradientUnits="userSpaceOnUse"><stop offset="0" stop-color="#FFF"/><stop offset="0" stop-color="#F5F5F5"/><stop offset="1" stop-color="#ACABAD"/></radialGradient><path d="M-97.578.773h-.42V189.78l.42-.13V.773" fill="url(#gf)"/><defs><path id="gg" d="M359.083 98.556h-.473v.055c.16-.017.314-.036.473-.054M723.58.773H-97.577V189.65c4.54-1.39 45.563-13.828 111.907-29.768v-41.486h-47.873V46.15h187.38v72.246h-47.875v21.043c47.746-9.86 102.078-19.865 161.01-28.676V46.15h170.36v44.586c35.44-2.987 71.705-5.27 108.465-6.638V72.024l94.998-26.95v37.652c27.524.255 55.13 1.103 82.785 2.63V.772"/></defs><linearGradient id="gh" gradientUnits="userSpaceOnUse" x1="34.42" y1="321.648" x2="539.438" y2="-183.37"><stop offset="0" stop-color="#FFF"/><stop offset="0" stop-color="#0D2DAD"/><stop offset=".224" stop-color="#2751D1"/><stop offset=".493" stop-color="#7D53A0"/><stop offset="1" stop-color="#9F080D"/></linearGradient><use xlink:href="#gg" overflow="visible" width="100%" height="100%" fill="url(#gh)"/><radialGradient id="gi" cx="-87.689" cy="790.736" r="1" gradientTransform="matrix(-235.65 324.3 324.56 235.84 -277015.03 -157962.63)" gradientUnits="userSpaceOnUse"><stop offset="0" stop-color="#FFF"/><stop offset="0" stop-color="#FFF"/><stop offset="1" stop-color="#FFF"/></radialGradient><path d="M153.838 46.15h-187.38v72.246H14.33v41.486c26.68-6.41 57.49-13.393 91.633-20.443v-21.044h47.875V46.15" fill="url(#gi)"/><radialGradient id="gj" cx="-87.689" cy="790.736" r="1" gradientTransform="matrix(-235.65 324.3 324.56 235.84 -277015.03 -157962.63)" gradientUnits="userSpaceOnUse"><stop offset="0" stop-color="#FFF"/><stop offset="0" stop-color="#FFF"/><stop offset="1" stop-color="#FFF"/></radialGradient><path d="M437.332 46.15H266.974v64.614c29.478-4.406 60.105-8.513 91.637-12.153v-.054h.474c25.537-2.944 51.662-5.58 78.25-7.82V46.15" fill="url(#gj)"/><radialGradient id="gk" cx="-87.689" cy="790.736" r="1" gradientTransform="matrix(-235.65 324.3 324.56 235.84 -277015.03 -157962.63)" gradientUnits="userSpaceOnUse"><stop offset="0" stop-color="#FFF"/><stop offset="0" stop-color="#FFF"/><stop offset="1" stop-color="#FFF"/></radialGradient><path d="M640.796 45.074l-94.998 26.95v12.074c25.44-.947 51.13-1.456 76.948-1.456 6.006 0 12.03.028 18.05.083v-37.65" fill="url(#gk)"/></svg><svg id="tf1-grey" viewBox="105 -15 822 822" width="822" height="822" y="5754"><style>.st0{clip-path:url(#hSVGID_2_)}.hst1{clip-path:url(#hSVGID_4_);fill:#ccc}.hst2{clip-path:url(#hSVGID_6_);fill:url(#hpath5189_1_)}</style><g id="hg5166" transform="translate(-.21 260.76)"><defs><path id="hSVGID_1_" d="M927-14.8H105.4v300H927v-300"/></defs><clipPath id="hSVGID_2_"><use xlink:href="#hSVGID_1_" overflow="visible"/></clipPath><g><defs><path id="hSVGID_3_" d="M927-14.8H105.4v300H927v-300"/></defs><clipPath id="hSVGID_4_"><use xlink:href="#hSVGID_3_" overflow="visible"/></clipPath><path id="hpath5180" class="hst1" d="M516.6-14.8H105.4v300H927v-300H516.6zM356.8 103.4H309v137h-91.6v-137h-47.9V31.1h187.4c-.1 0-.1 72.3-.1 72.3zm283.5-19.8h-78.7v38.6h56.3v52.4h-56.3v65.9H470V31.1h170.4l-.1 52.5zm203.5 156.8h-95V57l95-27v210.4z"/></g><g><defs><path id="hSVGID_5_" d="M927-14.8H105.4v300H927v-300"/></defs><clipPath id="hSVGID_6_"><use xlink:href="#hSVGID_5_" overflow="visible"/></clipPath><radialGradient id="hpath5189_1_" cx="134.715" cy="531.607" r="1" gradientTransform="matrix(-235.65 324.3 324.56 235.84 -140301.03 -168983.97)" gradientUnits="userSpaceOnUse"><stop offset="0" stop-color="#FFF"/><stop offset="0" stop-color="#F5F5F5"/><stop offset="1" stop-color="#ACABAD"/></radialGradient><path id="hpath5189" class="hst2" d="M105.4-14.2h-.4v189s.1 0 .4-.1V-14.2"/></g></g></svg><svg viewBox="0 0 822 822" height="822" width="822" id="tf1-white" y="6576"><g transform="translate(-.21 260.76)"><defs><path id="ia" d="M822 .236H.422V300.24H822V.236"/></defs><clipPath id="ib"><use xlink:href="#ia" height="100%" width="100%" overflow="visible"/></clipPath><path fill="#fff" d="M411.6.236H.42v300H822v-300H411.6zm-159.76 118.16h-47.875v137H112.33v-137H64.46V46.15h187.38v72.246zm283.49-19.84h-78.722v38.555h56.286v52.412h-56.286V255.4H364.97V46.15h170.36v52.405zm203.46 156.84h-94.998V72.026l94.998-26.95v210.32z" clip-path="url(#ib)"/><radialGradient id="ic" gradientUnits="userSpaceOnUse" cy="-.601" cx="-75.62" gradientTransform="matrix(-235.65 324.3 -324.56 -235.84 -17628 24473)" r="1"><stop stop-color="#fff" offset="0"/><stop stop-color="#F5F5F5" offset="0"/><stop stop-color="#ACABAD" offset="1"/></radialGradient><path fill="url(#ic)" d="M.422.773h-.42v189.01l.42-.13V.774" clip-path="url(#ib)"/></g></svg><svg width="822" height="822" viewBox="0 0 822 822" id="tfou" y="7398"><radialGradient gradientUnits="userSpaceOnUse" gradientTransform="matrix(.05 0 0 -.05 -123.97 -220.87)" r="2904.132" cy="-6191.408" cx="5775.336" id="ja"><stop stop-color="#FB597A" offset="0"/><stop stop-color="#FC3B4E" offset=".204"/><stop stop-color="#FB2E3C" offset=".502"/><stop stop-color="#FA1416" offset=".808"/><stop stop-color="#D30000" offset="1"/></radialGradient><radialGradient gradientUnits="userSpaceOnUse" gradientTransform="matrix(.05 0 0 -.05 -123.97 -220.87)" r="2424.603" cy="-6770.016" cx="4494.497" id="jb"><stop stop-color="#F5F8F7" offset=".557"/><stop stop-color="#DEE4E3" offset=".851"/><stop stop-color="#E2E7E6" offset=".902"/><stop stop-color="#FFF" offset="1"/></radialGradient><radialGradient gradientUnits="userSpaceOnUse" gradientTransform="matrix(.05 0 0 -.05 -123.97 -220.87)" r="2755.641" cy="-6589.096" cx="5303.05" id="jc"><stop stop-color="#F5F8F7" offset=".557"/><stop stop-color="#DEE4E3" offset=".851"/><stop stop-color="#E2E7E6" offset=".902"/><stop stop-color="#FFF" offset="1"/></radialGradient><title>Layer 1</title><path d="M425.878 278.422c111.982 0 138.327 91.093 135.018 150.696C557.81 484.64 523.21 576 420.874 576 345.408 576 261 523.615 261 439.7c0-74.316 73.908-161.278 164.878-161.278z" fill="url(#ja)"/><path d="M403.2 420.297c3.07-105.44 6.436-134.724 7.53-141.067-13.19 1.4-25.927 4.594-38.025 9.25-4.927 9.1-10.05 41.142-12.997 131.42-1.563 47.624-3.607 88.41-1.718 116.974.716 14.914 3.085 25.16 4.5 29.105 13.126 4.53 26.726 7.585 40.28 9.033-.874-7.03-2.95-38.4.43-154.716z" fill="url(#jb)"/><path d="M466.054 282.945c-11.534-2.812-24.355-4.407-38.578-4.515-.334 9.545-2.052 43.608-4.66 149.622-2.73 110.056-2.625 141.936-2.61 147.948h.678c13.775 0 26.327-1.654 37.74-4.645 2.983-8.64 6.522-46.682 8.32-154.68 1.638-98.124.445-125.693-.89-133.73z" fill="url(#jc)"/><linearGradient gradientTransform="matrix(1 0 0 -1 .04 299.21)" y2=".571" x2=".951" y1=".571" id="jd"><stop stop-color="#680F21" offset="0"/><stop stop-color="#9C1632" offset="1"/></linearGradient><path d="M360.727 330.81c-40.367 22.742-63.922 52.836-63.922 90.08 0 36.954 19.32 72.174 53.43 87.763 41.62 19.026 93.88 19.29 132.013-20.29 41.377-42.968 47.98-108.034 18.104-139.202-35.03-36.532-95.544-43.177-139.625-18.35z" fill="url(#jd)"/><linearGradient gradientTransform="matrix(1 0 0 -1 .04 299.21)" y2=".576" x2=".95" y1=".576" id="je"><stop stop-color="#F0320E" offset="0"/><stop stop-color="#F74819" offset=".259"/><stop stop-color="#F55C22" offset=".498"/><stop stop-color="#F7B75D" offset="1"/></linearGradient><path d="M365.165 344.715c-34.516 19.44-54.09 44.038-54.09 75.884 0 31.588 18.246 61.71 47.42 75.066 35.59 16.273 80.285 16.487 112.894-17.355 35.404-36.756 41.606-92.334 16.06-118.983-29.964-31.244-84.583-35.85-122.285-14.612z" fill="url(#je)"/><path d="M520.545 350.505c-10.666 1.563-30.693 9.585-35.235 16.5-2.57 3.925-3.452 8.782-3.69 14.782-1.074-3.006-2.92-5.138-5.863-6.188-11.962-4.25-28.156 3.895-28.33 3.98-4.56 2.386-7.216 6.59-8.552 14.162-3.15-1.992-6.705-3.345-10.603-3.958-7.778-1.212-15.73.196-22.52 3.723-.808-4.406-1.997-7.437-4.308-9.334-1.532-1.27-4.725-3.893-22.578-1.173-4.864.744-10.746 1.93-15.884 3.42-.187-1.733-.358-3.56-.53-5.35-1.01-11.086-1.74-19.1-7.85-21.65-1.972-.822-5.237-1.478-14.523-.08-5.556.84-12.357 2.288-19.15 4.073-27.333 7.2-30.793 12.714-31.935 14.528-1.547 2.47-3.134 7.446-3.95 11.03-.628 2.764-.946 5.134-.946 7.17 0 3.313.846 5.74 2.563 7.54 2.51 2.62 6.1 3.786 9.155 4.49.067 12.002 1.205 40.677 10.01 53.618 1.272 1.86 3.91 4.017 9.31 3.762 4.952-.23 13.952-2.704 17.05-8.304 1.463-2.688 4.298-15.462 8.427-38.008 1.49.096 3.178.155 5.002.155.39 7.11 1.213 14.62 2.34 21.055 2.61 14.953 5.737 18.778 8.457 20.553 3.723 2.42 9.09 2.068 12.87.94 4.343-1.306 7.528-3.85 8.96-7.15.676-1.585 1.702-4.71 2.525-7.31 7.647-.948 9.583-2.737 10.374-3.485.14-.128.247-.302.382-.446 4.912 8.002 12.938 12.424 20.437 13.88 9.705 1.87 21.223-.597 29.463-7.915 1.24 3.738 2.887 7.342 5.114 10.246 9.895 12.854 42.212 21.35 64.42 12.535 9.86-3.897 17.752-16.473 21.18-27.202 5.1-15.936 8.48-35.76 9.25-54.385.844-20.462-1.51-33.177-7-37.786-3.067-2.532-7.585-3.33-13.845-2.417z"/><path d="M530.273 357.835c-6.427-5.4-35.984 7.12-39.643 12.675-4.09 6.244-2.274 18.39-2.674 35.83-.445 20.02.192 31.294-7.134 32.47-7.35 1.193-9.354-2.942-7.978-15.62 1.535-13.953 6.905-39.397.764-41.58-8.177-2.908-20.624 2.27-23.24 3.63-2.594 1.36-5.95 4.05-6.182 22.27 0 .693-.016 1.36-.016 2.037-3.413-7.6-9.354-12.27-16.887-13.45-8.686-1.36-19.312 1.157-26.518 9.06-.66-6.698-1.36-14.4-3.38-16.064-3.365-2.79-30.286 1.353-39.544 5.994-.146-.92-.31-1.854-.48-2.816-1.726-9.643-1.416-25.38-5.222-26.967-6.466-2.704-53.184 8.76-57.746 16.035-1.742 2.772-5.58 15.37-3.13 17.937 2.875 3.006 10.535 3.085 10.95 3.933-.132 1.64-.645 40.987 8.875 54.986 1.802 2.64 13.482-.35 15.502-4.032 1.896-3.438 8.796-41.847 8.796-41.847s7.743 1.27 16.345.398c.267 16.722 3.664 40.024 8.146 42.943 2.776 1.813 10.84.438 12.504-3.404 1.097-2.53 3.532-10.73 3.532-10.73s9.146-.548 10.865-2.186c1.738-1.607 2.386-9.688.962-10.684-.45-.31-2.224-.285-3.886-.258-2.052.017-2.62-.037-2.62-.037l.715-6.14s6.378.557 11.353.28c-2.713 35.6 42.665 37.915 51.24 10.872.97 8.836 3.276 17.61 7.047 22.508 8.146 10.612 37.623 18.175 57.013 10.516 7.812-3.102 14.54-14.143 17.46-23.25 10.622-33.12 11.83-78.934 4.21-85.31zm-102.717 71.61c-.24 4.665-3.086 7.17-8.766 6.867-5.416-.303-6.387-3.873-6.132-7.69.278-4.18 1.937-7.08 7.676-6.893 6.642.214 7.43 3.706 7.222 7.714z" fill="#FFF"/></svg><svg height="822" viewBox="0 0 822 822" width="822" id="tmc" y="8220"><g transform="matrix(1.67 0 0 1.67 160.16 161)"><linearGradient id="ka" y2="149.5" gradientUnits="userSpaceOnUse" x2="299.5" y1="149.5" x1=".5"><stop stop-color="#821400" offset=".005"/><stop stop-color="#AE2800" offset=".288"/><stop stop-color="#DA3B00" offset=".606"/><stop stop-color="#F54700" offset=".854"/><stop stop-color="#FF4B00" offset="1"/></linearGradient><path fill="url(#ka)" d="M299.5 149.5c0 82.56-66.94 149.5-149.5 149.5C67.435 299 .5 232.06.5 149.5.5 66.936 67.435 0 150 0c82.56 0 149.5 66.936 149.5 149.5z"/><radialGradient id="kb" gradientUnits="userSpaceOnUse" cy="790.5" cx="-249.5" gradientTransform="matrix(133 0 0 -136.05 33423 107610)" r="1"><stop stop-color="#fff" offset="0"/><stop stop-color="#F9E8E2" offset=".08"/><stop stop-color="#EBB5A5" offset=".268"/><stop stop-color="#DF8B72" offset=".448"/><stop stop-color="#D66B4A" offset=".616"/><stop stop-color="#CF532E" offset=".769"/><stop stop-color="#CB451C" offset=".902"/><stop stop-color="#CA4016" offset="1"/></radialGradient><path fill="url(#kb)" d="M153.5 5.34c-77.833 0 42.76 64.544 42.76 144.16S75.67 293.66 153.5 293.66c77.807 0 140.9-64.544 140.9-144.16 0-79.61-63.09-144.16-140.9-144.16"/><path fill="#fff" d="M78.306 135.53H55.03v58.09H33.41v-58.09H11.22v-19.87h67.087v19.87zM84.777 115.66h24.766v10.714h.297c4.65-7.8 12.408-12.91 20.822-12.91 9.748 0 18.464 3.15 22.66 12.61 6.154-8.253 12.27-12.61 22.77-12.61 24.77 0 27.47 18.77 27.47 33.62v46.534h-25.52v-45.775c0-8.41-3.427-13.358-10.03-13.358-9.334 0-11.085 8.4-11.085 21.012v38.122h-25.52v-44.28c0-9.158-2.7-14.855-9.603-14.855-8.096 0-11.52 5.253-11.52 21.163v37.97H84.776V115.66zM264.66 144.24c-.147-6.61-6.004-11.267-12.457-11.267-14.258 0-16.508 12.163-16.508 22.968 0 10.063 4.354 20.415 15.162 20.415 8.854 0 13.354-5.106 14.562-13.36h24.76C287.93 183.86 271.72 195.87 251 195.87c-23.415 0-40.824-16.064-40.824-39.93 0-24.768 15.76-42.478 40.824-42.478 19.368 0 36.624 10.212 38.43 30.777h-24.77z"/></g></svg><svg height="822" viewBox="0 0 822 822" width="822" id="tmc-white" y="9042"><path fill="#fff" d="M410.99 161C272.93 161 161 272.93 161 410.99 161 549.06 272.93 661 410.99 661 549.06 661 661 549.06 661 410.99 661 272.93 549.06 161 410.99 161zM291.11 387.64h-38.925v97.14H216.03v-97.14h-37.106v-33.226h112.19v33.226zm209.46 97.14h-42.676V408.23c0-14.062-5.736-22.338-16.776-22.338-15.607 0-18.535 14.045-18.535 35.137v63.75h-42.677v-74.045c0-15.314-4.512-24.84-16.06-24.84-13.537 0-19.265 8.783-19.265 35.39v63.498h-42.65v-130.37h41.42v17.916h.496c7.772-13.043 20.75-21.588 34.82-21.588 16.3 0 30.875 5.266 37.887 21.087 10.293-13.804 20.52-21.088 38.08-21.088 41.422 0 45.937 31.388 45.937 56.22v77.814zm79.324 3.767c-39.156 0-68.268-26.86-68.268-66.77 0-41.422 26.355-71.034 68.268-71.034 32.388 0 61.244 17.077 64.264 51.467h-41.42v.002c-.247-11.055-10.044-18.84-20.832-18.84-23.846 0-27.61 20.338-27.61 38.407 0 16.825 7.282 34.136 25.356 34.136 14.806 0 22.33-8.54 24.353-22.34h41.408c-3.766 34.892-30.87 54.972-65.518 54.972z"/></svg><svg id="tmc_grey" viewBox="105 -15 822 822" width="822" height="822" y="9864"><style>.mst0{fill:#ccc}</style><path id="mpath5249" class="mst0" d="M516 146c-138.1 0-250 111.9-250 250s111.9 250 250 250 250-111.9 250-250-111.9-250-250-250zM396.1 372.6h-38.9v97.1H321v-97.1h-37.1v-33.2h112.2v33.2zm209.5 97.2h-42.7v-76.5c0-14.1-5.7-22.3-16.8-22.3-15.6 0-18.5 14-18.5 35.1v63.7h-42.7v-74c0-15.3-4.5-24.8-16.1-24.8-13.5 0-19.3 8.8-19.3 35.4v63.5h-42.6V339.4h41.4v17.9h.5c7.8-13 20.7-21.6 34.8-21.6 16.3 0 30.9 5.3 37.9 21.1 10.3-13.8 20.5-21.1 38.1-21.1 41.4 0 45.9 31.4 45.9 56.2l.1 77.9zm79.3 3.7c-39.2 0-68.3-26.9-68.3-66.8 0-41.4 26.4-71 68.3-71 32.4 0 61.2 17.1 64.3 51.5h-41.4c-.2-11.1-10-18.8-20.8-18.8-23.8 0-27.6 20.3-27.6 38.4 0 16.8 7.3 34.1 25.4 34.1 14.8 0 22.3-8.5 24.4-22.3h41.4c-4 34.9-31.1 54.9-65.7 54.9z"/></svg><svg id="xtra" viewBox="105 -15 822 822" width="822" height="822" y="10686"><style>.nst0{fill:url(#nSVGID_1_)}.nst1{fill:#fff}</style><linearGradient id="nSVGID_1_" gradientUnits="userSpaceOnUse" x1="515.96" y1="82.291" x2="515.96" y2="-275.861" gradientTransform="matrix(1 0 0 -1 .04 299.21)"><stop offset="0" stop-color="#39F"/><stop offset=".25" stop-color="#2C72FF"/><stop offset="1" stop-color="#213A84"/></linearGradient><path class="nst0" d="M200.3 329.8c-1.6-15.8 2.7-29.7 12.6-41.9 10-12.3 22.9-19.2 38.6-20.7l498-49.9c15.7-1.6 29.8 2.7 42 12.7s19.1 22.8 20.7 38.6l19.6 193.6c1.6 15.7-2.7 29.8-12.7 42s-22.9 19.1-38.7 20.7l-498 49.9c-15.7 1.6-29.7-2.7-42-12.7-12.2-10-19.1-22.9-20.7-38.6l-19.4-193.7z"/><path class="nst1" d="M306.6 312.4l28.7 43.1L401.9 252l55.7-5.6-95.9 148.7 64.7 97.1h-52l-38.3-57.4-37.3 57.9h-52l62.9-97.6-55.2-82.8 52.1.1zm377.2 117.5h39.6l-20.2-62.8-19.4 62.8zm1.7-117.5h39.6l69.1 180h-50.3l-8.6-26h-62.9l-8.3 26h-.6l-28.9-51.3 50.9-128.7zm-159.3 0h43.4c14.1.1 25.7 1.3 34.8 3.6 9 2.3 16 5.4 21 9.4 7.4 5.9 12.9 13 16.5 21.5 3.6 8.5 5.3 17.6 5.3 27.5-.1 6.9-.9 13.1-2.6 18.5s-3.8 10.1-6.4 14.1c-3.1 4.7-6.7 8.6-10.8 11.8-4 3.2-8.2 5.7-12.5 7.5l37.2 66.1h-47.5l-46.8-86.8h7.6c5.9 0 11.2-.4 15.9-1.1 4.7-.6 8.6-1.9 11.8-3.8 2.9-1.9 5.3-4.8 7.3-8.8 1.9-3.9 2.8-8.4 2.9-13.5-.1-4.7-1.1-8.9-3-12.5-2-3.6-4.5-6.4-7.6-8.3-2.6-1.6-5.6-2.9-9-3.7-3.3-.8-6.6-1.2-9.8-1.2h-17v139.6H511V363.2h15.2v-50.8zm-126.6 40.4v-.3l25.8-40.1h90.8v40.4h-35.3v139.6H435V352.8h-35.4z"/></svg><svg id="xtra-grey" viewBox="105 -15 822 822" width="822" height="822" y="11508"><style>.ost0{fill:#ccc}</style><path class="ost0" d="M791.4 230.1c12.2 9.9 19.1 22.8 20.6 38.5l19.4 193.6c1.6 15.7-2.6 29.7-12.6 42-10 12.2-22.9 19.1-38.6 20.6l-497.6 49.8c-15.7 1.6-29.7-2.7-41.9-12.6-12.2-10.1-19.1-22.9-20.7-38.6l-19.4-193.6c-1.6-15.7 2.6-29.7 12.6-41.9 10-12.3 22.8-19.1 38.6-20.7l150.2-15-66.5 103.3-28.7-43h-52.1l55.2 82.7-62.8 97.5h52l37.2-57.8 38.2 57.3h52l-64.7-97 95.8-148.6 291.7-29.2c15.8-1.6 29.7 2.7 42.1 12.7zM604.2 316c-9.1-2.3-20.6-3.5-34.7-3.5h-43.3v50.7h-15.4v129.1h45.9V352.8h16.9c3.2 0 6.5.4 9.9 1.1 3.3.9 6.3 2.1 8.9 3.7 3.1 1.9 5.6 4.7 7.6 8.3 1.9 3.6 3 7.8 3 12.5-.1 5.1-1 9.6-2.9 13.5-2 3.9-4.4 6.8-7.3 8.8-3.1 1.9-7 3.1-11.7 3.8-4.7.7-10 1.1-15.9 1.1h-7.6l46.8 86.7h47.4l-37.2-66c4.4-1.8 8.5-4.3 12.5-7.5 4.1-3.2 7.7-7.1 10.8-11.7 2.6-4 4.7-8.7 6.4-14.1 1.6-5.4 2.5-11.5 2.6-18.5 0-9.9-1.8-19-5.3-27.5-3.6-8.5-9-15.6-16.5-21.5-4.9-4-11.9-7.2-20.9-9.5zm81-3.5L634.4 441l28.9 51.3h.6l8.3-26H735l8.6 26h50.2l-69-179.8h-39.6zm-1.6 117.4l19.4-62.8 20.2 62.8h-39.6zm-284-77.1H435v139.4h45.9V352.8h35.2v-40.3h-90.7l-25.8 40.1v.2z"/></svg><svg id="xtra-white" viewBox="-85 -14.1 822 822" width="822" height="822" y="12330"><style>.pst0{fill:#fff}</style><path class="pst0" d="M603.6 232.1c12.2 9.9 19.1 22.8 20.6 38.5l19.4 193.6c1.6 15.7-2.6 29.7-12.6 42-10 12.2-22.9 19.1-38.6 20.6L94.8 576.6c-15.7 1.6-29.7-2.7-41.9-12.6-12.2-10.1-19.1-22.9-20.7-38.6L12.8 331.8c-1.6-15.7 2.6-29.7 12.6-41.9 10-12.3 22.8-19.1 38.6-20.7l150.2-15-66.5 103.3-28.7-43H66.9l55.2 82.7-62.8 97.5h52l37.2-57.8 38.2 57.3h52l-64.7-97 95.8-148.6 291.7-29.2c15.8-1.6 29.7 2.7 42.1 12.7zM416.4 318c-9.1-2.3-20.6-3.5-34.7-3.5h-43.3v50.7H323v129.1h45.9V354.8h16.9c3.2 0 6.5.4 9.9 1.1 3.3.9 6.3 2.1 8.9 3.7 3.1 1.9 5.6 4.7 7.6 8.3 1.9 3.6 3 7.8 3 12.5-.1 5.1-1 9.6-2.9 13.5-2 3.9-4.4 6.8-7.3 8.8-3.1 1.9-7 3.1-11.7 3.8-4.7.7-10 1.1-15.9 1.1h-7.6l46.8 86.7H464l-37.2-66c4.4-1.8 8.5-4.3 12.5-7.5 4.1-3.2 7.7-7.1 10.8-11.7 2.6-4 4.7-8.7 6.4-14.1 1.6-5.4 2.5-11.5 2.6-18.5 0-9.9-1.8-19-5.3-27.5-3.6-8.5-9-15.6-16.5-21.5-4.9-4-11.9-7.2-20.9-9.5zm81-3.5L446.6 443l28.9 51.3h.6l8.3-26h62.8l8.6 26H606l-69-179.8h-39.6zm-1.6 117.4l19.4-62.8 20.2 62.8h-39.6zm-284-77.1h35.4v139.4h45.9V354.8h35.2v-40.3h-90.7l-25.8 40.1v.2z"/></svg></svg>