<?xml version="1.0" encoding="utf-8"?>
<!DOCTYPE svg PUBLIC "-//W3C//DTD SVG 1.1//EN" "https://www.w3.org/Graphics/SVG/1.1/DTD/svg11.dtd">
<svg version="1.1" xmlns="https://www.w3.org/2000/svg" xmlns:xlink="https://www.w3.org/1999/xlink" x="0px" y="0px"
	 width="119px" height="37.994px" viewBox="0 0 119 37.994" enable-background="new 0 0 119 37.994" xml:space="preserve">
			<path fill="#007EB4" d="M108.8,22.984c0.325,0.606,1.197,1.41,1.942,1.786l4.435,2.24c0.745,0.377,1.036,0.082,0.646-0.657
				l-3.558-6.746c-0.39-0.738-1.172-0.841-1.739-0.228l-1.285,1.389C108.676,21.38,108.477,22.377,108.8,22.984z"/>
			<path fill="#D7DE3B" d="M100.396,14.017c0.13-0.865-0.466-1.447-1.329-1.293l-9.142,1.635c-0.862,0.153-0.915,0.575-0.116,0.935
				l4.224,1.909c0.798,0.36,2.155,0.53,3.017,0.375l1.316-0.234c0.861-0.154,1.674-0.988,1.805-1.853L100.396,14.017z"/>
			<path fill="#EF5B3A" d="M114.833,13.347c0.705-0.179,1.709-0.739,2.231-1.245l1.629-1.579c0.522-0.505,0.359-0.845-0.362-0.752
				l-6.992,0.892c-0.722,0.092-1.633-0.334-2.026-0.946l-5.972-9.311c-0.393-0.612-0.653-0.521-0.578,0.202l0.635,6.137
				c0.076,0.724,0.439,1.828,0.81,2.454l2.845,4.815c0.371,0.626,1.25,0.992,1.955,0.813L114.833,13.347z"/>
			<path fill="#25246F" d="M103.946,23.522c0.493-0.674,0.295-1.551-0.44-1.949l-1.28-0.692c-0.734-0.397-1.682-0.134-2.107,0.586
				l-2.111,3.584c-0.424,0.72-0.846,1.988-0.936,2.818l-0.483,4.433c-0.091,0.831,0.238,0.958,0.732,0.283L103.946,23.522z"/>
			<path fill="#25246F" d="M7.849,37.994c4.655,0.008,6.445-1.955,7.199-3.594c0.836-1.824,0.745-5.05-1.601-6.364
				c-1.189-0.667-2.902-1.179-4.413-1.631c-1.636-0.489-4.389-0.94-4.2-3.308c0.098-1.234,1.047-2.385,3.02-2.385
				c2.747,0,4.726,2.343,4.726,2.343l2.673-1.694c0,0-2.163-3.568-7.215-3.567c-1.557,0-6.309,0.454-7.185,4.678
				c-0.55,2.65,0.872,4.455,2.827,5.363c1.427,0.663,2.854,1.098,4.118,1.47c1.911,0.563,4.793,1.17,3.798,3.831
				c-0.512,1.369-1.948,2.494-4.977,1.695c-2.479-0.654-4.483-2.693-4.483-2.693L0,34.011C0,34.011,2.235,37.982,7.849,37.994z"/>
			<path fill="#25246F" d="M68.234,23.798c-4.176,0.035-6.431,3.214-6.431,7.375c0,2.692,1.86,6.8,6.392,6.8
				c3.89,0,5.799-2.7,5.799-2.7l-1.717-1.704c-1.447,1.8-6.13,2.428-6.992-1.373c-0.924-4.076,1.759-5.5,3.153-5.5
				c2.651,0,2.313,3.154,2.313,3.154h3.003C73.755,29.85,74.226,23.747,68.234,23.798z"/>
				<path fill="#25246F" d="M43.432,37.384c0.814,0.304,1.836,0.278,1.836,0.278V24.146h-9.989c0,0,0-2.131,0-2.623
					c0-0.693,0.781-1.616,1.917-1.615c0.756,0,1.795,0.435,1.795,0.435l1.154-2.395c-0.386-0.249-2.738-1.672-5.137-0.712
					c-2.373,0.949-2.91,2.837-2.91,4.254c0,1.498-0.005,2.656-0.005,2.656h-2.273v2.809h2.158l0.003,10.707h3.299V26.955h6.69v6.802
					C41.969,35.34,41.968,36.837,43.432,37.384z"/>
				<path fill="#25246F" d="M44.115,16.988c-1.208,0-2.191,0.983-2.191,2.189c0,1.208,0.982,2.191,2.191,2.191
					c1.208,0,2.19-0.982,2.19-2.191C46.305,17.971,45.322,16.988,44.115,16.988z"/>
			<path fill="#25246F" d="M23.19,23.797c-3.753,0-6.478,2.986-6.478,7.099c0,4.112,2.725,7.098,6.478,7.098
				c3.753,0,6.478-2.986,6.478-7.098C29.668,26.783,26.944,23.797,23.19,23.797z M23.19,35.172c-2.004,0-3.327-1.912-3.327-4.27
				c0-2.358,1.326-4.271,3.327-4.271c2.011,0,3.327,1.912,3.327,4.271C26.517,33.26,25.201,35.172,23.19,35.172z"/>
			<path fill="#25246F" d="M81.119,23.797c-3.753,0-6.478,2.986-6.478,7.099c0,4.112,2.724,7.098,6.478,7.098
				s6.478-2.986,6.478-7.098C87.597,26.783,84.872,23.797,81.119,23.797z M81.119,35.172c-2.004,0-3.326-1.912-3.326-4.27
				c0-2.358,1.325-4.271,3.326-4.271c2.01,0,3.327,1.912,3.327,4.271C84.445,33.26,83.129,35.172,81.119,35.172z"/>
			<path fill="#25246F" d="M56.796,29.644c-0.019-1.153-0.304-1.945-0.897-2.492c-0.456-0.421-1.074-0.662-1.691-0.662
				c-0.617,0-1.235,0.241-1.69,0.662c-0.594,0.547-0.879,1.339-0.898,2.492c-0.005,1.185-0.004,8.018-0.004,8.018h-3.529v-9.687
				c0-0.635-0.444-1.017-1.191-1.024v-2.804c0.229-0.049,0.749-0.146,1.339-0.169c2.75-0.11,3.047,2.504,3.047,2.504
				s1.265-2.648,4.423-2.648c1.991,0,4.416,1.353,4.416,3.889c0,1.009,0,9.94,0,9.94h-3.328L56.796,29.644z"/>
</svg>
