<svg xmlns="https://www.w3.org/2000/svg" xmlns:xlink="https://www.w3.org/1999/xlink" version="1.1" id="Calque_1" x="0" y="0" viewBox="0 0 197 30.7" enable-background="new 0 0 197 30.7" xml:space="preserve"><path fill="#FFFFFF" d="M5.3 19.8c0 0.9 0.6 1.5 1.6 1.5 0.5 0 1.2-0.2 1.9-0.5l0.8 4.1c-1 0.5-2 1-3.9 1 -3.4 0-5.7-2.3-5.7-5.7V0h5.3V19.8z"/><path fill="#FFFFFF" d="M16.4 4c0 1.7-1.3 2.9-3.1 2.9s-3-1.3-3-2.9c0-1.6 1.3-3 3-3S16.4 2.3 16.4 4zM10.7 25.4V8.9H16v16.6H10.7z"/><path fill="#FFFFFF" d="M35.9 15.3v10.2h-5.3v-9.1c0-1.9-1.2-3.3-2.8-3.3 -2.1 0-3.4 1.4-3.4 4.6v7.7h-5.3V8.9h5.3v1.6c1.3-1.3 3-2.1 5.1-2.1C33.3 8.4 35.9 11.1 35.9 15.3z"/><path fill="#FFFFFF" d="M50.8 24.7c-1.3 0.7-2.6 1.2-4.5 1.2 -4.1 0-6.6-2.2-6.6-6.6V13h-3V8.9h3V3.3H45v5.6h4.9V13H45v5.7c0 1.7 0.8 2.4 2.2 2.4 0.7 0 1.7-0.3 2.4-0.7L50.8 24.7z"/><path fill="#FFFFFF" d="M67.8 18.5H55.6c0.4 2 1.8 3.2 3.6 3.2 1.2 0 2.6-0.3 3.5-1.9l4.7 1c-1.4 3.5-4.4 5.2-8.2 5.2 -4.8 0-8.8-3.5-8.8-8.8 0-5.2 4-8.8 8.8-8.8 4.7 0 8.5 3.4 8.6 8.8V18.5zM55.7 15.3h6.8c-0.5-1.8-1.8-2.6-3.3-2.6C57.7 12.7 56.2 13.6 55.7 15.3z"/><path fill="#FFFFFF" d="M81.7 8.8L81.5 14h-1c-3.7 0-5.7 1.9-5.7 6.2v5.2h-5.3V8.9h5.3V12c1.2-2 3-3.4 5.7-3.4C81 8.6 81.3 8.7 81.7 8.8z"/><path fill="#FFFFFF" d="M99.8 15.3v10.2h-5.3v-9.1c0-1.9-1.2-3.3-2.8-3.3 -2.1 0-3.4 1.4-3.4 4.6v7.7H83V8.9h5.3v1.6c1.3-1.3 3-2.1 5.1-2.1C97.2 8.4 99.8 11.1 99.8 15.3z"/><path fill="#FFFFFF" d="M153.3 25.4H148v-1.6c-1.3 1.3-3 2.1-5.1 2.1 -3.9 0-6.4-2.7-6.4-6.9V8.9h5.3v9.1c0 1.9 1.2 3.3 2.8 3.3 2.1 0 3.4-1.4 3.4-4.6V8.9h5.3V25.4z"/><path fill="#FFFFFF" d="M168.4 24.7c-1.3 0.7-2.6 1.2-4.5 1.2 -4.1 0-6.6-2.2-6.6-6.6V13h-3V8.9h3V3.3h5.3v5.6h4.9V13h-4.9v5.7c0 1.7 0.8 2.4 2.2 2.4 0.7 0 1.7-0.3 2.4-0.7L168.4 24.7z"/><path fill="#FFFFFF" d="M185.4 18.5h-12.2c0.4 2 1.8 3.2 3.6 3.2 1.2 0 2.6-0.3 3.5-1.9l4.7 1c-1.4 3.5-4.4 5.2-8.2 5.2 -4.8 0-8.8-3.5-8.8-8.8 0-5.2 4-8.8 8.8-8.8 4.7 0 8.5 3.4 8.6 8.8V18.5zM173.3 15.3h6.8c-0.5-1.8-1.8-2.6-3.3-2.6C175.3 12.7 173.8 13.6 173.3 15.3z"/><path fill="#FFFFFF" d="M195.8 28.1c0.6 0 1.1 0.5 1.1 1.1s-0.5 1.1-1.1 1.1c-0.6 0-1.1-0.5-1.1-1.1S195.3 28.1 195.8 28.1z"/><path fill="#FFFFFF" d="M193.8 19.6c2 0.4 3.2 2 3.2 4 0 2.4-1.8 4.3-4.2 4.3 -2.3 0-4.2-1.9-4.2-4.3 0-2 1.2-3.7 3.1-4l0.5 1.9c-1.2 0.3-1.7 1.1-1.7 2.1 0 1.3 1 2.3 2.4 2.3s2.4-1 2.4-2.3c0-1-0.6-1.8-1.8-2.1L193.8 19.6z"/><path fill="#FFFFFF" d="M192.9 10.6c2.3 0 4.2 1.9 4.2 4.3 0 2.4-1.8 4.3-4.2 4.3 -2.3 0-4.2-1.9-4.2-4.3C188.7 12.5 190.5 10.6 192.9 10.6zM192.9 12.6c-1.4 0-2.4 1-2.4 2.3 0 1.3 1 2.3 2.4 2.3 1.4 0 2.4-1 2.4-2.3C195.2 13.6 194.2 12.6 192.9 12.6z"/><path fill="#FFFFFF" d="M196.9 0.6v1.9h-4l4 2.1v1.2l-4 2.1h4v1.9h-8V7.9l5-2.7 -5-2.7V0.6H196.9z"/><circle fill="none" cx="118" cy="16.8" r="4.2"/><path fill="#FFFFFF" d="M118 0.1c-9.2 0-16.7 7.5-16.7 16.7 0 3.8 1.2 7.2 3.3 10 1.1 1.5 2.5 2.8 4.1 3.9l3.4-3.4c-1.7-0.9-3.1-2.3-4.2-3.8 -1.3-1.9-2-4.2-2-6.7 0-6.7 5.4-12 12-12 6.7 0 12 5.4 12 12 0 2.5-0.7 4.8-2 6.7l-2.5-2.5c0.7-1.3 1.1-2.7 1.1-4.2 0-4.8-3.9-8.7-8.7-8.7s-8.7 3.9-8.7 8.7c0 1.5 0.4 3 1.1 4.2 0.9 1.7 2.4 3 4.2 3.8 1 0.4 2.2 0.7 3.3 0.7s2.3-0.2 3.3-0.7l2.5 2.5 3.4 3.4c1.6-1.1 3-2.4 4.1-3.9 2.1-2.8 3.3-6.3 3.3-10C134.8 7.6 127.3 0.1 118 0.1zM113.8 16.8c0-2.3 1.9-4.2 4.2-4.2s4.2 1.9 4.2 4.2c0 2.3-1.9 4.2-4.2 4.2S113.8 19.1 113.8 16.8z"/></svg>