<svg xmlns="https://www.w3.org/2000/svg" xmlns:xlink="https://www.w3.org/1999/xlink" version="1.1" id="Calque_1" x="0" y="0" viewBox="0 0 227.8 67.2" enable-background="new 0 0 227.8 67.2" xml:space="preserve"><rect x="16.4" y="2.6" transform="matrix(0.9996 -2.704438e-002 2.704438e-002 0.9996 -0.5105 3.0716)" fill="#F7323F" width="193.9" height="35.6"/><path fill="#FFFFFF" d="M28.7 32.1c0.6 0 1.1-0.1 1.5-0.2 0.4-0.1 0.7-0.3 1-0.5 0.3-0.3 0.5-0.6 0.6-1 0.2-0.4 0.3-0.9 0.5-1.6l2.7-12c0.1-0.5 0.2-0.9 0.3-1.3 0.1-0.4 0.1-0.7 0.1-0.9 0-0.5-0.2-0.8-0.5-1 -0.3-0.2-0.9-0.3-1.6-0.2l-0.6 0 0.3-1.1 8.8-0.2L41.4 13c-0.6 0-1.1 0.1-1.5 0.2 -0.4 0.1-0.7 0.4-1 0.7s-0.5 0.8-0.7 1.4c-0.2 0.6-0.4 1.3-0.6 2.3L35 28.4c-0.1 0.6-0.2 1.1-0.2 1.5 0 0.6 0.3 1.1 0.7 1.4 0.5 0.3 1.2 0.4 2.4 0.4 1.1 0 2-0.1 2.8-0.3 0.8-0.2 1.5-0.5 2-0.9 0.6-0.4 1.1-1 1.5-1.6 0.4-0.7 0.8-1.5 1.2-2.4l1.3 0 -2.2 6.3 -16 0.4L28.7 32.1z"/><path fill="#FFFFFF" d="M45.8 31.6c0.6 0 1.1-0.1 1.5-0.2 0.4-0.1 0.7-0.3 1-0.5 0.3-0.3 0.5-0.6 0.6-1 0.2-0.4 0.3-0.9 0.5-1.6l2.8-12c0.1-0.5 0.2-0.9 0.3-1.2 0.1-0.3 0.1-0.6 0.1-0.9 0-0.6-0.2-1-0.7-1.1 -0.4-0.2-1.1-0.2-2.1-0.2l0.3-1.1 14.8-0.4 0.1 5.5 -1 0c-0.3-0.9-0.5-1.6-0.8-2.1 -0.3-0.5-0.6-1-1-1.3 -0.4-0.3-0.8-0.5-1.3-0.6 -0.5-0.1-1-0.2-1.5-0.1l-3.5 0.1 -1.9 8.1 1.7 0c0.5 0 0.9-0.1 1.2-0.2 0.3-0.1 0.6-0.3 0.9-0.5 0.3-0.2 0.5-0.6 0.8-1 0.2-0.4 0.5-0.9 0.8-1.6l1 0 -1.4 8.1 -1.1 0c0-0.5 0.1-1 0-1.4 0-0.8-0.2-1.4-0.5-1.8C57 22.2 56.4 22 55.6 22l-2 0.1 -1.4 5.9c-0.1 0.6-0.2 1.1-0.2 1.5 0 0.6 0.3 1.1 0.9 1.4 0.6 0.3 1.6 0.4 3 0.4 1 0 1.9-0.1 2.7-0.3 0.8-0.2 1.4-0.5 2-0.8 0.6-0.4 1-0.8 1.5-1.4 0.4-0.6 0.8-1.3 1.1-2.2l1.3 0 -2 5.8 -16.9 0.5L45.8 31.6z"/><path fill="#FFFFFF" d="M72.9 30.8c0.9 0 1.7-0.5 2.3-1.3 0.7-0.9 1.2-2.1 1.6-3.6l2.4-10.3c0.2-1 0.4-1.7 0.3-2.2 0-0.3-0.1-0.5-0.2-0.6 -0.1-0.2-0.3-0.3-0.5-0.4 -0.2-0.1-0.5-0.2-0.9-0.2 -0.4 0-0.9 0-1.5 0l0.3-1.1 8.8-0.2 -0.3 1.1c-0.5 0-1 0.1-1.4 0.2 -0.4 0.1-0.7 0.3-0.9 0.7 -0.3 0.3-0.5 0.8-0.7 1.4 -0.2 0.6-0.4 1.3-0.6 2.3l-2.4 10.4c-0.4 1.7-1.2 3.1-2.3 4 -1.1 0.9-2.5 1.4-4.1 1.5 -1.4 0-2.4-0.2-3.2-0.8 -0.8-0.6-1.2-1.5-1.2-2.6 0-0.9 0.2-1.6 0.6-2.2 0.4-0.6 1-0.9 1.7-0.9 0.5 0 0.9 0.1 1.2 0.4 0.3 0.3 0.5 0.7 0.5 1.1 0 0.3-0.1 0.6-0.2 0.8 -0.1 0.2-0.3 0.4-0.5 0.5 -0.2 0.2-0.3 0.3-0.5 0.5 -0.1 0.1-0.2 0.3-0.2 0.6 0 0.4 0.2 0.6 0.5 0.9C72.1 30.7 72.4 30.8 72.9 30.8z"/><path fill="#FFFFFF" d="M95.1 10.2c1.2 0 2.2 0.1 3.1 0.5 0.9 0.4 1.7 0.9 2.4 1.6 0.7 0.7 1.2 1.6 1.6 2.6 0.4 1 0.6 2.2 0.6 3.5 0 1.7-0.2 3.4-0.8 5 -0.6 1.6-1.4 3-2.4 4.2 -1 1.2-2.2 2.2-3.6 2.9 -1.4 0.7-2.8 1.1-4.4 1.2 -1.2 0-2.2-0.1-3.2-0.5 -1-0.4-1.8-0.9-2.5-1.7 -0.7-0.7-1.2-1.6-1.6-2.6 -0.4-1-0.6-2.2-0.6-3.5 0-1.7 0.2-3.4 0.8-5 0.6-1.6 1.4-3 2.4-4.2 1-1.2 2.2-2.2 3.6-2.9C92.1 10.7 93.6 10.3 95.1 10.2zM95.2 11.6c-1.2 0-2.3 0.4-3.3 1 -1 0.6-1.9 1.5-2.6 2.5 -0.7 1.1-1.3 2.3-1.7 3.7 -0.4 1.4-0.6 2.9-0.5 4.6 0.1 2.3 0.5 4 1.3 5.2 0.8 1.1 2 1.7 3.6 1.6 1.1 0 2.2-0.4 3.1-1 0.9-0.6 1.8-1.5 2.4-2.6 0.7-1.1 1.2-2.4 1.6-3.9 0.4-1.5 0.5-3.1 0.5-4.9 -0.1-2.2-0.5-3.7-1.2-4.7C97.7 12.1 96.6 11.6 95.2 11.6z"/><path fill="#FFFFFF" d="M107.1 14.8c0.1-0.4 0.2-0.7 0.2-1.1 0.1-0.4 0.1-0.7 0.1-1 0-0.5-0.2-0.9-0.6-1.1 -0.4-0.2-1-0.3-2-0.3l0.3-1.1 8.6-0.2 -0.3 1.1c-0.6 0-1.2 0.1-1.6 0.2 -0.4 0.1-0.7 0.3-1 0.6 -0.3 0.3-0.5 0.8-0.7 1.4 -0.2 0.6-0.4 1.4-0.6 2.4l-1.6 6.8c-0.1 0.5-0.2 0.9-0.2 1.3 0 0.4-0.1 0.8 0 1.2 0 1.4 0.4 2.6 1.2 3.4 0.8 0.8 1.9 1.2 3.3 1.2 0.9 0 1.7-0.2 2.4-0.6 0.7-0.4 1.3-0.8 1.8-1.4 0.5-0.6 1-1.3 1.4-2.1 0.4-0.8 0.7-1.7 1-2.7 0.2-0.9 0.5-1.8 0.7-2.9 0.2-1.1 0.4-2.1 0.6-3.1 0.2-1 0.3-1.9 0.4-2.7 0.1-0.8 0.1-1.3 0.1-1.6 0-0.5-0.3-0.9-0.8-1.2 -0.5-0.2-1.2-0.4-2-0.4l0.3-1.1 7.1-0.2 -0.3 1.1c-0.4 0-0.8 0.1-1.1 0.2 -0.3 0.1-0.6 0.3-0.8 0.5 -0.2 0.3-0.4 0.7-0.5 1.2 -0.1 0.5-0.3 1.1-0.5 2l-1 5.4c-0.7 3.6-1.8 6.4-3.2 8.2 -1.5 1.9-3.4 2.8-5.7 2.9 -2.3 0.1-4-0.4-5.2-1.5 -1.2-1-1.8-2.6-1.8-4.5 0-0.6 0-1.2 0.1-1.7 0.1-0.6 0.2-1.2 0.4-1.9L107.1 14.8z"/><path fill="#FFFFFF" d="M128.4 24.9c-0.2 0.6-0.3 1.2-0.4 1.7 -0.1 0.5-0.1 0.9-0.1 1.1 0 1.1 1.1 1.6 3.1 1.5l-0.3 1.2 -9 0.2 0.3-1.1c0.9 0 1.6-0.3 2.1-0.8 0.5-0.5 0.9-1.4 1.2-2.5l2.9-12c0.2-0.9 0.3-1.6 0.3-2 0-0.3-0.1-0.5-0.2-0.7 -0.1-0.2-0.3-0.3-0.5-0.4 -0.2-0.1-0.5-0.2-0.9-0.2 -0.4 0-0.8-0.1-1.4-0.1l0.3-1.1 7.5-0.2c2.2-0.1 3.9 0.3 5.1 1.1 1.3 0.8 1.9 1.9 2 3.4 0 0.7-0.1 1.4-0.4 2 -0.3 0.6-0.6 1.2-1.2 1.7 -0.5 0.5-1.1 0.9-1.8 1.3 -0.7 0.4-1.5 0.6-2.4 0.8l2.1 4.9c0.4 0.9 0.8 1.6 1.1 2.2 0.3 0.6 0.6 1 1 1.3 0.3 0.3 0.7 0.5 1.1 0.6 0.4 0.1 0.9 0.2 1.5 0.1l-0.3 1.1 -5.1 0.1 -4.3-10 -2.4 0.1L128.4 24.9zM129.8 18.9l1.3 0c0.9 0 1.8-0.2 2.6-0.4 0.8-0.2 1.5-0.6 2-1 0.6-0.4 1-0.9 1.3-1.5 0.3-0.6 0.5-1.3 0.4-2.1 0-1.1-0.4-1.9-1.1-2.4 -0.7-0.5-1.7-0.8-2.9-0.7 -0.4 0-0.7 0-0.9 0.1 -0.2 0.1-0.4 0.2-0.6 0.4 -0.2 0.2-0.3 0.4-0.4 0.7 -0.1 0.3-0.2 0.6-0.3 1.1L129.8 18.9z"/><path fill="#FFFFFF" d="M156.8 29.7l-7.5-16.1 -0.1 0 -2.8 11.8c-0.1 0.4-0.1 0.8-0.1 1.2 0 0.8 0.3 1.3 0.7 1.7 0.5 0.4 1.1 0.5 1.9 0.5l-0.3 1.1 -7.7 0.2 0.3-1.1c0.8 0 1.6-0.3 2.2-1 0.7-0.6 1.1-1.4 1.3-2.3l2.9-12.1c0.1-0.3 0.1-0.6 0.1-0.8 0-0.9-0.4-1.5-1.1-1.9 -0.7-0.4-1.7-0.6-2.9-0.6l0.3-1.1 6.4-0.2 7.2 15.3 0.1 0 2.6-11c0.1-0.4 0.1-0.7 0.1-1 0-0.8-0.3-1.4-0.7-1.8 -0.5-0.4-1-0.6-1.6-0.6l0.3-1.1 6.9-0.2 -0.3 1.1c-0.3 0-0.7 0.1-1 0.3 -0.3 0.2-0.6 0.4-0.9 0.7 -0.3 0.3-0.5 0.6-0.7 1 -0.2 0.4-0.4 0.8-0.5 1.3l-3.9 16.7L156.8 29.7z"/><path fill="#FFFFFF" d="M176.8 24.7c-0.2 1-0.3 1.7-0.3 2.1 0 0.5 0.2 0.9 0.5 1 0.3 0.2 1 0.2 2 0.2l-0.2 1.1 -8 0.2 0.2-1.1c0.5 0 1-0.1 1.3-0.2 0.3-0.1 0.6-0.3 0.8-0.5 0.2-0.3 0.4-0.6 0.6-1.1 0.1-0.5 0.3-1.1 0.4-1.8l0.6-3.3 -5.8 0.2 -1.7 1.8c-0.7 0.8-1.3 1.4-1.7 1.9 -0.4 0.5-0.7 0.9-0.9 1.2 -0.2 0.3-0.3 0.5-0.4 0.7 0 0.1-0.1 0.3-0.1 0.4 0 0.3 0.2 0.6 0.5 0.7 0.3 0.1 0.8 0.2 1.6 0.2l-0.2 1.1 -7 0.2 0.2-1.1c0.4 0 0.9-0.1 1.3-0.3s0.9-0.5 1.4-0.9c0.5-0.4 1.1-1 1.7-1.6 0.6-0.7 1.3-1.5 2.1-2.5L177.9 8l2.3-0.1L176.8 24.7zM175.1 20l2-8.4 -0.1 0 -6.8 8.6L175.1 20z"/><path fill="#FFFFFF" d="M180.5 28c0.6 0 1.1-0.1 1.5-0.2 0.4-0.1 0.7-0.3 1-0.5 0.3-0.3 0.5-0.6 0.6-1 0.2-0.4 0.3-0.9 0.5-1.6l2.7-12c0.1-0.5 0.2-0.9 0.3-1.3 0.1-0.4 0.1-0.7 0.1-0.9 0-0.5-0.2-0.8-0.5-1 -0.3-0.2-0.9-0.3-1.6-0.2l-0.6 0 0.3-1.1 8.8-0.2 -0.3 1.1c-0.6 0-1.1 0.1-1.5 0.2 -0.4 0.1-0.7 0.4-1 0.7 -0.3 0.3-0.5 0.8-0.7 1.4 -0.2 0.6-0.4 1.3-0.6 2.3l-2.5 10.8c-0.1 0.6-0.2 1.1-0.2 1.5 0 0.6 0.3 1.1 0.7 1.4 0.5 0.3 1.2 0.4 2.4 0.4 1.1 0 2-0.1 2.8-0.3 0.8-0.2 1.5-0.5 2-0.9 0.6-0.4 1.1-1 1.5-1.6 0.4-0.7 0.8-1.5 1.2-2.4l1.3 0 -2.2 6.3 -16 0.4L180.5 28z"/><path fill="#1D1D1B" d="M3.4 40.8H0v-0.5h3.4c1.3 0 2.5 0 3.8-0.1 1.3 0 2.5 0 3.8 0 6.7 0 16.2 2.4 16.2 13.3 0 10.8-9.7 13.3-15.4 13.3 -1.4 0-2.8 0-4.2-0.1 -1.4 0-2.8 0-4.2 0H0v-0.5h3.4V40.8zM8.8 66.1c0.7 0.1 1.3 0.1 2 0.1 9.6 0 10.4-7.5 10.4-12.4 0-8-1.5-13.1-10.1-13.1 -1 0-1.8 0-2.3 0.1V66.1z"/><path fill="#1D1D1B" d="M26.6 40.3h22.1v6.3h-0.5c-0.5-1.6-2.1-5.8-7-5.8h-5.9v11.4h2.1c3.6 0 4.9-2.2 5.6-5.5h0.5v11.5h-0.5c-0.7-2.9-1.8-5.5-5.2-5.5h-2.5v13.4h6.1c4.6 0 7.3-3.3 8.3-7.6h0.5v8.1H26.6v-0.5H30V40.8h-3.4V40.3z"/><path fill="#1D1D1B" d="M50.6 58.4h0.6c0.2 1.2 1 4 3 6 2.3 2.2 4.3 2.2 5.7 2.2 5.2 0 6.5-3.8 6.5-5.7 0-7.4-15.2-3-15.2-13.6 0-3.9 3.7-7.6 8.9-7.6 3.3 0 4.8 1.4 6 1.4 0.7 0 0.8-0.2 1-0.8h0.6v7h-0.5c-1.1-3.4-2.4-7.1-7.2-7.1 -3.9 0-6.1 2.4-6.1 4.6 0 6.8 15.9 3.6 15.9 13.4 0 4.8-4.2 9-10.2 9 -3 0-6.3-1.4-7.3-1.4 -0.7 0-0.9 0.2-1.1 0.9h-0.6V58.4z"/><path fill="#1D1D1B" d="M82.2 40.8h-3.4v-0.5h21.9v6.3h-0.5c-1.4-3.5-3-5.8-7-5.8h-5.6v11.9h2.1c3.6 0 4.9-2.2 5.6-5.5h0.5v11.5h-0.5c-0.7-2.9-1.8-5.5-5.2-5.5h-2.5v12.9H91v0.5H78.8v-0.5h3.4V40.8z"/><path fill="#1D1D1B" d="M100.5 40.3h22.1v6.3h-0.5c-0.5-1.6-2.1-5.8-7-5.8h-5.9v11.4h2.1c3.6 0 4.9-2.2 5.6-5.5h0.5v11.5h-0.5c-0.7-2.9-1.8-5.5-5.2-5.5h-2.5v13.4h6.1c4.6 0 7.3-3.3 8.3-7.6h0.5v8.1h-23.6v-0.5h3.4V40.8h-3.4V40.3z"/><path fill="#1D1D1B" d="M123.4 40.3h9.5l6.4 18.4h0.1l6.5-18.4h9.3v0.5h-3.4v25.3h3.4v0.5H143v-0.5h3.4V40.8h-0.1l-9.1 25.8h-0.6l-9.1-25.8h-0.1v25.3h3.4v0.5h-7.4v-0.5h3.4V40.8h-3.4V40.3z"/><path fill="#1D1D1B" d="M153.9 40.3h9.5l6.4 18.4h0.1l6.5-18.4h9.3v0.5h-3.4v25.3h3.4v0.5h-12.1v-0.5h3.4V40.8h-0.1l-9.1 25.8h-0.6L158 40.8h-0.1v25.3h3.4v0.5h-7.4v-0.5h3.4V40.8h-3.4V40.3z"/><path fill="#1D1D1B" d="M184.6 40.3h22.1v6.3h-0.5c-0.5-1.6-2.1-5.8-7-5.8h-5.9v11.4h2.1c3.6 0 4.9-2.2 5.6-5.5h0.5v11.5H201c-0.7-2.9-1.8-5.5-5.2-5.5h-2.5v13.4h6.1c4.6 0 7.3-3.3 8.3-7.6h0.5v8.1h-23.6v-0.5h3.4V40.8h-3.4V40.3z"/><path fill="#1D1D1B" d="M208.6 58.4h0.6c0.2 1.2 1 4 3 6 2.3 2.2 4.3 2.2 5.7 2.2 5.2 0 6.5-3.8 6.5-5.7 0-7.4-15.2-3-15.2-13.6 0-3.9 3.7-7.6 8.9-7.6 3.3 0 4.8 1.4 6 1.4 0.7 0 0.8-0.2 1-0.8h0.6v7h-0.5c-1.1-3.4-2.4-7.1-7.2-7.1 -3.9 0-6.1 2.4-6.1 4.6 0 6.8 15.9 3.6 15.9 13.4 0 4.8-4.2 9-10.2 9 -3 0-6.3-1.4-7.3-1.4 -0.7 0-0.9 0.2-1.1 0.9h-0.6V58.4z"/></svg>