<?xml version="1.0" encoding="UTF-8" standalone="no"?>
<svg width="121px" height="136px" viewBox="0 0 121 136" version="1.1" xmlns="http://www.w3.org/2000/svg" xmlns:xlink="http://www.w3.org/1999/xlink" xmlns:sketch="http://www.bohemiancoding.com/sketch/ns">
    <!-- Generator: Sketch 3.3.3 (12072) - http://www.bohemiancoding.com/sketch -->
    <title>icon-s-m</title>
    <desc>Created with Sketch.</desc>
    <defs></defs>
    <g id="Page-1" stroke="none" stroke-width="1" fill="none" fill-rule="evenodd" sketch:type="MSPage">
        <g id="Sourd-Malentendant" sketch:type="MSLayerGroup" fill="#FFFFFF">
            <g id="Group" transform="translate(17.000000, 0.000000)" sketch:type="MSShapeGroup">
                <g transform="translate(0.000000, 3.000000)" id="Shape">
                    <path d="M79.4,22 C77.2,17.8 73,13.2 68.5,9.8 C64,6.4 59,4 53.3,2.5 C47.6,1.1 42,0.8 36.4,1.7 C30.9,2.6 25.7,4.5 21.1,7.3 C16.4,10.1 12.4,13.8 8.9,18.3 C5.5,22.8 3.1,27.9 1.6,33.6 C1.1,35.5 1.4,37.2 2.4,38.9 C3.4,40.6 4.8,41.6 6.7,42.1 C8.6,42.6 10.3,42.3 11.9,41.3 C13.5,40.3 14.5,38.9 15,37 C16,33.2 17.6,29.7 19.9,26.7 C22.2,23.6 25,21.2 28.1,19.3 C31.2,17.4 34.7,16.2 38.4,15.5 C42.2,14.9 45.9,15 49.8,16 C53.6,17 57.1,18.6 60.1,20.9 C63.1,23.2 65.6,25.9 67.4,29.1 C69.3,32.2 70.5,35.7 71.1,39.5 C71.7,43.3 71.5,47.1 70.6,51 C70.2,52.7 69.7,54.2 69,55.7 C68.4,57.2 67.6,58.5 66.8,59.8 C66.1,60.5 65.3,61.3 64.4,62.2 C63.5,63.2 62.5,64.2 61.4,65.2 C60.3,66.2 59.3,67.2 58.2,68.2 C57.2,69.1 56.3,69.9 55.5,70.4 C54.7,71 54.1,71.5 53.8,71.7 C52.7,72.5 51.5,73.3 50.4,74.2 C49.2,75.1 48.1,76.2 47.1,77.5 C46,78.8 45.1,80.4 44.1,82.2 C43.2,84 42.4,86.2 41.9,88.8 C41.2,92.1 40.5,95.1 39.8,97.8 C39.1,100.6 38.5,102.4 38.1,103.5 L37.8,104.2 C37.6,104.7 37.3,105.1 37.1,105.5 C36.8,105.9 36.4,106.2 35.7,106.5 C35,106.7 34.1,106.9 32.9,106.9 C31.7,106.9 30.1,106.7 28,106.3 C26.1,105.8 24.4,106.2 22.7,107.3 C22,107.7 21.3,108.3 20.8,109.1 C20.2,109.8 19.9,110.7 19.8,111.6 C19.4,113.5 19.7,115.2 20.7,116.8 C21.7,118.4 23,119.4 24.8,119.9 L25.1,120 C31.5,121.6 36.8,121.5 41.1,119.6 C45.4,117.7 48.6,114.4 50.7,109.5 C51.4,108.1 52.1,106.2 52.8,103.7 C53.5,101.2 54.5,97.3 55.6,92 C56.1,89.4 56.9,87.6 57.8,86.7 C58.7,85.7 60.1,84.6 61.8,83.4 C62.2,83.1 62.6,82.8 62.9,82.6 C63.3,82.4 63.6,82.1 63.9,81.9 C65.2,81 66.6,79.8 68.2,78.3 C69.8,76.9 71.2,75.5 72.6,74.2 C74.1,72.7 75.7,71.1 77.3,69.3 C77.5,69.2 77.8,68.9 78.1,68.4 C80.9,64.1 83,59.5 84.2,54.6 C85.5,49.2 85.1,42.7 84.8,38.6 C84.4,34.4 81.6,26.2 79.4,22 L79.4,22 Z"></path>
                    <path d="M33.2,122 C30.6,122 27.8,121.6 24.8,120.9 L24.5,120.8 C22.5,120.3 20.9,119.1 19.8,117.3 C18.7,115.5 18.4,113.5 18.8,111.4 C18.9,110.4 19.3,109.4 20,108.5 C20.6,107.6 21.4,107 22.2,106.5 C24,105.2 26.1,104.8 28.2,105.4 C30.2,105.8 31.8,106 32.9,106 C34,106 34.8,105.9 35.4,105.7 C35.9,105.5 36.2,105.3 36.3,105.1 C36.5,104.7 36.8,104.3 37,103.9 L37.3,103.2 C37.7,102.2 38.3,100.4 39,97.7 C39.7,94.9 40.4,91.9 41.1,88.7 C41.7,86.1 42.4,83.8 43.4,81.9 C44.3,80 45.4,78.4 46.5,77.1 C47.6,75.7 48.8,74.6 50,73.6 C51.2,72.7 52.4,71.8 53.5,71.1 C53.8,70.9 54.2,70.6 55.2,69.9 C56,69.3 56.8,68.6 57.8,67.7 C58.8,66.8 59.9,65.8 61,64.7 C62.1,63.7 63.1,62.7 64,61.7 C64.9,60.8 65.7,59.9 66.4,59.3 C67.2,58.1 67.9,56.8 68.4,55.5 C69,54.1 69.5,52.6 69.9,51 C70.8,47.3 71,43.6 70.4,39.9 C69.8,36.2 68.6,32.9 66.8,29.9 C65,26.9 62.6,24.2 59.7,22 C56.8,19.8 53.5,18.2 49.8,17.3 C46.1,16.4 42.4,16.2 38.8,16.8 C35.2,17.4 31.8,18.6 28.8,20.4 C25.8,22.2 23.1,24.6 20.9,27.6 C18.7,30.5 17.1,33.9 16.1,37.6 C15.6,39.7 14.4,41.4 12.5,42.5 C10.7,43.7 8.6,44 6.5,43.4 C4.4,42.9 2.7,41.6 1.6,39.8 C0.5,37.9 0.2,35.9 0.7,33.8 C2.2,28 4.7,22.7 8.1,18.1 C11.6,13.5 15.8,9.7 20.5,6.8 C25.3,3.9 30.5,2 36.2,1 C41.9,0.1 47.7,0.3 53.5,1.8 C59.3,3.3 64.6,5.8 69.1,9.2 C73.8,12.8 78,17.5 80.3,21.7 L80.3,21.7 C82.5,25.8 85.4,34.2 85.7,38.5 C86,42.5 86.5,49.2 85.1,54.8 C83.8,59.8 81.7,64.6 78.8,68.9 C78.4,69.4 78.1,69.8 77.8,70 C76.2,71.8 74.7,73.4 73.2,74.9 C71.8,76.2 70.3,77.6 68.8,79.1 C67.2,80.5 65.8,81.7 64.5,82.7 C64.2,83 63.8,83.2 63.4,83.5 C63.1,83.7 62.7,83.9 62.4,84.2 C60.6,85.4 59.3,86.5 58.5,87.4 C58,88 57.2,89.3 56.6,92.2 C55.5,97.5 54.5,101.5 53.8,104 C53.1,106.5 52.3,108.5 51.7,110 C49.5,115.1 46,118.7 41.5,120.6 C39,121.5 36.2,122 33.2,122 L33.2,122 Z M26.4,107.1 C25.3,107.1 24.3,107.4 23.3,108.1 C22.6,108.5 22.1,109 21.6,109.7 C21.1,110.3 20.9,111 20.8,111.7 C20.5,113.4 20.7,114.9 21.6,116.3 C22.4,117.7 23.6,118.5 25.1,118.9 L25.4,119 C31.5,120.5 36.7,120.4 40.7,118.7 C44.7,117 47.8,113.7 49.8,109.1 C50.4,107.7 51.1,105.8 51.8,103.4 C52.5,101 53.4,97 54.6,91.7 C55.2,88.9 56,87 57,85.9 C58,84.9 59.4,83.7 61.2,82.5 C61.6,82.2 62,81.9 62.4,81.7 C62.7,81.5 63,81.3 63.2,81.1 L63.3,81 C64.5,80.1 65.9,78.9 67.5,77.5 C69.1,76.1 70.5,74.7 71.9,73.4 C73.4,71.9 74.9,70.3 76.5,68.5 L76.7,68.3 C76.7,68.3 76.9,68.2 77.2,67.7 C79.9,63.6 82,59 83.2,54.2 C84.5,48.9 84,42.4 83.7,38.5 C83.4,34.4 80.6,26.4 78.5,22.5 L78.5,22.5 C76.4,18.5 72.3,14 67.9,10.6 C63.6,7.3 58.6,4.9 53,3.5 C47.5,2.1 41.9,1.9 36.5,2.7 C31.1,3.6 26.1,5.4 21.5,8.2 C17,11 13,14.6 9.6,19 C6.3,23.4 3.9,28.4 2.5,34 C2.1,35.6 2.3,37.1 3.2,38.5 C4.1,39.9 5.3,40.8 6.9,41.2 C8.5,41.6 10,41.4 11.3,40.5 C12.7,39.6 13.6,38.4 14,36.8 C15,32.9 16.7,29.3 19.1,26.1 C21.5,22.9 24.4,20.4 27.6,18.4 C30.8,16.5 34.4,15.2 38.3,14.5 C42.2,13.9 46.1,14 50.1,15 C54,16 57.6,17.7 60.7,20.1 C63.8,22.5 66.4,25.3 68.3,28.6 C70.2,31.8 71.5,35.5 72.2,39.4 C72.8,43.3 72.7,47.3 71.7,51.3 C71.3,53 70.7,54.6 70.1,56.1 C69.5,57.6 68.7,59 67.8,60.3 L67.7,60.5 C67,61.1 66.2,62 65.3,62.9 C64.4,63.9 63.3,64.9 62.2,65.9 C61.1,66.9 60,67.9 59,68.9 C58,69.9 57,70.6 56.2,71.2 C55.4,71.8 54.8,72.3 54.4,72.5 C53.3,73.2 52.2,74 51.1,74.9 C50,75.8 48.9,76.8 47.9,78.1 C46.9,79.3 45.9,80.9 45,82.6 C44.1,84.3 43.4,86.4 42.9,88.9 C42.2,92.1 41.5,95.2 40.8,98 C40.1,100.8 39.5,102.7 39,103.8 L38.7,104.5 C38.5,105 38.2,105.5 37.9,105.9 C37.5,106.5 36.9,107 36,107.3 C35.2,107.6 34.2,107.7 32.8,107.7 C31.5,107.7 29.8,107.5 27.7,107.1 C27.3,107.1 26.8,107.1 26.4,107.1 L26.4,107.1 Z"></path>
                </g>
                <g transform="translate(21.000000, 22.000000)" id="Shape">
                    <path d="M32,30.5 C32.8,31.9 34,32.7 35.6,33.1 C37.2,33.5 38.6,33.3 40,32.5 C41.4,31.7 42.2,30.5 42.7,28.8 C43.4,26 43.5,23.1 43.1,20.3 C42.7,17.5 41.7,14.9 40.3,12.6 C38.9,10.3 37.1,8.2 34.9,6.5 C32.7,4.8 30.1,3.6 27.3,2.9 C24.5,2.2 21.6,2.1 18.9,2.5 C16.1,3 13.6,3.9 11.2,5.3 C8.9,6.7 6.8,8.5 5.1,10.8 C3.4,13.1 2.2,15.6 1.5,18.5 C1.1,20.2 1.3,21.7 2.1,23 C2.9,24.4 4.1,25.2 5.7,25.6 C7.3,26 8.7,25.8 10.1,25 C11.5,24.2 12.3,23 12.8,21.3 C13.4,18.7 14.9,16.8 17.3,15.4 C19.6,14 22.1,13.6 24.6,14.3 C27.3,15 29.3,16.5 30.6,18.8 C32,21.1 32.3,23.6 31.7,26.1 C31,27.6 31.2,29.1 32,30.5 L32,30.5 Z" stroke="#979797"></path>
                    <path d="M37.1,34.3 C36.5,34.3 35.9,34.2 35.3,34.1 C33.5,33.6 32.1,32.6 31.1,31 L31.1,31 C30.2,29.4 29.9,27.6 30.4,25.7 C31,23.4 30.7,21.2 29.4,19.1 C28.2,17 26.4,15.7 24,15.1 C21.7,14.5 19.5,14.9 17.4,16.1 C15.3,17.4 14,19.1 13.4,21.4 C12.9,23.3 11.9,24.8 10.3,25.7 C8.7,26.6 7,26.9 5.2,26.4 C3.4,25.9 2,24.9 1,23.3 C1.2634338e-13,21.7 -0.2,19.9 0.3,18 C1,15 2.3,12.3 4.1,9.9 C5.9,7.5 8,5.6 10.5,4.1 C12.9,2.6 15.6,1.7 18.5,1.2 C21.4,0.7 24.4,0.9 27.3,1.6 C30.3,2.3 33,3.6 35.3,5.4 C37.6,7.2 39.5,9.3 41,11.7 C42.5,14.1 43.4,16.9 43.9,19.8 C44.4,22.7 44.2,25.7 43.5,28.7 C43,30.6 42,32.1 40.4,33 C39.4,33.9 38.3,34.3 37.1,34.3 L37.1,34.3 Z M22,12.8 C22.9,12.8 23.7,12.9 24.6,13.1 C27.5,13.8 29.7,15.5 31.2,18 C32.7,20.5 33.1,23.3 32.4,26.1 C32,27.5 32.2,28.7 32.9,29.9 L32.9,29.9 C33.6,31 34.5,31.7 35.9,32.1 C37.2,32.4 38.4,32.3 39.5,31.6 C40.6,30.9 41.3,29.9 41.7,28.5 C42.4,25.8 42.5,23.1 42.1,20.4 C41.7,17.7 40.8,15.2 39.5,13 C38.2,10.8 36.4,8.8 34.3,7.2 C32.2,5.6 29.7,4.4 27,3.7 C24.3,3 21.6,2.9 19,3.3 C16.4,3.7 13.9,4.6 11.7,5.9 C9.5,7.2 7.5,9 5.9,11.2 C4.3,13.4 3.1,15.8 2.4,18.5 C2,19.9 2.2,21.1 2.9,22.3 C3.6,23.4 4.5,24.1 5.9,24.5 C7.2,24.8 8.4,24.7 9.5,24 C10.6,23.3 11.3,22.3 11.7,20.9 C12.4,18.1 14.1,15.9 16.6,14.4 C18.3,13.4 20.1,12.8 22,12.8 L22,12.8 Z"></path>
                </g>
                <path d="M99.7,1.6 C97.9,0.3 95.8,-0.2 93.4,0.2 C91,0.6 89.2,1.7 87.9,3.4 L78.9,15.8 C82.1,19.9 84.6,24.5 86.3,29.7 C86.4,30 87.1,32.4 87.1,32.4 C88.1,31.3 90.2,28.7 91.6,27.1 L101.7,13.6 C103.1,11.7 103.6,9.6 103.3,7.2 C102.7,4.9 101.6,3 99.7,1.6 L99.7,1.6 Z" id="Shape"></path>
            </g>
            <path d="M29.7,88.5 C31.1,86.8 33.1,85.9 35.5,85.7 C37.9,85.5 40,86.1 41.6,87.6 C43.4,89.1 44.4,91.1 44.6,93.4 C44.8,96 44.1,98.1 42.6,99.6 L15.3,132.1 C13.8,133.9 11.9,134.9 9.6,135.1 C7.3,135.3 5.2,134.6 3.4,133.1 C1.6,131.6 0.6,129.6 0.4,127.3 C0.2,124.8 0.9,122.8 2.4,121.1 L29.7,88.5 L29.7,88.5 Z" id="Shape" sketch:type="MSShapeGroup"></path>
        </g>
    </g>
</svg>